/* XPM */
static char *xpm__Demon_Door__2___1_1705920382[] = {
/* columns rows colors chars-per-pixel */
"60 60 112 2 ",
"   c None",
".  c #050506",
"X  c #070708",
"o  c #070809",
"O  c #0B0B0C",
"+  c #0E0F11",
"@  c #0F1011",
"#  c #121214",
"$  c #161619",
"%  c #17181A",
"&  c #1A1B1D",
"*  c #1D1E21",
"=  c #1F2024",
"-  c #212226",
";  c #2B2827",
":  c #24262A",
">  c #27292D",
",  c #292A2E",
"<  c #2C2D32",
"1  c #2E3135",
"2  c #303237",
"3  c #3B3635",
"4  c #3D3836",
"5  c #33353B",
"6  c #36383E",
"7  c #3B3A3D",
"8  c #433D3D",
"9  c #373A40",
"0  c #3A3D43",
"q  c #403F41",
"w  c #3E4046",
"e  c #3F4248",
"r  c #414145",
"t  c #494545",
"y  c #4E4847",
"u  c #42454C",
"i  c #45484F",
"p  c #4A494C",
"a  c #504A49",
"s  c #464951",
"d  c #4A4D54",
"f  c #4D4F58",
"g  c #534F50",
"h  c #4E5157",
"j  c #4E5159",
"k  c #535356",
"l  c #52555D",
"z  c #595659",
"x  c #55585F",
"c  c #58585D",
"v  c #625C5C",
"b  c #545760",
"n  c #565962",
"m  c #5A5D65",
"M  c #5B5E68",
"N  c #605E60",
"B  c #5D6066",
"V  c #5E616A",
"C  c #636163",
"Z  c #6A6566",
"A  c #6E6867",
"S  c #61656E",
"D  c #6A6A6D",
"F  c #636771",
"G  c #666973",
"H  c #696C76",
"J  c #6B6E79",
"K  c #6E7077",
"L  c #6D717B",
"P  c #71747D",
"I  c #797779",
"U  c #75787F",
"Y  c #817E7E",
"T  c #737781",
"R  c #767983",
"E  c #787C85",
"W  c #7A7E89",
"Q  c #7E8087",
"!  c #7E828C",
"~  c #81858E",
"^  c #85888F",
"/  c #828691",
"(  c #868A94",
")  c #898D96",
"_  c #8B8E99",
"`  c #8E9197",
"'  c #8E919A",
"]  c #939192",
"[  c #91949D",
"{  c #9296A0",
"}  c #9699A2",
"|  c #9A9DA5",
" . c #9C9FA9",
".. c #9DA0A7",
"X. c #9EA1AA",
"o. c #A1A4AC",
"O. c #A3A7B0",
"+. c #A6A9B1",
"@. c #AAADB5",
"#. c #ABAFB8",
"$. c #ADB0B7",
"%. c #AEB1B8",
"&. c #B3B5BC",
"*. c #B6B9BF",
"=. c #B6B9C0",
"-. c #BABDC3",
";. c #BEC1C7",
":. c #C2C4CA",
">. c #C7C9CE",
",. c #CCCED3",
"<. c #D3D5D8",
"1. c #DDDEE1",
/* pixels */
"                                                m E E W ) ' [ ) W W T M                                                 ",
"                                                n _ ( / ' { { ' ' ' ' n                                                 ",
"                                                s S b G _ O.O._ T n S s                                                 ",
"                                        m L Q V i F u f G ' [ G f s S i V ! T M                                         ",
"                                    J ! G L o.~ f L j s w G G 0 i f T d ~ o.~ G ! L                                     ",
"                                G ) | %.) E *.o.j E m l 0 m M 0 j M W f o.-._ ) %.| ) G                                 ",
"                            S R [ @.:.1.-.E / ^ u ( V j 0 s d e l C / u ^ ~ J -.1.:.+.[ ! F                             ",
"                    l l   T / } -.,.,.-.[ n 5 0 < ! V b n S S n n M ~ < 0 2 0 [ -.,.,.;.o./ L   l n                     ",
"                  P ] L f T O.%.:.-.{ N 0 > % % = s 7 0 s n n i 0 0 i - % $ * 0 S [ -.;.=.O.T f L ' U                   ",
"                E @.&.E S M ' @._ F 0 : * * * * = : 1 2 2 : : 2 4 , * & % * * * : 0 G ' O.' M S E -.%.Q                 ",
"              U %.-.[ S R V n m q , % * * = = , w B R Q P u u P ^ P f 2 > * * = % & > e b n V R V ] *.%.R               ",
"            E ' | o.' V J E 9 # * $ % * = > 0 H ( o.&.&.~ F S ~ %.#.} ~ G r < - * & # % % 9 E L V ) o. .' E             ",
"            ` R R F G V S T i o O $ * * 0 M W [  .#.:.:.W W W W :.:.#.| ' / F i , * % @ O s T V S H G P R `             ",
"            s x n d j n H l & + $ * i T ( } X._ ' o. .{ { / / { [ | o.[ )  .| _ R s * # @ % j J n j d m b s             ",
"          l l u H H V b B & @ # > S ( {  .X.W l J / W W #._ _ #.W E ~ J l ! } X.} ( S < $ @ & m b V G G u j m           ",
"          / X.| m d K 6 & @ @ 2 T _ _ ( T W N 5 < , N ( =.O. .-.~ V , < 5 V W R / _ ) P 5 @ @ & 6 P n m ..X.`           ",
"        S } $.,._ 2 - $ @ @ 0 T W _ G F M u 1 5 5 0 H / =. . .=.! G 9 5 5 2 0 m F K _ / T 0 @ @ % - 2 ` ,.@.} H         ",
"        R } %.<.R 1 $ @ @ 9 T ! _ T j f , : 1 9 0 M J / &.{ { &.( L B 9 9 2 1 , j j L / ! R 0 + # # > R <.%.} (         ",
"      V ( +.,.=.l = # + * G ) ' T q 2 1 , < s u m J W X.=.[ [ =.@./ L B e s 1 < 1 2 e G / ) V % O # & l -.,.+.' L       ",
"      V / %.<./ 5 # @ O 9 R } ( 0 0 0 f S m u M S ~  .X.#._ _ #.| } ~ S V e i V j e 0 e G } R 5 o # $ 5 / <.&.( G       ",
"      B ~ $.[ j % $ O $ b ! ) J M F l f b M M J [ [ L E  ./ ! X.U K [ ' L m B x j j V B G ) ! b $ + # % j [ %.| S       ",
"    s J } X.B > O # O : T _ J b b f d 0 1 9 n G { T d G X.! ! o.L j P } G m s 2 0 s j b S G _ J 1 + @ + > m ..@.L s     ",
"  ~ E _ X.( s : $ O @ u W _ j s 9 1 0 f e 9 f j J G F R +./ / +.R S H J j j i i f e 5 5 e j ' ! s + O % : s ( +.[ U ~   ",
"S '  .%.%.( b w > $ # j ! W s > , 9 0 G T F F s s F T / +.! ! +./ T F s s G L R S e 5 < = d E ! j @ @ > u n / @.&. .' F ",
"n E ^  .| Q V s > # $ i F n e # < 5 5 M E Q P l s N / [ | H H | [ / V i l L R R M 9 9 < * 0 n S u $ # , s M Q } ..~ R l ",
"1 s m P E U S s * O & 5 9 e 5 # < 5 2 e m F V G T / } ) P n l L ^ [ ^ P J V V m 0 1 2 < : 9 e 9 5 % O , d S R ~ T n 0 > ",
"  n F ) @.+.~ n > . # 5 > 5 , * 1 5 0 6 f M L ) ) U P G l x p i j S P / ( L G j 0 0 2 1 : , 5 > 5 $ O e S ~ o.#.( V w   ",
"  n s n _ ~ h u , . + 9 : 5 : * 1 5 s 5 > w / } S s S P n l s l p w u l ' ( x > 9 s 9 < : > 5 : 0 @ . e n l ~ ` n w 6   ",
"  n i e V n 0 i < . + 2 > 5 - % , 0 M 6 u R ` K H L m x C u j S n m V 0 m _ | i 9 M 9 > = : 5 : 1 # . u m 0 m M e 0 9   ",
"  n m w G M e b < . + , : 5 : * 0 V 5 0 l l u i P E ~ U s s n C / S n 7 u u f l 9 5 M 0 > > 9 : < + . u S 0 M J e b 0   ",
"0 h l c V m f s 0 + + = - 9 < 5 M 0 2 u V s 5 d r B u r V F n j 5 q 0 - s 5 0 M u 2 0 M f < 9 - * + @ 5 u l G P G M b s ",
"n W } &.-.o.T b 0 < # * > 9 j J l , 2 m G 0 < k d ] Y l Q #.W e 8 A z ; 2 < 9 F M 1 < n H f 9 : * # * 0 l E o.-.&. .W S ",
"e d m K L V s 1 * & + = e 5 d d < - 5 b V 1 < ^ Q k w d ` Q B i 1 ; 7 B w : < V x 5 : < d s 5 e = o # * 1 s V L L m d i ",
"    0 m F d 2 $ O o o < l 5 e e * - s B s : 1 B R ) ~ | ^ h s B x i j e 1 - - p B i - * 1 w 5 l < o . + # 2 s G V 0     ",
"    l ~ } E j * o . O 0 M 5 9 < = < V V e < , w k R ) ^ D p h c e t w 5 2 - - e V B , = * 9 5 V 0 o . o * j E X.( l     ",
"    M } =.} M = O o O s M 5 5 # - 5 m b j 5 = 2 k c F D I A C D N w > w 1 = - j n m 5 - # 2 5 M i O . O = M | >. .M     ",
"    M ' =. .M = + . + d M 9 < & u e i u b w = > j B C A Z N r y z y > u - * > n i e e s < < 9 M d + . O = n o.;.{ m     ",
"    n _ +.} l = + + # l G e 1 2 d 9 : 2 n d > = 6 S c a 4 4 ; 3 3 g p 2 & - w b 5 : 9 s e 5 e G l # o + = j } =.[ n     ",
"    b ( } ! f = @ + # b J s 9 u > - 1 1 j b w = - h m t q 4 4 y 4 c h = - 0 l j 1 1 = < e 9 s J b # O # = j !  ._ b     ",
"    l / ' R f = + + $ l F s 0 9 * 1 e > 2 j j 2 = > c B z y 8 8 p i , - 5 l j 2 , e < * < 0 s F l $ + # = f T _ / j     ",
"    j ( } W j : @ + @ j V u 9 * & d : * % : i j 6 , 6 j h t 6 < w 5 1 9 j s 9 % * : s * # 9 e V f @ + @ : j W | / b     ",
"    j ( o.! j : @ o + f M 9 < + * s 9 2 < = 1 s d j h i e 6 5 w w d j d s 2 = > 5 0 s * @ 1 9 V f + o + : j ! @._ j     ",
"    s ! +.! f = + o # d n 2 < + @ 1 s s s s 0 , 5 x P T n 1 1 m T L b 5 , 0 s s s e 2 + # 1 1 b d + . + = j ! =.) s     ",
"    i ! @./ d * O @ - s e < 0 , & @ * * = < e j 0 : r K G 1 2 G R i : 0 j e 1 = * * # * = 0 1 e i : # O * f / -.) i     ",
"    i W +.! i * + + = 9 > - 9 0 s j i = @ $ 5 s m M 6 5 l 9 5 l 5 9 B B s 9 * + = e j s e 9 = , 9 - # O * s ! =./ i     ",
"    0 T  .W e & o . * d = * : > < 9 m l < 6 1 < 2 V R j b 9 0 b e P S 1 , 1 0 < b M 9 < > = * = f = O o & e E %.W 0     ",
"    0 T { G 9 # o . * 0 * * < < 9 j 1 9 2 9 : 9 < < s 0 M 0 0 M 9 s < < 0 : 1 5 0 1 d 9 < > * * e = O o # 9 G X.T 0     ",
"    9 F _ M 2 + O . * 0 % * 1 5 1 2 = w 5 e 5 , - < u 9 d w w d 9 e < = > 1 0 9 0 = 2 < 9 1 * * 0 * O O @ < V } J 9     ",
"    G [ @.Q u % + o % 2 * : 9 > < < > 2 > 0 u 5 < 1 s 0 j b n j 9 e 1 < 5 e w : 2 > < < , 9 : * 2 & + @ & e Q %.| G     ",
"  5 f W | E 0 % + # : 0 * > 0 * % * * $ # % > : : e s j T j j T j d s = = < = @ % * * % # 0 , * 0 - # + $ e R O.! f 5   ",
"j m i l S l 9 < : * * - = 2 b i u u < # * 1 0 9 i b V P G G G J E V b s 0 e 9 = # , u u u b 2 - - & % > < 5 l G n i b f ",
"L _ Q T R R H G n 0 * # 1 0 f j j f 0 5 0 q i 0 l F ! J m Q Q b G ! F j e e e 0 5 0 h j j j 0 < # * 5 n G L R E T ! _ T ",
"T { ) ) ( ~ R J M d < * u M M M F V F J G M F M J L L j f L L f d J L J B V V G G G V F M S m u * : e M J E ~ _ ( _ ' T ",
"F W T _ ) L n l s 0 - > u G G F G L J G J J J J T F j m l S F b V j F T J J T J G J L J F F G u : * 9 d l n L ( _ W W F ",
"V ! ! X. .W n j u 5 * = 5 u 0 e f n e i b f u i j f j V F b n F S j f l s e d j i u n d u 0 i 9 = * < e f n E [  .! ( M ",
"n W T ( ! J f e 2 > # * 1 5 1 5 e i 0 0 u 0 0 0 s s i u j e e j e s s s e e 5 e 0 0 u u 2 2 5 < * # = 5 e f J W ! T W n ",
"f J G T G n 0 9 > * o # * - * * - , < < < < > < < i 5 5 0 5 5 0 5 0 s 1 , , > , < < < - - - : - @ o % , 5 e n F J J G d ",
"0 b b b l i 9 : * + o + * * * * * * : - - - * = = < - - - - = - = - < = = - - - - - = * % % % % + o @ * : 2 s j n b b 0 ",
"9 e 0 0 9 1 > * * * *                                                                             * * * * > 1 5 0 i e 9 ",
"  e s e e 9 9 9 <                                                                                     , 5 5 0 s e s e   "
};
