/* XPM */
static char *dooor__1_1705306759[] = {
/* columns rows colors chars-per-pixel */
"60 60 230 2 ",
"   c #FF7306",
".  c #FE7E04",
"X  c #FF7409",
"o  c #FE7A0B",
"O  c #ED8E0E",
"+  c #FE8202",
"@  c #FD8B03",
"#  c #FD840A",
"$  c #FE8D0C",
"%  c #FE9402",
"&  c #F69D02",
"*  c #FE9C01",
"=  c #FE940B",
"-  c #FF9C0B",
";  c #F5930C",
":  c #FD8D13",
">  c #FE8415",
",  c #F6A302",
"<  c #FEA301",
"1  c #F6AC00",
"2  c #FDAC02",
"3  c #FEA40C",
"4  c #FEAC0B",
"5  c #F7A60C",
"6  c #FEB302",
"7  c #F3BA00",
"8  c #FEB902",
"9  c #FDB40B",
"0  c #FFBB0A",
"q  c #F5B504",
"w  c #F6A211",
"e  c #FCA313",
"r  c #FEAD1A",
"t  c #FCA618",
"y  c #FFBD16",
"u  c #FFBE1A",
"i  c #FEB711",
"p  c #FD9A23",
"a  c #FDAD24",
"s  c #FEAD2E",
"d  c #FDB422",
"f  c #FCBC24",
"g  c #FEB12C",
"h  c #FEBE2B",
"j  c #F6BF29",
"k  c #EBA937",
"l  c #F6A434",
"z  c #F9A737",
"x  c #F5A43A",
"c  c #F9A63A",
"v  c #FBA93C",
"b  c #F9AA33",
"n  c #FDB133",
"m  c #FEBC34",
"M  c #F6B83F",
"N  c #FFC101",
"B  c #FEC20B",
"V  c #FCC214",
"C  c #FCC41C",
"Z  c #FEC223",
"A  c #FFCB22",
"S  c #FEC42D",
"D  c #FFCB2A",
"F  c #FDC433",
"G  c #FDC73C",
"H  c #FDC93B",
"J  c #F9C73A",
"K  c #EAD627",
"L  c #EB8E48",
"P  c #EE964C",
"I  c #EB8E55",
"U  c #F58C4E",
"Y  c #F5AC46",
"T  c #FFBD4F",
"R  c #FAAB5B",
"E  c #FFA455",
"W  c #FFBF53",
"Q  c #FEB25E",
"!  c #FFB055",
"~  c #F69864",
"^  c #FFAA6B",
"/  c #FEB262",
"(  c #FEBE6F",
")  c #FFBD72",
"_  c #FEC644",
"`  c #FEC944",
"'  c #FFC54A",
"]  c #F4CE4B",
"[  c #FFCB4A",
"{  c #F6CB41",
"}  c #FDD248",
"|  c #FFC353",
" . c #FECB53",
".. c #FEC55A",
"X. c #FDCC5B",
"o. c #F6C850",
"O. c #FED251",
"+. c #FED45C",
"@. c #FED85D",
"#. c #FEC763",
"$. c #FEC863",
"%. c #FAC36B",
"&. c #FECC6A",
"*. c #FFD562",
"=. c #FFDC6C",
"-. c #FBDD66",
";. c #FDC274",
":. c #FEC57C",
">. c #FFC87B",
",. c #FDDB74",
"<. c #FDD37B",
"1. c #FCDB7A",
"2. c #F1DF79",
"3. c #FAE16B",
"4. c #EEBA8B",
"5. c #F3BF86",
"6. c #F5B388",
"7. c #FEC784",
"8. c #FECA83",
"9. c #F4C28C",
"0. c #FFCC8A",
"q. c #FDD483",
"w. c #FFDB84",
"e. c #FFD58A",
"r. c #FEDB8B",
"t. c #F6C293",
"y. c #F5CB93",
"u. c #FAC69A",
"i. c #F6CE9A",
"p. c #FBCE9C",
"a. c #FAC697",
"s. c #FED592",
"d. c #FDDD94",
"f. c #FFDD9B",
"g. c #F7D09D",
"h. c #FCE888",
"j. c #FDE195",
"k. c #FFED97",
"l. c #FEE29B",
"z. c #FFEB9C",
"x. c #F7E09D",
"c. c #FFF69B",
"v. c #F7D4A5",
"b. c #F6DFAC",
"n. c #FDDBAC",
"m. c #FADAA7",
"M. c #FDD5B1",
"N. c #FEDDB4",
"B. c #F5DBBC",
"V. c #FEDDBB",
"C. c #F4D8B3",
"Z. c #FEE4A2",
"A. c #FEEAA3",
"S. c #F5E1AD",
"D. c #FDE4AD",
"F. c #FEEEAC",
"G. c #F6F2AD",
"H. c #FEF1AC",
"J. c #FCF8A5",
"K. c #FCE4B4",
"L. c #FDEAB4",
"P. c #FFE0BD",
"I. c #FEE9BB",
"U. c #F2E5BB",
"Y. c #FEF4B3",
"T. c #FEFBB5",
"R. c #FEF4BB",
"E. c #FEFBBC",
"W. c #F7F7BB",
"Q. c #EEDCC4",
"!. c #F2DDC5",
"~. c #FFDEC0",
"^. c #F3DFDC",
"/. c #F1E1C6",
"(. c #FFE1C2",
"). c #F4E3CA",
"_. c #F8E5CE",
"`. c #FEE9CD",
"'. c #FBEACA",
"]. c #FEF5C5",
"[. c #FEFCC4",
"{. c #FFF6CA",
"}. c #F4FCCC",
"|. c #FEFECD",
" X c #F3FEC2",
".X c #E9ECDE",
"XX c #FDE7D0",
"oX c #FEEBD3",
"OX c #F5E1DC",
"+X c #FCE3DE",
"@X c #FAE9D9",
"#X c #FFF3D5",
"$X c #FEFED2",
"%X c #FDFEDB",
"&X c #F8FAD5",
"*X c #E6DFE6",
"=X c #F8DDE6",
"-X c #E6EDE6",
";X c #EBECE5",
":X c #E6ECEC",
">X c #EDEDED",
",X c #ECE7ED",
"<X c #F9E5E1",
"1X c #F3EEE6",
"2X c #F1EDEC",
"3X c #F9E8E7",
"4X c #ECF1EC",
"5X c #EDF7EA",
"6X c #FCFCE3",
"7X c #F3F2EE",
"8X c #F7F7E8",
"9X c #EEEDF1",
"0X c #EEECF9",
"qX c #E5EDF0",
"wX c #FDE5F2",
"eX c #F2EDF2",
"rX c #F1EDF9",
"tX c #F8EDF9",
"yX c #EEF2F3",
"uX c #EDF9F7",
"iX c #EBF4FB",
"pX c #EEFCFA",
"aX c #F3F3F4",
"sX c #FBF4F5",
"dX c #F5FBF5",
"fX c #FCFCF5",
"gX c #F3F5FC",
"hX c #FAF5FA",
"jX c #F5FAFC",
"kX c #FDFDFD",
/* pixels */
"kXkXkXkXsX0X9X4X9XkXkXkXkXkX9X>X>X>XsXkXkXkXkX;X9X9X9XaXkXkXkXkX7X7X;X>XaXkXkXkXkXkX>X>X4X>XkXkXkXkXkX4X;XeXyXhXkXkXkXkX",
"kXfXfXkXhX;X7X4X;XsXkXkXkXfX7X1X2X>XaXkXkXkXkXsX;X7X;XaXkXkXkXkXyXyX9X:XaXjXkXkXkXsX,X;X2X2XhXkXkXfXsXyXaX1X:XhXkXkXkXkX",
"jXkXfXkXjX7X4X,XsXhXdXkXsXaX7X4X>XaXjXjXkXjXhXaX4X7XaXsXhXjXkXkXaX2X2XaXsXhXhXhXhXhXaX2XeXaXhXhXhXkXhXyXyX;X5XfXkXkXkXkX",
";XrXeX.XuXkXkXhXhXgXeXgXaXgXkXkXkXkXhXaXyXaXsXjXkXkXkXjXaXeXaX9XkXkXkXkXkXaXaXyXaXiXkXkXkXkXuX4XhX0XsXjXjXkXkX1X>X>X>X>X",
"1XrXeX>XpX`._.`.oXQ.Q./.Q.!.oXoXoXoX!.!.!.!.!.oXoXoXoX_.Q.Q.Q.Q.oXoXoXoXoX/./././._.#X#X#X#X)./.U.Q._.oX@X3X8XkX:X>X>X:X",
"yXgX7XsX+Xp 4 < < * & % % % @ @ # @ @ @ @ + + @ @ @ % % % % * & , < 2 4 9 9 0 y u C Z f h h S Z j C 0 2 1 1 Y tXaXsXsXaX",
"hXkXdXkXwXO q 1 2 < < , % = % @ @ @ @ + + + @ @ @ % % % * * * < 2 2 6 6 6 6 8 N V C A D S S D Z B B 7 9 9 2 k pXkXkXkXkX",
"kXkXdXfX+X$ 6 < 3 - @ + + o o o X       X       X o o o # # # $ $ = = = - 5 3 3 3 r r d d a a a a 5 7 6 4 < x jXkXkXkXkX",
"fXgXdXgXOX: 6 < * . / f.0.0.8.7.:.7.:.:.>.;.>.>.:.:.8.8.e.s.s.s.f.d.Z.Z.D.F.L.L.L.L.'.I.I.I.I.p.M.R < 6 2 2 v gXhXdXsXjX",
"2X9X2XyX^.: 9 < 1 # %.H.z.l.l.j.r.r.r.e.r.w.r.r.d.j.l.l.A.A.F.F.Y.Y.R.E.[.[.[.|.$X|.$X$X|.|.&XB.V./ 2 0 < 2 c gX>X>X;X,X",
",X:X;XaX^.$ 9 < , + ( H.l.l.j.d.s.e.q.q.e.e.s.s.s.r.d.d.l.z.A.A.Y.Y.E.W.E.[.[.[.|.[.|.$X[.|.$XN.(./ 2 8 2 2 v gX>X;X>XyX",
"sXaXkXjX<X: 6 < * . ) A.l.d.d.s.x.<.<.<.<.q.<.q.r.r.r.d.j.j.j.z.z.z.H.H.T.E.[.[.[.[.E.%X|.|.].n.P.Q 1 8 4 1 v gXhXhXdXhX",
"kXkXkXkX3X$ 2 < < + ( F.j.l.j.j...e e w 3 e 5 3 3 4 4 4 4 9 9 i 0 y Z S J ` }  .[  .*.].|.$X$XN.P.Q 6 0 2 1 x gXkXkXkXkX",
"kXkXkXkX<X: 6 < < + ( F.l.l.j.f.#.* % * * % * * * < < < 2 2 6 2 6 0 y C F G [  .` ' X.#X&X|.}.b.P./ 6 8 2 < c gXkXkXkXkX",
"aXaXaXgXOX= 9 < < + ( F.l.l.d.d.&.* * & < = < < < 1 2 2 1 6 6 6 7 8 V C S J ] [ H ' { {.|.|.{.n.P./ 6 8 2 4 c gXsXaXaXaX",
"2X:X;XyXOX: 2 < < + ( F.l.f.x.d.%.* * & < = < * * < < 2 2 2 6 6 0 0 y Z F H [ [ ` | [ $X|.$X#XV.P./ 1 6 2 2 z gX:X>X>X>X",
"eX4X9XyXOX: 6 < < . %.H.l.l.j.m.$.* * * & * * < * < 2 2 2 2 2 6 8 0 y Z S H [ [ [ `  .[.$X$X{.N.(.Q 6 6 4 2 c gX>X>X>X>X",
"kXkXhXjX<X: 6 < < + ) L.l.j.r.f.$.& * * < * * < < < < 2 2 2 6 6 8 0 y Z S F [  .' `  .[.$X|.[.N.(.Q 1 0 4 1 z gXkXkXkXkX",
"kXkXkXkX<X: 6 < < + ) F.Z.l.r.l.#.* * * * * * < < < < < 2 6 6 6 8 0 y Z F H [  .' `  .{.$X$X{.N.(.Q 1 0 2 2 l gXkXkXkXkX",
"kXkXkXkX<X: 6 < < + %.L.l.j.j.l.$.* * * & * * * * < 2 2 2 2 6 6 8 0 y Z S H [ [ ' `  .[.$X$X{.N.(.Q 2 6 4 1 x gXkXkXkXkX",
"eX4X>XyX^.: 6 & < . ( F.Z.l.r.m.$.* % * & * * < < < < 2 2 2 6 6 8 0 y Z S H [  ._ `  .[.$X$X{.N.P.Q 6 6 4 2 z gXaX>X>XaX",
"eX>X,XyXOX: 6 < < + ) F.l.j.d.f.#.* * * < * * < < < < 2 < 2 6 8 8 0 y Z S F [  .' _  .{.$X|.{.N.(.Q 6 0 2 2 z gX>X>X>X;X",
"aXyXaXyX^.: 6 < < + ( F.Z.l.j.f.$.* * * & * * < * < < 2 2 2 6 6 8 0 V Z S H `  ._ `  .[.%X$X{.N.(.Q 1 6 4 2 c gX7XaXeXyX",
"kXkXkXkX<X: 6 < < + %.L.l.j.d.f.$.* * * & * * < < < < 2 2 2 6 6 8 0 u Z S H [  .' `  .[.$X|.[.N.(.Q 2 0 4 1 l gXkXkXkXkX",
"kXkXkXkX+X: 6 < < + ( H.l.f.d.f.%.* * & * = * * < < < 2 2 2 6 6 8 0 u C J _ [ } | [ ] }.$X$X#Xm.P./ 2 8 2 1 c gXkXkXkXkX",
"hXjXkXjXOX: 6 < < + ( H.l.f.j.f.$.* * & < = < < < < 2 < 2 2 6 6 8 8 B C S G ' o.G _ | $X|.[.#Xb.P./ 2 8 6 4 c gXsXkXkXkX",
"eX4X>XyX^.: 6 < < + ( H.l.l.l.f.$.* * , < % < < < < < 4 2 6 6 6 8 0 u S S F } *.' H } {.{.[.&XV.P./ 6 8 2 1 c gX>XyX>X4X",
"2X>X,XyX^.: 6 < < + ( F.l.l.d.d.W * = & * % & & * < < < < 4 2 4 9 8 9 d F F G J _ S ] [.%X|.{.N.P./ 1 8 2 2 c gX>X>X>X>X",
"sXaXaXjXOX: 6 < < + ) F.l.f.j.d.<.| W W | W | W  .|  .X.+.+.*.*.=.3.w.h.h.h.c.k.z.z.F.6X%X$X&XN.P./ 4 8 4 1 c gXjXhXaXsX",
"kXkXkXkX+X: 6 < < + ) F.l.l.j.d.f.r.r.r.e.r.d.d.f.l.l.Z.A.A.H.L.H.T.[.[.T.}.fX#X}.%X|.h.3.h.W.N.P./ 6 6 2 2 v gXkXkXkXkX",
"kXkXkXjX<X: 6 < < + ( F.l.l.j.s.w.q.q.q.q.q.w.e.e.s.d.j.l.Z.A.A.L.J.H.E.T.[.c.K N N 0 y 9 6 ] M.P./ 6 8 2 1 c gXkXkXkXkX",
"gXdXsXgXOX: 6 < < + ( F.l.l.j.s.w.s.e.r.q.q.e.w.r.r.r.j.l.l.A.A.F.Y.W.T.J.[.{.,.&.3.3.A y A 2.V.P./ 2 8 2 4 c gXdXaXsXsX",
"2X>X,XyXOX: 6 < < + ) F.l.l.d.f.b.1.r.r.s.w.r.s.f.f.l.Z.Z.A.F.F.Y.Y.E.E.E.[.|.$X6XfX#X|.G.}.%XN.P.Q 6 8 2 2 Y aX,X>X>X>X",
"eX:X>XyXOX: 6 < < + ;.F.l.l.s.f.&.g s a s a a s d d d f h h F S G _ [ O.+.-.=.1.@.=.w.$X|.|.{.m.P./ 2 0 2 2 v gX2XeX>X>X",
"hXdXkXaXOX: 6 3 < + ) F.l.l.j.f...= % * % % * - * < < < 4 2 2 6 8 6 0 u Z F _ [ F F | |.$X|.[.N.P./ 2 8 2 1 c gXkXhXkXjX",
"kXkXkXkX+X: 2 < < . ) F.l.x.d.d.$.& & * * & < < < 3 < 4 2 2 6 6 8 0 C Z F G [  .| _  .].$X|.{.~.(./ 1 8 2 4 l gXkXkXkXkX",
"kXkXkXkX<X: 6 < < + ) F.l.l.d.f.$.& & < * < < & < < 2 2 2 2 6 6 8 0 u Z F ` [  .{ J +.].$X|.{.N.V./ 1 8 2 4 x gXkXkXkXkX",
"aXyXaXyXOX: 2 < < + ) F.l.l.d.f.$.* * * % * * % 3 < < < 2 2 2 6 6 0 y Z S F [ [ { _  .[.$X$X].S.P./ 6 6 2 1 c gX7XaXeX7X",
"2X;XeXyX^.: 6 < < . ) F.l.l.j.f...& < * * < * < * < < 2 2 6 6 6 8 0 y Z S H [ [ ..| ..[.$X$X{.N.P./ 6 8 2 2 c gX>X>X>X>X",
"eX:XeXyXOX: 6 < < + ( F.l.l.d.f.#.- % * = , * < < < < 2 2 2 6 6 8 0 y Z F H [  ._ G }  X&X$X{.N.(./ 2 6 2 2 v gX>XyX2XyX",
"kXkXkXkX<X$ 6 < < . ) F.l.l.d.f.#.* * < * * % < < < < 2 2 6 6 6 6 0 u Z F H [  ._ _  .[.|.$X{.N.V./ 6 6 4 2 l gXkXkXkXkX",
"kXkXkXkX<X: 9 < < . ) F.l.l.d.j.$.* % * * * * < < < < < 2 2 2 6 8 0 y Z S G ` [ _ `  .[.$X$X{.K.(.Q 1 0 2 2 c gXkXkXkXkX",
"kXjXkXjX<X: 2 < < + ) F.l.f.d.f.$.* * * * * * < < < < 2 2 2 6 6 6 0 y Z S H [  ._ _  .[.|.$X{.N.P.Q 2 0 4 2 z gXkXkXkXkX",
"7X:X2XaXOX: 9 < < + ) F.l.l.d.l.$.* % * * * % < < < 2 < 2 2 6 2 8 0 y Z F H `  ._ ` X.[.$X|.{.N.(.R 6 8 2 2 z gXyX2X>X>X",
"2X:X;XyX^.: 6 < < . ) F.l.l.j.f.$.* * < * * % < * < < 2 2 2 6 6 6 0 y Z S H `  ._ _  .[.|.|.{.K.(.Q 1 6 2 2 c gX>X>X>X>X",
"sXaXsXgXOX: 6 < < + ) F.l.l.d.f.#.* % * * < * < < < < < 2 2 6 6 8 0 y Z F H [  .` _ X.[.$X$X{.N.V.Q 2 0 < 2 c gXaXaXaXsX",
"kXjXkXkX<X: 6 < < + ( F.l.l.j.f.$.* * * * * % < 3 < < 2 2 6 6 6 6 0 y Z S H [  .[ _  .[.$X$X{.K.(.Q 6 6 4 2 l gXkXkXkXkX",
"kXkXkXkX<X: 2 < < + ) H.l.l.d.f.$.* * * * * * < < < < 2 2 2 6 6 8 0 u Z S H [  .` _  .[.|.$X{.N.~.Q 1 6 4 1 l jXkXkXkXkX",
"fXgXdXhX<X; 6 - , @ ) L.z.f.f.f.| w * % % * & * * * < < < 2 2 2 6 8 0 u S F _ _ H F ..R.%X{.].V.K.! 1 0 1 1 Y gXkXgXsXkX",
"-X9X4XhX=X$ 6 < - # ) F.h.d.j.j.&.Y g g b n g n m m m m F F J H H H } O.@.-.=.,.2.1.h.{.%X|.[.B.(.^ 4 6 6 2 c sX;X>X>X;X",
"wX2X;X5X*X$ 6 - * + ) J.j.l.l.s.Z.d.q.e.r.r.r.d.s.d.l.l.A.A.H.H.Y.R.E.[.[.|.$X$X$X$X$X$X&X}.|.N.S./ 9 6 < < c gX:X>X>X>X",
"jXdXyXjX,X$ 6 < < + %.G.Z.m.d.d.r.e.e.0.q.q.q.e.r.r.d.j.f.l.A.A.H.Y.T.T.W.[.[.E.[.|.|.[.|.$X{.n.(./ q 7 q 4 b gXsXjXsXkX",
"kXfXkXhX<X> , < % # ( A.l.m.h.w.1.e.r.w.<.w.w.q.s.r.h.j.l.z.A.A.J.H.H.T.E.[.[.[.E.[.$X[.$X%X#XD.N.R 2 6 9 % k pXkXkXkXkX",
"kXjXkXkX3X~ P U I U 6.g.a.u.t.4.9.4.4.t.9.a.a.t.) 9.4.t.y.p.p.p.i.g.g.v.m.m.n.N.N.B.B.C.C.C.C.y.v.6.E P L I 6.hXkXkXkXkX",
"jXhXeX7XkX8XdXjXkXhXuX5X5XgXfXjXfXjXkX7XaXaXyXdXjXkXjXaXsXyXaXyXaXgXgXjXgXyXyXgX7XhXhXsXsXhXhXaXeXgXhXjXpXjXkXpXaXaXaXsX",
".XeX9XeXgXjXkXkXjXsX:X2X>XgXfXkXkXkXaX;X2X9X0XfXkXkXkXkXeX>X,X2XkXhXkXkXkX4X;X>X:XhXfXkXjXkX7X-X9X4X7XkXfXfXkXsX>X>X:X>X",
"2X7X>X4XaXjXkXkXkXaX4X>X:XaXkXkXkXkXsX:X;X9XaXkXkXkXkXsXaX>X>X4XkXkXkXkXsXyX>X>X:XdXjXkXkXkXsX,XaX>XaXjXkXkXkXdX>X7X>X>X",
"hXkXhXkXsXaXsXyXaXsXkXkXkXsXaXaXaXaXsXkXkXkXkXaX>XaXaXaXhXkXdXhXsXyXaXaXaXkXkXkXhXsXaXaXaXaXjXjXkXkXhXaXyXaXaXhXhXkXkXkX",
"kXkXkXkXjX>X>X>X>XkXkXkXkXkXyX>X>X,XaXkXkXkXhXaX;X>X:XaXkXkXkXkXaX>X>X>X7XkXkXkXkXjX>X;X;XeXkXkXkXkXfX2X>X>X>XsXkXkXkXkX",
"kXkXkXkXsX>X>XaX>XkXkXkXkXkX2X>XaX>XdXkXkXkXkXyXaX>X>XaXkXkXkXkXaX>X>X>XaXkXkXkXkXsX>XeX>X>XkXkXkXkXkXyX2X:X>XkXkXkXkXkX"
};
