/* XPM */
static char *door_exit_60_60__1_1705572879[] = {
/* columns rows colors chars-per-pixel */
"60 60 174 2 ",
"   c #465F5F",
".  c #4E5B5D",
"X  c #4E5C5E",
"o  c #46605E",
"O  c #776747",
"+  c #405661",
"@  c #405761",
"#  c #435863",
"$  c #445A63",
"%  c #455E61",
"&  c #405865",
"*  c #415965",
"=  c #435964",
"-  c #445A64",
";  c #475C66",
":  c #475D67",
">  c #445C68",
",  c #525F61",
"<  c #476160",
"1  c #4A606B",
"2  c #4D646E",
"3  c #4E646E",
"4  c #4E656E",
"5  c #52646B",
"6  c #D17412",
"7  c #D17513",
"8  c #D17514",
"9  c #ED7D08",
"0  c #F27B00",
"q  c #F47B00",
"w  c #F37C00",
"e  c #F57C00",
"r  c #F37D04",
"t  c #F27F07",
"y  c #E27E14",
"u  c #8E7F5F",
"i  c #B47F41",
"p  c #65B817",
"a  c #66B919",
"s  c #67BA19",
"d  c #67BA1B",
"f  c #67B91C",
"g  c #68B91C",
"h  c #6BBD1E",
"j  c #6BBD1F",
"k  c #5A9437",
"l  c #5A9439",
"z  c #5D963C",
"x  c #69B625",
"c  c #6BB134",
"v  c #5D8C51",
"b  c #67945B",
"n  c #6AA247",
"m  c #69A148",
"M  c #6DA84C",
"N  c #6EA94D",
"B  c #F58300",
"V  c #F68300",
"C  c #F58A01",
"Z  c #F58A02",
"A  c #F68B03",
"S  c #F98B00",
"D  c #F88C04",
"F  c #F98D05",
"G  c #F3820C",
"H  c #F4830E",
"J  c #F68809",
"K  c #F48410",
"L  c #F28514",
"P  c #F68B10",
"I  c #F28718",
"U  c #F2891C",
"Y  c #F48B1E",
"T  c #F19332",
"R  c #F69B3D",
"E  c #F59C3E",
"W  c #84CE3C",
"Q  c #81D131",
"!  c #82D331",
"~  c #81D032",
"^  c #85D433",
"/  c #85D533",
"(  c #84D335",
")  c #85D435",
"_  c #AE8655",
"`  c #80BA5A",
"'  c #82BA5C",
"]  c #9C8D6E",
"[  c #9D8E6F",
"{  c #A29273",
"}  c #CA8A43",
"|  c #F69D41",
" . c #F09E49",
".. c #F6A44F",
"X. c #F7AF64",
"o. c #EFB376",
"O. c #F8BC7E",
"+. c #82C648",
"@. c #82C748",
"#. c #94CA6B",
"$. c #A2D474",
"%. c #637A85",
"&. c #617A87",
"*. c #677E89",
"=. c #6D848F",
"-. c #6D8490",
";. c #728893",
":. c #748B97",
">. c #758C97",
",. c #7B8E97",
"<. c #758C99",
"1. c #758E9D",
"2. c #788E9B",
"3. c #788F9B",
"4. c #788F9C",
"5. c #779193",
"6. c #789394",
"7. c #789295",
"8. c #76909E",
"9. c #7A919D",
"0. c #7D939F",
"q. c #7F95A2",
"w. c #7E95A3",
"e. c #808D8F",
"r. c #949287",
"t. c #8B999F",
"y. c #8095A1",
"u. c #8C9AA0",
"i. c #8F9CA2",
"p. c #9BA8AE",
"a. c #D7BC96",
"s. c #EEB880",
"d. c #EEBC88",
"f. c #B4E483",
"g. c #F9C58F",
"h. c #EFC393",
"j. c #EDC69D",
"k. c #EDC8A2",
"l. c #EACEA7",
"z. c #EDCDAD",
"x. c #EDCFAF",
"c. c #FAD5AE",
"v. c #F7D5B1",
"b. c #FBDAB7",
"n. c #FCDDB5",
"m. c #FDDDB6",
"M. c #ACBAC1",
"N. c #B1BEC5",
"B. c #C8CFD1",
"V. c #C9CFD2",
"C. c #CCD0D0",
"Z. c #C8D1D6",
"A. c #ECDDCD",
"S. c #EBDFD2",
"D. c #EBE1D7",
"F. c #EBE2D8",
"G. c #FCEBD9",
"H. c #D7DEE1",
"J. c #DEE2E3",
"K. c #E7E9E8",
"L. c #E4E8EB",
"P. c #E4E9EB",
"I. c #E3E9EC",
"U. c #E4EAEF",
"Y. c #EBECED",
"T. c #FDF3E8",
"R. c #FDF5ED",
"E. c #EAEDF1",
"W. c #EAEFF4",
"Q. c #EFF1F3",
"!. c #FEF7F0",
"~. c #FEFDFB",
"^. c #FEFEFF",
"/. c white",
/* pixels */
"/././././././././././././././././././././././././././././././././.m.D S S P O.T././././././././././././././././././././.",
"/././././././././.Q.L.L.L.L.I.L.L.L.L.L.I.J.L.L.L.L.L.L.L.L.L.L.U.l.D S S B r | v.L.P.K.L.I.L.L.L.L.Y./././././././././.",
"/././././././././.N.0.y.y.u.w.w.q.q.y.t.0.t.t.0.q.0.t.0.9.t.q.0.q.{ C S S V e 0 9 } r.q.y.y.y.y.y.;.p./././././././././.",
"/././././././././.M.<.3.7.4.:.<.<.<.<.<.1.<.:.9.<.8.<.<.<.9.<.3.1.[ C C S B 0 0 0 0 y _ e.1.3.4.=.1 t./././././././././.",
"/././././././././.M.<.<.7.8.9.<.8.9.<.8.7.4.0.<.7.8.9.9.8.9.<.9.-.] A C S B 0 w 0 0 q r 8 { 3.=.3 @ u./././././././././.",
"/././././././././.M.<.3.<.*.%.&.%.%.%.%.%.&.%.&.%.%.&.&.%.%.%.%.&.] A Z S B 0 w w e w 0 r 9 i 5 $ @ u./././././././././.",
"/././././././././.M.<.3.<.3 $ $ $ $ $ $ = # # # $ $ # # # $ = = = O C S S B 0 w w w w w r 0 8 . $ @ u./././././././././.",
"/././././././././.M.<.3.:.3 $ = $ $ $ $ = # # : $ $ # # # $ $ $ = O C S S B 0 w w w w w w w 8 . = @ u./././././././././.",
"/././././././././.M.<.3.:.3 # = - - - - - - - - $ $ ; # $ - - - = O A S S B 0 w w w w w w e 7 X = @ u./././././././././.",
"/././././././././.M.<.3.:.3 $ = - - - - - - - - # $ = = - - - - = O A S S B 0 w w w w w w e 7 X = @ u./././././././././.",
"/././././././././.M.<.3.:.3 $ $ - - - - - - - - # # # ; - - - - # O C S S B w w w w w w w e 7 X = @ u./././././././././.",
"/././././././././.M.<.3.>.3 $ $ - - - - - - - - ; # # ; - - - - # O C S S B 0 w w w w w w e 7 X = @ u./././././././././.",
"/././././././././.M.<.3.:.3 # ; - - - - - - - - - - - - - - - - = O A C S B 0 w w w w w w e 7 X = @ u./././././././././.",
"/././././././././.M.<.3.:.3 # = - - - - - - - - - - - - - - - - = O A Z S B 0 w w w w w w e 7 X = @ u./././././././././.",
"/././././././././.M.<.3.:.3 # # - - - - - - - - - - - - - - - - # O C S S B 0 w w w w w w e 7 X = @ u./././././././././.",
"/././././././././.M.<.3.7.b < = $ - - - - - - - - - - - - - - - # O C S S B 0 w w w w w w e 7 X = @ u./././././././././.",
"/./.~././././././.M.<.4.7.+.n $ = = ; $ - - - - - - - - - - - - * O A S S B 0 w w w w w w e 7 X = @ u././././././.~.~.~.",
"~.~./././././././.M.<.4.6.@.) n < = $ $ - - - - - - - - - - - - = O A C S B 0 w w w w w w e 7 X = + u././././././.~.~.~.",
"/././././././././.M.<.4.6.@./ ( m < = $ - - $ $ - - - - - - - - = O C S S B 0 w w w w w w e 7 X = @ u././././././.~.~.~.",
"^././././././././.M.<.7.6.@.^ / ( m < = $ - = ; - - - - - - - - = O C S S B 0 w w w w w w e 7 X = @ u././././././.~.~.~.",
"^.^.~././././././.M.<.<.6.+.^ ( ( ( m < = = $ $ - - - - - - - - * O A S S B 0 w w w w w w e 7 X = @ u././././././.~.~.~.",
"^.^.~././././././.M.<.4.6.+.^ ( ( ( ( m < = # ; - - - - - - - - = O A C S B 0 w w w w w w e 7 X = @ u././././././.~.~.~.",
"~.~.~././././././.M.<.3.6.+./ ) ) ( ) ( m < = $ - - - - - - - - # O C S S B 0 w w w w w w e 8 X = @ u././././././.~.~.~.",
"~.~.~././././././.M.<.<.7.+./ ) ) ) ( / ( m $ = $ - - - - - - - # O C S S B 0 w w w w w w e 7 X = + u././././././.~.~.~.",
"f.f.f.f.f.f.f.f.f.#.` ` ` W ) ) ) ) ) ( ) ( m < = $ ; $ = $ $ = & O A S S B 0 w w w w w e e 7 X = @ u././././././.~.~.~.",
"Q ( / Q Q ! ! ! Q / / / / ( ( ) ) ) ) ) ( ( ( m < = = = = ; ; = = O A Z S B 0 w w w w w w e 7 X = @ u././././././.~.~.~.",
"( ( ( ) ) ) ) ) ) ) ) ) ( ) ) ) ) ) ) ) ) ( / ( m < = = - - $ $ = O C S S B w w w w w w w e 7 X = @ u././././././.~.~.~.",
"( ( ( ( ) ) ) ) ) ) ) ( ) ) ) ) ) ) ) ) ) ) ( ) ( m < = $ - = = # O C S S B w w w w w w w e 7 X = @ u././././././.~.~.~.",
"( ( ( ( ) ( ( ( / ) ) ( ( ( ) / ) ( ) ) ( ( ) ( ( ( m o = = = = = O A S S B 0 0 0 0 0 0 q 0 8 X = @ u././././././.~.~.~.",
"Q Q Q Q ) Q Q Q Q / Q Q Q Q Q ! Q Q Q Q Q ! Q Q Q Q Q m < = $ ; = O Z C S B 0 0 I U U U L 0 8 X = + u././././././.~.~.~.",
"x h h h h h h h j j j x x j j j x h x h x h h h h h h z < = $ = # O C S S V 0  .A.S.S.D.x.K 6 . = @ u././././././.~.~.~.",
"d h d d d d d d s s s s s s s s s h s s d d d d d d k $ = $ - = # O C S S V 0 d.W.E.Y.A.j.H 6 . = @ u././././././.~.~.~.",
"d d h p d d d d d h d h p f f h x s s d j d d h d l   @ $ - - - = O C S S B w s.W.W.F.T r e 8 X = @ u././././././.~.~.~.",
"h d h d d f h f f f f h h f f p d d h p d d d d l   = = - - - - = O C S S B 0 T k.z.o.r w e 8 X = @ u././././././.~.~.~.",
"p p p p p p p p p p f f p d f h j d d d d s s l   = = = - - - - * O C S S B 0 0 r r w 0 w e 7 X = @ u././././././.~.~.~.",
"$.$.$.$.$.$.$.$.$.' M M M x f f s s x d d x l < = = = = - - - - * O C S S B 0 w 0 0 0 w w e 7 X = + u././././././.~.~.~.",
"/.~.~././././././.M.<.3.5.c d h j d d d s l o = = = ; $ # : - - * O C S S B w w w w w w w e 7 X = @ u././././././.~.~.~.",
"/./.~././././././.M.<.4.5.c p f s s s j l o = $ # # # : $ $ - - * O C S S B w w w w w w w e 7 X = @ u././././././.~.~.~.",
"/.^.^././././././.M.<.3.>.c d h s s s l - - $ - : : $ # # # ; - * O C S S B w w w w w w w e 7 X = @ u././././././.~.~.~.",
"/.^.~././././././.M.<.7.5.c f p x d l o = $ - - # # $ # # ; # - * O C S S B w w w w w w w e 7 X = @ u././././././.~.~.~.",
"^././././././././.M.<.2.:.c d g s l - $ $ = - - - - - - - - - - # O C S S B 0 w w w w w w e 7 X = @ u././././././.~./.~.",
"~./.~././././././.M.<.3.7.c p g l < $ $ - - - - - - - - - - - - = O C S S B 0 w w w w w w e 7 X = @ u./././././././././.",
"~.~./././././././.M.<.3.6.c g k o = $ - - - - - - - - - - - - - = O C S S B 0 w w w w w w e 7 X = @ u././././././.~././.",
"~.~./././././././.M.<.3.6.c k   = $ - - - - - - - - - - - - - - = O C S S B 0 w w w w w w e 7 X = @ u././././././.~././.",
"/././././././././.M.<.3.>.v o   $ - - - - - - - - - - - - - - - = O A Z S B 0 w w w w w w e 7 X = @ u./././././././././.",
"/././././././././.M.<.3.>.4   @ - - - - - - - - - - - - - - - - & O Z S S B 0 e w w w w w e 7 X = @ u./././././././././.",
"/././././././././.M.<.4.1.3 + = - - - - - - - - - - - - - - - - = O Z S S B w w w w w w w e 7 X = @ t./././././././././.",
"/././././././././.M.<.1.1., = = - - - - - - - - - - - - - - - - = O Z S S B 0 w w w w w w e 7 X # @ t./././././././././.",
"/././././././././.M.<.3.:.3 # = ; $ = # # # ; = - - - - - - - - * O Z S S B w w w w w w w e 7 X = @ u./././././././././.",
"/././././././././.M.<.3.:.3 # = = $ = $ ; = - - - - - - - - - - * O Z S S B w w w w w w w e 7 X = @ u./././././././././.",
"/././././././././.M.<.4.:.3 $ = = $ = $ - - - - - - - - - - - - * O Z S Z B 0 w w w w w w e 7 X = @ u./././././././././.",
"/././././././././.M.<.7.:.3 $ = ; $ = ; - - - - - - - - - - - - * O Z S C B 0 w w w w w w e 7 X = @ u./././././././././.",
"/././././././././.M.<.9.>.3 $ = = = $ $ - - - - - - - - $ $ = # # O C S S B e w w w w w e e 7 X = @ u./././././././././.",
"/././././././././.M.<.<.:.3 $ = ; = $ $ - - - - # ; - - = ; = ; # O C S S B w w w w w w w e 7 . = @ u./././././././././.",
"/././././././././.M.<.9.:.3 ; $ $ $ $ $ $ = $ $ = $ $ $ $ $ # # = O C S S B 0 w w w w w w e 7 . = @ u./././././././././.",
"/././././././././.M.9.9.<.3 # > ; ; 1 > ; ; > ; ; > ; > ; ; ; > > O C S S B 0 w w w w q 0 0 7 , ; = i./././././././././.",
"/././././././././.L.H.J.H.V.V.V.B.B.B.V.B.B.V.B.V.V.V.V.B.B.V.B.Z.a.D S S B q 0 q 0 0 0 r E h.V.Z.V.J./././././././././.",
"/./././././././././.~.^./././././././././././././././././././././.m.D C S B 0 0 0 0 Y X.b.!././././././././././././././.",
"/./././././././././././././././.~.~././.~.~.~.~.~.~././.~.~.~.~./.m.D S S B 0 G E g.G.~././././././././././././././././.",
"/./././././././././././././././.~.~.~./.~.~.~.~.~.~.~./.~.~.~.~./.m.D S C J ..c.R./././././././././././././././././././."
};
