/* XPM */
static char *xpm__Demon_Door__1_1705920147[] = {
/* columns rows colors chars-per-pixel */
"60 60 104 2 ",
"   c None",
".  c #050505",
"X  c #070708",
"o  c #070808",
"O  c #0B0B0C",
"+  c #0E0F10",
"@  c #0F1011",
"#  c #121314",
"$  c #151619",
"%  c #17181B",
"&  c #1A1B1D",
"*  c #1D1E21",
"=  c #1F2024",
"-  c #212226",
";  c #242529",
":  c #27292D",
">  c #282A2E",
",  c #2B2D32",
"<  c #2F3136",
"1  c #303237",
"2  c #3D3635",
"3  c #33353A",
"4  c #36393E",
"5  c #3E3B3C",
"6  c #373A40",
"7  c #3A3D43",
"8  c #3E4047",
"9  c #3F4148",
"0  c #454243",
"q  c #4A4445",
"w  c #42454C",
"e  c #46484F",
"r  c #4F4949",
"t  c #514847",
"y  c #504949",
"u  c #454750",
"i  c #474951",
"p  c #4A4D54",
"a  c #4C4F58",
"s  c #4D5057",
"d  c #4E5159",
"f  c #595252",
"g  c #52555D",
"h  c #5F595B",
"j  c #605858",
"k  c #545760",
"l  c #565962",
"z  c #595D65",
"x  c #5B5F68",
"c  c #5D6067",
"v  c #5E616B",
"b  c #646165",
"n  c #61656E",
"m  c #65686F",
"M  c #636771",
"N  c #666973",
"B  c #696D76",
"V  c #6B6F79",
"C  c #6E7077",
"Z  c #6D717B",
"A  c #707076",
"S  c #71747D",
"D  c #76797F",
"F  c #737781",
"G  c #767983",
"H  c #797C85",
"J  c #7A7E89",
"K  c #7D8087",
"L  c #7E828B",
"P  c #868082",
"I  c #81848E",
"U  c #838691",
"Y  c #868993",
"T  c #898C96",
"R  c #8B8E99",
"E  c #8E929B",
"W  c #92959E",
"Q  c #96999F",
"!  c #9397A0",
"~  c #9699A2",
"^  c #9A9DA6",
"/  c #9C9FA9",
"(  c #9DA0A7",
")  c #9DA1A9",
"_  c #A1A4AC",
"`  c #A3A7B0",
"'  c #A6A9B1",
"]  c #ABADB5",
"[  c #ADB0B7",
"{  c #AEB1BA",
"}  c #B1B4BB",
"|  c #B6B9BF",
" . c #B6B9C0",
".. c #BABCC3",
"X. c #BFC1C7",
"o. c #BFC2C8",
"O. c #C3C5CA",
"+. c #C8CACF",
"@. c #CBCDD2",
"#. c #CED0D4",
"$. c #CCD0D8",
"%. c #D1D2D7",
"&. c #DBDCDF",
"*. c #DFE0E3",
/* pixels */
"                                                v G H L T E E U K H F d                                                 ",
"                                                v W I Y ! W ~ W Y E L s                                                 ",
"                                                s n l Z W ' _ L Z l N 9                                                 ",
"                                        n A L l p v w p V ~ U c d i v 9 Z J Z l                                         ",
"                                    S I n G _ H a F p 9 w Z c 7 p l N p E ) G Z L N                                     ",
"                                B R ^ } L L | ~ d L d s 7 n s 9 g n B l { } I ~ { ! U x                                 ",
"                            M H Q ] +.*.[ G R J u E d d 8 d 9 w g Z Z e W L H +.&. .' T H x                             ",
"                    g s   Z U ^ X.#.+. .R p 4 3 6 L d k l n c l g N Z : 9 1 p ( O.@.@.| ^ J M   c p                     ",
"                  S E m p J ' | O...Y x 6 ; % % > p 7 7 p l k w 7 7 e & % % ; w C ( O.X.} / v s I T m                   ",
"                I ] | G v v W ' T v 4 ; & & * & % @ # # $ % $ # # # $ & & = & * : w C ~ ` L k B R O.^ D                 ",
"              G [ ..W c G x l l 7 ; % & - = # + o                   + @ # % = = % & , e l g B G m _ O.Q Z               ",
"            H W ^ _ T l V G 3 $ % # & & % # O                             # % & & % $ & & g G N N Q _ Q T               ",
"            W H A m B v n G 7 O # $ $ # O                                     $ & % $ O $ n B v n N V S U G             ",
"            p g l p d x Z p $ + # @ : 7                                         v : @ # # ; n N g e g g l w             ",
"          g d e B B v l z $ # + O : g v                                         Y l = + @ # > N g n Z x w c             ",
"          U ) ~ z p S 3 % # O + 1 - p n                                         W 4 9 4 $ O $ = p D p S ( ( Z           ",
"        n W [ @.Y 1 = $ + + : w 7 * p n                                         W 6 < g i % @ # & ; w [ O._ U           ",
"        G ^ } @.F , $ + o < l 9 : ; l M                                         T i : 9 d x * O # # 0 / #.' ! F         ",
"      v R ' @.[ d * # O @ k a : - 4 M n                                         R g 1 , 3 M 9 O + # , D @.X./ U         ",
"      n I [ %.I 1 @ # o > M 7 6 9 w V n                                       z L N w p w l B # O # & p ' @.^ I x       ",
"      x U ] ! p * $ + O 9 n p 7 6 l x x                                         Z N s 8 i v U < O # # : V / [ I g       ",
"    i B ! / x ; O @ O & s l 6 < : p g z                                         N l w 6 9 l E i O # O # 4 V } Q x       ",
"  I G R ) Y u - $ + O , l p - : 3 7 l x                                         B p 9 k u i ! d % O # % , z _ _ I G     ",
"m E / } { Y k 7 : # O 1 d e & : p 6 x z                                         N p l F i 9 L p - O & 1 w m ~ [ [ ~ I   ",
"g H I / ^ H x i ; # @ 3 7 4 % = i w v                                           v s n V 9 8 M w 1 # & 3 s N R ( W I N w ",
"< p x A K D c w * O $ 4 ; ; % = 4 l n                                     ~ ) ^ h p x i 6 4 e w e $ # 4 s C K K N d ,   ",
"  g M R ] _ L g : . # 1 % & % = 1 v                                     B  .$.{ V 7 s 7 8 3 4 w g $ $ g m E { ) G g ,   ",
"  l p l E I p 9 - . O 4 & & % : 7 d                                     L } {  .! z d 4 e 1 6 s c @ # g i v W G i 9 ,   ",
"  l w 9 x l 6 w ; . O , $ & ; 3 6                                       ..^ R H c l d 4 i 3 4 9 d + # l e w v d 6 w ,   ",
"  l z 9 B x 9 g , . o , # % , - 1                                     x ` J v e w 4 p 4 i w 3 8 i + $ g z 7 Z g u g 1   ",
"7 s g h c x a i 6 # O * # & , - 6                                     i ' F p P G k 8 1 7 g 3 3 4 O & 6 i l Z Z n l a   ",
"l K ~ } ..) F g 6 : O * $ - : = 6                                     F _ k 4 0 v N 9 > 3 d < < 4 # < 9 c I } X.] E G p ",
"9 p x V S v i , * % X ; ; : - , 4                                     ) R v x l l 1 ; , 7 7 w , = O * = 7 p B S N g p 7 ",
"    7 z M p < $ O X X : 3 : = 4 4                                     C n N N g 7 7 7 1 u 6 d 1 * + X O * 6 l M g 3     ",
"    g I ~ G p & X . O ; 0 : % 3 3                                     h b b z a w 9 , , w 1 l 6 * % X + , x T ~ G w     ",
"    x ~ ..~ x = O X . ; w : ; , ,                                     t j y 5 3 u p : 1 i 7 l 6 * * o @ 3 F  . .U p     ",
"    x E  ./ k = + X o ; w : ; * :                                     2 f q 0 7 6 u > 3 6 w c 7 * * o @ 1 V .. .L p     ",
"    l T ` ~ d - + o + - w : * & :                                       y q 0 0 * 3 3 6 3 9 v 7 * = + # 1 N ] ' L p     ",
"    g R ~ L p = + O O - w , % * * <                                     5 q 0 1 $ ; 7 < 6 6 v 7 * ; @ # , x ! ~ J i     ",
"    g U E F p = + + + = 7 , & * % , 7                                     e p : , 1 6 , 3 1 l 7 * ; @ $ , l L E F w     ",
"    g Y ~ J a ; @ + O * 6 : $ , ; - w 3                                       - u s 7 i 9 > d 6 & ; # # 3 v E ! G w     ",
"    a T ) L a = @ o X % 6 - + * ; , : ,                                         6 7 p 7 1 ; p 6 & = @ # 1 c / ) G 9     ",
"    u L ' L p * + o o & 1 : O + + , 4 ,                                         3 z 7 * = , p 1 $ * O # < c ) ' Z 6     ",
"    u L { L u * O + * 1 - * 1 6 & & , ,                                         3 p 6 6 z p 7 1 : ; + + , x ) ] Z 4     ",
"    u J ' L u * O + * 7 # + * - = = = ;                                         < 6 6 i 9 < > p d < # O : l ) ] B 3     ",
"    7 F ) G 7 * X . % p * # : : - % - <                                         < 8 6 9 u 7 4 Z l * o O ; g ! ) n 1     ",
"    7 F ! B 3 + X . % w % # % % = = 3 4                                         9 w 9 6 < 4 1 v p & X O * i Y ~ x ,     ",
"    6 M R x , + O X % 7 # % $ # O & 9 ,                                         8 s ; * > 1 < g i & O o $ 9 L T k ,     ",
"    N W ] L 7 & + X # 3 # * O O # , u ,                                         4 v w * - : , p 7 & O # ; g / ] Y g     ",
"  3 p J ^ H 7 $ + + * 7 % , 6 3 , 7 7 >                                         3 M x i g g 4 g a ; $ O - s W / V 7     ",
"d l w g v g 4 > ; % % , & , 3 7 u w 6 ,                                         6 l B F B l 7 3 1 * * ; 1 7 z n a i x   ",
"Z E I D D D V N l 7 * * % 6 7 7 7 3 1 ,                                         4 a x N n B g = * ; w n m S G G G Y R g ",
"F ! R R R I F V x p - # ; 7 7 3 , : : =                                         , p w d l M x : & , a N Z H R Y R E W k ",
"M J F R R V l d p 7 * # > , , > * * &                                           - 7 6 7 i p d , # - 9 d g c J T L G J p ",
"x U L ) / J l d w 1 * # = ; - * # #                                             * , , , 6 9 i - # * 3 p p M U / ! J L u ",
"l J F Y L V p 7 1 ; @ @ % * # # $                                                   ; , , , 6 & + $ : 6 w k G U L F G 7 ",
"p N N F N l 9 6 ; * X + # +                                                             - : , # O O * , 6 i v N V B M 7 ",
"7 g k l g u 1 ; * # X + #                                                                   = @ O O $ = : 6 p k l l p 3 ",
"6 9 9 7 6 , ; * * * *                                                                           @ = * * = : 1 6 7 9 7 < ",
"  9 u 9 9 7 6 6 ,                                                                                   : , 3 1 w u u p 7   "
};
