/* XPM */
static char *door_closed_new__1_1705572766[] = {
/* columns rows colors chars-per-pixel */
"60 60 69 1 ",
"  c #72705D",
". c #415761",
"X c #425963",
"o c #475A62",
"O c #435964",
"+ c #445A64",
"@ c #465C65",
"# c #4C6570",
"$ c #506974",
"% c #516B77",
"& c #576E77",
"* c #536C78",
"= c #536D7A",
"- c #546E7A",
"; c #516D7C",
": c #757361",
"> c #C1721C",
", c #C0761E",
"< c #F27B00",
"1 c #F37C00",
"2 c #F37D00",
"3 c #F57C00",
"4 c #F67E00",
"5 c #C77C22",
"6 c #837656",
"7 c #837657",
"8 c #F48000",
"9 c #F68400",
"0 c #F98400",
"q c #F58A02",
"w c #F88B00",
"e c #F98B00",
"r c #FB8B00",
"t c #F88C04",
"y c #F88F0A",
"u c #F8900D",
"i c #F79314",
"p c #F79417",
"a c #F79519",
"s c #F7981F",
"d c #C78224",
"f c #C98222",
"g c #F69B28",
"h c #F69D2D",
"j c #F69D2E",
"k c #F5A239",
"l c #F5A541",
"z c #F3B05C",
"x c #F3B363",
"c c #F2B86E",
"v c #F1BE7E",
"b c #A1ACB1",
"n c #A9B6BC",
"m c #EFCFA7",
"M c #EFCFA8",
"N c #EED1AB",
"B c #EDDAC2",
"V c #EDDECB",
"C c #ECE2D5",
"Z c #EBE5DD",
"A c #ECE5DC",
"S c #EBE7E0",
"D c #EBE7E2",
"F c #EBE8E4",
"G c #EAEDEF",
"H c #EBEDEF",
"J c #EAEEF2",
"K c #FEFEFE",
"L c white",
/* pixels */
"LLLLLLLn%---------------------------------------=-%XbLLLLLLL",
"LLLLLLLn%-----==----------------==----------==--==+XbLLLLLLL",
"LLLLLLLn%-===;;;;;;;;;;;;;;;;;;;;;;;;;;;;;;;;;;;=#@XbLLLLLLL",
"LLLLLLLn%=-:666777777776777777777766777777777766 @XXbLLLLLLL",
"LLLLLLLn%=&drqqqqqqqqqqqqqqqqqqqqqqqqqqqeqtqqqee,oX.bLLLLLLL",
"LLLLLLLn%-&freeerreeeeeeeeeeeeeeeeeeeeeeeqeeeqe0>XX.bLLLLLLL",
"LLLLLLLn%-&frreeqqeeeeeeeeeeeeeeeeeeeeeeeeeerr93>oo.bLLLLLLL",
"LLLLLLLn%-&frqeerreeeeeeeeeeeeeeeeeeeeeeeeeeqr88>oX.bLLLLLLL",
"LLLLLLLn%=&freeeeeeeeeeeeeeeeeeeeeeeeeeerrrqr013>o+XbLLLLLLL",
"LLLLLLLn%=&freeeeeeeeeeeeeeeeeeeeeeeeeeeqqrr9113>oo.bLLLLLLL",
"LLLLLLLn%=&feeeeeeeeeeeeeeeeeeeeeeeeeeeerrrq9<13>o+.bLLLLLLL",
"LLLLLLLn%=&feeeeeeeeeeeeeeeeeeeeeeeeeeeerqr9<<13>o+.bLLLLLLL",
"LLLLLLLn%=&frreeeeeeeeeeeeeeeeeeeeeeeeeerr911113>oX.bLLLLLLL",
"LLLLLLLn%=&frreeeeeeeeeeeeeeeeeeeeeeeeeerq811111>oX.bLLLLLLL",
"LLLLLLLn%=&frrreeeeeeeeeeeeeeeeeeeeeeeeee9111113>oX.bLLLLLLL",
"LLLLLLLn%=&frqqeeeeeeeeeeeeeeeeeeeeeeeeq91111113>oX.bLLLLLLL",
"LLLLLLLn%-&freeeeeeeeeeeeeeeeeeeeeeeeeeq91111113>oX.bLLLLKKK",
"LLLLLLLn%-&freeeeeeeeeeeeeeeeeeeeeeeeee911111113>oO.bLLLLKKK",
"LKLLLLLn%-&freeeeeeeeeeeeeeeeeeeeeeerr91<1111113>o..bLLLLKKK",
"KKLLLLLn%-&freeeeeeeeeeeeeeeeeeeeeeerq8311111113>o..bLLLLKKK",
"KKKLLLLn%=&freeeeeeeeeeeeeeeeeeeeeeqe91<11111111>oO.bLLLLKKK",
"KKKLLLLn%=&freeeeeeeeeeeeeeeeeeeeerr911111111111>oO.bLLLLKKK",
"KKKLLLLn%=&feeeeeeeeeeeeeeeeeeeerqeq811111111111>oO.bLLLLKKK",
"KKKLLLLn%=&feeeeeeeeeeeeeeeeeeeerqe9111111111111>oO.bLLLLKKK",
"KKKLLLLn%=&frreeeeeeeeeeeeeeeeeerqq1111111111113>oO.bLLLLKKK",
"KKKLLLLn%=&frreeeeeeeeeeeeeeeeeerr13311111111113>oO.bLLLLKKK",
"KKKLLLLn%=&frrreeeeeeeeeeeeeeeeer811111111111113>oO.bLLLLKKK",
"KKKLLLLn%=&frqqeeeeeeeeeeeeeeeee0111111111111111>oO.bLLLLKKK",
"KKKLLLLn%=&frqqreeeerqreeeeqeeeq3111111111111111>oO.bLLLLKKK",
"KKKLLLLn%=&frrrreeeerqrqeeereee91111111111111111>oO.bLLLLKKK",
"KKKLLLLn%-&frerqrqrrrr0qrrrqeer11111111111111111>oO.bLLLLKKK",
"KKKLLLLn%-&frerqrugjjjjjjjureq3<1111111111111111>oX.bLLLLKKK",
"KKKLLLLn#*&frrqrjNAASSFFFFlqe91<1111111111111111>oO.bLLLLLLL",
"KKKLLLLn%=&frrrymJJGJVNNNmjrq1111111111111111113>oO.bLLLLLKK",
"KKKLLLLn%=-frqqsCJGGJvettrqr11111111111111111111>oO.bLLLLKKK",
"KKKLLLLn%=&frrriBJHGJxerqqr911111111111111111133>oO.bLLLLKKK",
"KKKLLLLn%=&frrqrzZJGNarerrq111111111111111111111>oO.bLLLLKKK",
"KKKLLLLn%=&frrqrekczprqerq1111111111111111111133>oO.bLLLLKKK",
"KKKLLLLn%=&frqrrr9rqrrrqr91111111111111111111111>oX.bLLLLKKK",
"KKKLLLLn%=&frrrqrqrrrqee931111111111111111111111>oO.bLLLLKKK",
"LLLLLLLn%=&frrqreeeeeeeq911111111111111111111111>oO.bLLLLKKK",
"LLLLLLLn%=&frrqreeeeeee9<11111111111111111111113>oO.bLLLLKKL",
"KKLLLLLn%=&frqrreeeerr91<<1111111111111111111113>oO.bLLLLKLL",
"KKLLLLLn%=&frrrqeeeerq831<1111111111111111111113>oO.bLLLLKLL",
"LLLLLLLn%-&frqeeeeeqr91<111111111111111111111113>oX.bLLLLLLL",
"LLLLLLLn%-&frreeeeer91<1111111111111111111111113>oO.bLLLLLLL",
"LLLLLLLn%-&feeeeeeeq8111111111111111111111111113>o..bLLLLLLL",
"LLLLLLLn%-&freeeeqe91111111111111111111111111113>o..bLLLLLLL",
"LLLLLLLn%=&frrrqrrq31111111111111111111111111113>oX.bLLLLLLL",
"LLLLLLLn%=&frrrqrq1<1111111111111111111111111113>oX.bLLLLLLL",
"LLLLLLLn%=&frrrrq9<11111111111111111111111111113>o+.bLLLLLLL",
"LLLLLLLn%=&frqqrr<<11111111111111111111111111113>o+XbLLLLLLL",
"LLLLLLLn%=&frqeq1<111111111111111111111111111113>oX.bLLLLLLL",
"LLLLLLLn%-&frrr911111111111111111111111111111113>oX.bLLLLLLL",
"LLLLLLLn%-&frr9311111111111111111111111111111113>o+.bLLLLLLL",
"LLLLLLLn%-&frq9<11111111111111111111111111111113>o+.bLLLLLLL",
"LLLLLLLn#==fr9<<11111111111111111111111111111113>oX.bLLLLLLL",
"LLLLLLLn%*&fr3<<11111111111111111111111111111113>oO.bLLLLLLL",
"LLLLLLLn-%&f331<11111111111111111111111111111113>oO.bLLLLLLL",
"LLLLLLLn%-&51<1<11111111111111111111111111111113>oO.bLLLLLLL"
};
