/* XPM */
static char *meat__1_1705743042[] = {
/* columns rows colors chars-per-pixel */
"60 60 175 2 ",
"   c None",
".  c #010100",
"X  c #0A0603",
"o  c #0D0906",
"O  c #0E0B0A",
"+  c #140B06",
"@  c #180D06",
"#  c #120D0A",
"$  c #1B0F09",
"%  c #1D1007",
"&  c #1D1109",
"*  c #131213",
"=  c #1B1512",
"-  c #1C1C1C",
";  c #24140A",
":  c #29160A",
">  c #2D190C",
",  c #341C0D",
"<  c #381E0E",
"1  c #241B16",
"2  c #2D1C11",
"3  c #291E18",
"4  c #331E12",
"5  c #3D2212",
"6  c #32241D",
"7  c #242324",
"8  c gray16",
"9  c #282728",
"0  c #352720",
"q  c #3B2C24",
"w  c #323132",
"e  c #3C3B3C",
"r  c #383738",
"t  c #412513",
"y  c #4C2913",
"u  c #4F2E1B",
"i  c #532D15",
"p  c #582F16",
"a  c #5A3017",
"s  c #57321B",
"d  c #5D3319",
"f  c #63351A",
"g  c #6A391B",
"h  c #67381A",
"j  c #733E1D",
"k  c #422E23",
"l  c #433229",
"z  c #4B362B",
"x  c #4D3A2F",
"c  c #4D3427",
"v  c #563A2C",
"b  c #5B3620",
"n  c #4E3B31",
"m  c #533E32",
"M  c #623A22",
"N  c #76401E",
"B  c #7B421F",
"V  c #574134",
"C  c #594236",
"Z  c #514038",
"A  c #6D4025",
"S  c #704227",
"D  c #7F4421",
"F  c #744528",
"G  c #61493B",
"H  c #6C4D3C",
"J  c #704D3B",
"K  c #78513E",
"L  c #444344",
"P  c #4E4C4E",
"I  c #555455",
"U  c #5D5C5D",
"Y  c #695144",
"T  c #7A5B4A",
"R  c #755543",
"E  c #626162",
"W  c #787678",
"Q  c #814722",
"!  c #864823",
"~  c #8C4B24",
"^  c #814C2D",
"/  c #924E25",
"(  c #88502F",
")  c #965126",
"_  c #9A5327",
"`  c #9E5528",
"'  c #8E5431",
"]  c #9A5B35",
"[  c #955833",
"{  c #A65A2D",
"}  c #AA5D2E",
"|  c #A05E37",
" . c #AA643A",
".. c #A7633A",
"X. c #B16131",
"o. c #BA6532",
"O. c #BB6A3A",
"+. c #C46B35",
"@. c #C86D36",
"#. c #CA6F38",
"$. c #CB713B",
"%. c #C2703F",
"&. c #82614E",
"*. c #8E6149",
"=. c #8C6854",
"-. c #936B56",
";. c #926D58",
":. c #9C735D",
">. c #97705B",
",. c #BB6F41",
"<. c #B9754C",
"1. c #A46F55",
"2. c #A5755C",
"3. c #B67D5F",
"4. c #9E7660",
"5. c #A47A63",
"6. c #A97E66",
"7. c #B97F61",
"8. c #C47443",
"9. c #CB7643",
"0. c #CD7947",
"q. c #D47B45",
"w. c #D77F4A",
"e. c #D17742",
"r. c #AC8068",
"t. c #BD8263",
"y. c #B3856C",
"u. c #B6886E",
"i. c #BE896B",
"p. c #BB8669",
"a. c #BA8B71",
"s. c #B28C7A",
"d. c #CE8C6A",
"f. c #C08566",
"g. c #D38F6D",
"h. c #D2916F",
"j. c #C39175",
"k. c #CA9679",
"l. c #CC987B",
"z. c #DA9471",
"x. c #DF9974",
"c. c #D49B7C",
"v. c #DB9D7C",
"b. c #D49573",
"n. c #E29F7B",
"m. c #E19A76",
"M. c #E4A17D",
"N. c #918E91",
"B. c #959395",
"V. c #A19FA1",
"C. c #AEABAE",
"Z. c #B5B3B5",
"A. c #BCB9BC",
"S. c #C19782",
"D. c #D59F81",
"F. c #D6A082",
"G. c #DBA384",
"H. c #DCAF98",
"J. c #E4AA8A",
"K. c #E8AD8C",
"L. c #E6A886",
"P. c #EBB599",
"I. c #E9B193",
"U. c #E9B8A1",
"Y. c #C1BEC1",
"T. c #CDCACD",
"R. c #D1CED1",
"E. c #D6D3D6",
"W. c #DAD6DA",
"Q. c #E2DEE2",
"!. c #E5E1E5",
"~. c #E9E6E9",
"^. c #EDEBED",
"/. c #F1EEF1",
"(. c #F3F0F3",
/* pixels */
"                                            . . . . . . .                                                               ",
"                                      . . . # 3 q l q 3 o . .                                                           ",
"                                  . . O q T y.F.J.K.K.D.:.k . .                                                         ",
"                              . . o G j.J.L.k.u.r.u.l.J.K.n.J . .                                                       ",
"                          . . X Y j.J.6.G 3 # . . . # z u.K.x.c . .                                                     ",
"                        . . 1 5.G.y.x # . X , y p y ; . 1 j.n.1.. . .                                                   ",
"                      . . x J.F.V . . ; h ` ` ` ` ` _ y X 6 L.d.6 . . .                                                 ",
"                    . X ;.J.6.o . $ B ` ` ` ` ` ` ` { / > . k.z.z X > . .                                               ",
"                  . o 4.J.&.. . i ) ` ` ` d & X ; Q { / i . 5.x.v o ` , .                                               ",
"                . = 4.F.V X @ N ` ` ` ! > . = 0 X ; ` / p . :.z.z o X.} @ .                                             ",
"              . o 5.F.C . ; ! ` ` ` ~ ; . n S.K.3 @ / / i . 2.d.5 & #.#.! . .                                           ",
"            . X 4.G.C . , ~ ` ` ` _ 2 . Y U.I.G.# % _ / 5 . i.7.+ < q.q.#.i . .                                         ",
"          . . ;.K.V . , / ` ` ` ` j . Z H.P.K.Y . y _ ! % o m.*.. S d.w.$.O.: .                                         ",
"        . . n J.&.. ; ~ ` ` ` ` _ t X s.P.K.:.o ; ! ) h X l m.v X o.$.w.w.@.{ X .                                       ",
"        . 1 G.G.. @ ! ` ` ` ` ` ) ; = F.J.-.. . j ` / , . 2.z.o : $.q.q.d.$.@.a .                                       ",
"      . X 5.K.K.S ! ` ` ` ` ` ` ) 5 . l 1 . X B ` ) B X 6 n.H . B w.w.d.w.q.$.X.; .                                     ",
"      . H J.D.<.` ` ` ` ` ` ` ` ` B % o @ t ~ _ _ ! : X -.g.# ; $.w.w.w.w.w.w.@.~ X .                                   ",
"    . # a.a.k ! ` ` ` ` ` ` ` ` ` ` ~ B ! ` _ { / f . z b.K . A w.w.w.w.w.w.w.e.+.% .                                   ",
"    . C J.m . Q ` ` ` ` ` ` ` ` ` ` ` ` ` ` ` _ j + o p.3.. @ 8.w.w.w.w.w.w.w.w.#.D . .                                 ",
"  . # j.6.# ; _ ` ` ` ` ` ` ` ` ` ` ` ` ` ` _ ! ; X =.g.k . { d.w.w.w.w.w.w.w.w.9.o.; .                                 ",
"  . q J.G . g _ ` ` ` ` _ _ { _ ` ` ` ` ` ` ~ < . x x.J X t w.w.w.w.w.w.w.w.w.w.q.@.p .                                 ",
"  . T J.2 X { _ ` ` ` ` _ { _ _ ` ` ` ` ` ~ , . q c.1.X $ e.w.w.w.w.w.w.w.w.w.w.w.$._ @ .                               ",
". # y.k.+ , ` ` ` ` ` ` _ _ { _ ` ` ` _ ~ , . 3 c.3.X + X.w.d.$.w.w.w.w.w.w.w.w.w.e.@.5 .                               ",
". 3 D.u.X y ` ` ` ` ` ` { _ _ _ ` ` _ ~ < . 3 c.f.1 X ) q.q.e.d.w.w.w.w.w.w.w.w.w.q.@.g .                               ",
". q K.r.. p ` ` ` ` ` ` ` ` _ { ` / j ; . k c.f.2 . S w.w.w.w.w.w.w.w.w.w.w.w.w.d.$.$.` . .                             ",
". l K.u.. y ` ` ` ` ` ` ` ` _ { ~ f @ X n D.7.1 X b q.w.w.w.w.w.w.w.w.w.w.w.w.w.q.d.$.O.X .                             ",
". q K.l.# ; ` ` ` ` ` ` ` { / j : . # =.L.1.o . S q.w.w.w.w.w.w.w.w.w.w.w.w.w.w.q.w.e.#., .                             ",
". 1 F.K.x . i _ ` ` ` _ / g , X X x a.c.H X o ( w.w.w.w.w.w.w.w.w.w.w.w.w.w.w.w.w.w.e.@.f .                             ",
". o 5.K.u.1 . , p f a t ; . . 0 ;.D.f.l X * | w.w.w.w.w.w.w.w.w.w.w.w.w.w.w.w.w.w.w.q.#.D .                             ",
"  . l K.K.j.0 . . . . . o l 6.K.D.T X . 5 0.w.w.w.w.w.w.w.w.w.w.w.w.w.w.w.w.w.w.w.w.w.#./ .                             ",
"  . . R K.K.K.l.5.4.5.j.J.K.G.R # X @ ] w.w.w.w.w.w.w.w.w.w.w.w.w.w.w.w.w.w.w.w.w.w.w.@._ .                             ",
"    . . n 5.c.J.K.G.D.j.;.V # . ; M 9.w.w.w.w.w.w.w.w.w.w.w.w.w.w.w.w.w.w.w.w.w.w.w.w.#.{ . .                           ",
"      . . . 6 m C n 6 @ . X : A #.w.w.w.w.w.w.w.w.w.w.w.w.w.w.w.w.w.w.w.w.w.w.w.w.w.w.#.o.X .                           ",
"        . . . o X + $ < S  .$.d.w.w.w.w.w.w.w.w.w.w.w.w.w.w.w.w.w.w.w.w.w.w.w.w.w.w.w.#.} X                             ",
"          . . 4 ..,.8.q.w.w.q.d.w.w.w.w.w.w.w.w.w.w.w.w.w.w.w.w.w.w.w.w.w.w.w.w.w.w.w.#.} .                             ",
"            . . 5 O.t.w.w.w.q.e.w.w.w.w.w.w.w.w.w.w.w.w.w.w.w.w.w.q.q.d.w.w.w.w.w.w.w.#.} . .                           ",
"              . . @ _ d.w.w.w.w.w.w.w.w.w.w.w.w.w.w.w.w.w.w.w.w.w.w.w.w.w.w.w.w.q.e.w.$.} . .                           ",
"                  . . s $.w.w.w.w.w.w.w.w.w.w.w.w.w.w.w.w.w.w.w.w.w.w.w.w.w.w.w.w.d.q.$.X.. .                           ",
"                    . . ,  .w.w.w.w.w.w.w.w.w.w.w.w.w.w.w.w.w.w.w.w.w.w.w.w.w.w.w.w.$.$.o.. .                           ",
"                      . . o N $.w.w.w.w.w.w.w.w.w.w.w.w.w.w.w.w.w.w.w.w.w.w.w.w.w.w.d.$.@.. .                           ",
"                          . . : ' 0.w.w.w.w.q.q.w.w.w.w.w.w.w.w.w.w.w.w.w.w.w.w.w.w.w.e.@.; X                           ",
"                              . . ; ' 0.w.w.d.$.d.w.w.w.w.w.w.w.w.w.w.w.w.w.w.w.w.w.w.q.@.p .                           ",
"                                . . . ; b  .w.d.$.d.w.w.w.w.w.w.w.w.w.w.w.w.w.w.w.w.w.w.$./ . .                         ",
"                                    . . . # 5 F o.$.w.w.w.w.w.w.w.w.w.w.w.w.w.w.w.w.w.w.9., . .                         ",
"                                          . . . X X , M ^ [ | .......... .,.8.w.w.w.w.0.5 . e - .                       ",
"                                                . . . . . . . . . . . . . . . X & u [ 5 . U Q.Y.- . . . . . A.Q.8 .     ",
"                                                              . . . . . . . . . . . . . e /./.!.A.9 . . r N.Q.Q.E X .   ",
"                                                                                    . . 7 R././.!.C.w e E.Q.Q.Q.W.P .   ",
"                                                                                        . - T.(./.!.E.W.!.~.^.~.!.Y.- . ",
"                                                                                          . 8 A.(./.!.~./.(.(././.~.e . ",
"                                                                                          . . w !.(./.(.(.(.(.(.(.^.r . ",
"                                                                                          . . L ^.(.(.(.(.(.(.(.(.Z.* . ",
"                                                                                          . e !.(.(.(.(.(.(.(.(.E.9 .   ",
"                                                                                          . B.(.(.(.(.(.(.Q.W I * . .   ",
"                                                                                          . Z.(.(.(.(.(.(.W . . .       ",
"                                                                                          . V.(.(.(.(.(.(.I .           ",
"                                                                                          . P ~.(.(.(.(.E.O .           ",
"                                                                                          . X I R.(./.Z.9 .             ",
"                                                                                            . . - L r * . .             ",
"                                                                                                . . . .                 "
};
