/* XPM */
static char *cheese_burger__1_1705263902[] = {
/* columns rows colors chars-per-pixel */
"60 60 210 2 ",
"   c None",
".  c #010000",
"X  c #0B0403",
"o  c #040A04",
"O  c #0A0A04",
"+  c #140505",
"@  c #140B06",
"#  c #1A0B07",
"$  c #150908",
"%  c #1C0C0A",
"&  c #1C0607",
"*  c #0B1709",
"=  c #061E08",
"-  c #0C1B0A",
";  c #071707",
":  c #151107",
">  c #181408",
",  c #230C0A",
"<  c #2B0B0B",
"1  c #280709",
"2  c #370B0D",
"3  c #24120B",
"4  c #2C120C",
"5  c #241C0D",
"6  c #33150D",
"7  c #39190F",
"8  c #37180F",
"9  c #2A1311",
"0  c #271210",
"q  c #3B1A12",
"w  c #3B1A18",
"e  c #321514",
"r  c #3E0E10",
"t  c #072109",
"y  c #08250A",
"u  c #0B2B0C",
"i  c #17240E",
"p  c #0D330F",
"a  c #142B11",
"s  c #113C11",
"d  c #1B3916",
"f  c #0F3810",
"g  c #2B210D",
"h  c #3B2413",
"j  c #322A12",
"k  c #3A2C14",
"l  c #2E2810",
"z  c #4D0C10",
"x  c #400F11",
"c  c #520D11",
"v  c #5D0F13",
"b  c #431C12",
"n  c #4A1E14",
"m  c #431D1B",
"M  c #4B1819",
"N  c #5C1519",
"B  c #460B0E",
"V  c #681318",
"C  c #78151B",
"Z  c #620F14",
"A  c #452114",
"S  c #4C2215",
"D  c #4C211F",
"F  c #532316",
"G  c #5B2718",
"H  c #552918",
"J  c #5C2B1A",
"K  c #522817",
"L  c #4B3C19",
"P  c #59391A",
"I  c #632D1C",
"U  c #70321F",
"Y  c #7B1C21",
"T  c #4D2321",
"R  c #532422",
"E  c #5A2825",
"W  c #652D2A",
"Q  c #6A2D2B",
"!  c #612927",
"~  c #6D332F",
"^  c #763626",
"/  c #7B3431",
"(  c #773733",
")  c #134414",
"_  c #154915",
"`  c #1D4D1B",
"'  c #195318",
"]  c #244D1E",
"[  c #22541D",
"{  c #226A1F",
"}  c #2A5923",
"|  c #2A6624",
" . c #336C2A",
".. c #267823",
"X. c #37762E",
"o. c #3C7D31",
"O. c #57461C",
"+. c #64481D",
"@. c #6D521F",
"#. c #5B4C21",
"$. c #695725",
"%. c #785A22",
"&. c #78632B",
"*. c #8B191E",
"=. c #87171C",
"-. c #91181F",
";. c #871D22",
":. c #991C22",
">. c #A41F25",
",. c #8B2126",
"<. c #982227",
"1. c #863A24",
"2. c #813533",
"3. c #883C38",
"4. c #943E3B",
"5. c #993F3C",
"6. c #913E27",
"7. c #A72329",
"8. c #B7232A",
"9. c #B92B32",
"0. c #C6272E",
"q. c #CB2B32",
"w. c #D72C33",
"e. c #DF353C",
"r. c #E22E37",
"t. c #E8343C",
"y. c #98452A",
"u. c #93443E",
"i. c #9D413E",
"p. c #8B412E",
"a. c #AA4A2E",
"s. c #A3492D",
"d. c #A0423F",
"f. c #B44D31",
"g. c #BD5133",
"h. c #B65734",
"j. c #896C2A",
"k. c #957833",
"l. c #91722E",
"z. c #A07B32",
"x. c #C45435",
"c. c #CD5B38",
"v. c #CA5837",
"b. c #D35B39",
"n. c #DA5E3B",
"m. c #CC623A",
"M. c #DE613C",
"N. c #D8663D",
"B. c #E6633E",
"V. c #E8643F",
"C. c #E2693F",
"Z. c #EE3740",
"A. c #9F4440",
"S. c #9C4943",
"D. c #964640",
"F. c #A14541",
"G. c #A54A45",
"H. c #A94C46",
"J. c #AA4F48",
"K. c #AD514A",
"L. c #B1524B",
"P. c #EB6640",
"I. c #E36C41",
"U. c #ED6A41",
"Y. c #F16C42",
"T. c #EC7144",
"R. c #F57345",
"E. c #FA7546",
"W. c #FF7A49",
"Q. c #FC7748",
"!. c #329C2F",
"~. c #3D8332",
"^. c #3E8B34",
"/. c #2E892A",
"(. c #36A432",
"). c #3AAD35",
"_. c #37AC33",
"`. c #3DB137",
"'. c #3FB339",
"]. c #438C37",
"[. c #48983B",
"{. c #44B53C",
"}. c #48B83E",
"|. c #4AA53E",
" X c #4EAB40",
".X c #51AA42",
"XX c #4EB642",
"oX c #55BD46",
"OX c #56B847",
"+X c #5CC14B",
"@X c #A98C3D",
"#X c #AE903E",
"$X c #B88E39",
"%X c #CA983B",
"&X c #D4A03F",
"*X c #B79841",
"=X c #C6A547",
"-X c #D5A946",
";X c #DAB54E",
":X c #D6B24D",
">X c #DDB950",
",X c #F8BD4A",
"<X c #E4BD52",
"1X c #E5B046",
"2X c #FDC24D",
"3X c #E9C254",
"4X c #FFCC54",
"5X c #F7CA56",
"6X c #FED45C",
"7X c #FFD95E",
/* pixels */
"                                                                                                                        ",
"                                                                                                                        ",
"                                                                                                                        ",
"                                                                                                                        ",
"                                                                                                                        ",
"                                                      . . . . . . o . . . .                                             ",
"                                        . . . . . X # 3 8 h S S S S A q 9 0 $ X . . .                                   ",
"                                . . . X , b I 1.s.g.c.C.T.R.E.Q.E.Q.E.R.T.I.N.h.1.A @ . . .                             ",
"                            . . # b 1.f.c.B.P.U.Y.W.W.W.W.W.W.W.W.W.W.W.W.W.W.W.&XR.N.y.A X . .                         ",
"                        . X 7 1.x.B.B.P.P.P.Y.W.W.W.W.W.W.W.W.W.W.W.W.W.W.W.W.W.E.W.W.W.T.h.S o .                       ",
"                    . . 7 s.n.V.B.B.B.B.U.E.W.W.W.W.W.W.W.W.W.W.W.W.W.W.W.W.W.W.E.Q.W.W.W.W.R.s.3 .                     ",
"                  . , 6.B.V.V.B.P.B.P.R.W.W.W.W.W.W.W.W.W.W.W.W.W.W.W.W.W.W.W.W.W.Q.W.W.W.W.W.W.m.q .                   ",
"                . b x.V.V.B.V.V.B.P.E.W.W.W.W.W.W.W.W.W.W.W.W.W.W.W.W.W.W.W.W.W.W.W.W.W.W.W.W.W.W.N.q .                 ",
"              . S b.V.V.B.V.V.B.P.E.W.W.W.W.W.W.W.W.W.W.W.W.W.W.W.W.W.W.W.W.W.W.W.W.W.W.W.W.W.W.W.W.m.5 .               ",
"            . b b.V.B.V.V.V.B.B.Y.W.W.W.W.W.W.W.W.W.W.W.W.W.W.W.W.W.W.W.W.W.W.W.W.W.W.W.W.W.W.W.W.W.W.s.X .             ",
"          . % g.V.B.V.V.V.V.B.Y.W.W.W.W.W.W.W.W.W.W.W.W.W.W.W.W.W.W.W.W.W.W.W.W.W.W.W.W.W.W.W.W.W.W.W.E.I .             ",
"          . 1.P.B.B.P.B.B.B.P.E.W.W.W.W.W.W.W.W.W.W.W.W.W.W.W.W.W.W.W.W.W.W.W.W.W.W.W.W.W.W.W.W.W.W.W.W.m.# .           ",
"        . < v.B.B.P.B.B.P.B.P.E.W.W.W.W.W.W.W.W.W.W.W.W.W.W.W.W.W.W.W.W.W.W.W.W.W.W.W.W.W.W.W.W.W.W.W.W.Q.I .           ",
"        . U P.P.P.B.B.P.P.M.P.W.W.W.W.W.W.W.W.W.W.W.W.W.W.W.W.W.W.W.W.W.W.W.W.W.W.W.W.W.W.W.W.W.W.W.W.Q.W.h..           ",
"        X a.B.P.B.P.P.B.P.B.P.Y.W.W.W.W.W.W.W.W.W.W.W.W.W.W.W.W.W.W.W.W.W.W.W.W.W.W.W.W.W.W.W.W.W.W.W.W.W.I.3           ",
"      . , c.P.B.B.P.B.B.B.P.M.P.R.W.W.W.W.W.W.W.W.W.W.W.W.W.W.W.W.W.W.W.W.W.W.W.W.W.W.W.W.W.W.W.W.W.W.W.W.E.A .         ",
"      . 8 n.B.P.P.B.B.P.P.B.P.M.P.Y.E.W.W.W.W.W.W.W.W.W.W.W.W.W.W.W.W.W.W.W.W.W.W.W.W.W.W.W.W.W.W.W.W.W.W.W.J o         ",
"      . n P.P.B.B.P.P.B.B.P.B.P.B.B.B.P.Y.R.E.E.W.W.W.W.W.W.W.W.W.W.W.W.W.W.W.W.W.W.W.W.W.W.W.W.W.W.W.W.W.W.^ .         ",
"      . D B.B.P.B.B.P.B.P.B.P.B.B.P.B.B.B.P.P.P.P.U.Y.Y.Y.R.E.E.Q.E.Q.W.W.W.W.W.W.W.W.W.W.W.W.W.W.W.W.W.W.W.^ .         ",
"      . F B.V.V.P.B.B.P.B.B.B.P.V.V.V.V.V.B.B.B.P.B.B.B.B.P.B.P.V.V.V.Y.Y.Y.Y.R.R.E.E.W.Q.W.W.W.W.W.W.W.W.W.p..         ",
"      . 4 n.P.V.P.P.P.B.B.P.P.B.V.B.V.V.V.V.V.B.P.P.B.P.P.B.P.B.V.V.V.V.V.V.V.B.V.V.V.V.V.U.U.Y.U.Y.R.V.R.Q.U .         ",
"        . G f.v.n.M.M.B.B.B.B.B.B.B.V.B.B.B.B.B.n.M.M.B.M.M.n.n.n.n.n.n.n.n.b.n.n.b.b.n.n.n.b.b.b.b.b.c.x.6.# o . .     ",
"      o = o X & < 7 b b M n F F n G n F S n n A b b b r r 8 6 4 4 6 < 4 4 < 4 4 4 4 4 < 4 < , , , % & , + . u { _ o .   ",
"  . - | !./.{ _ ) p u y t = = = * = = t t t t t y y u u u p p p p f f f s s s ) ) ) ) ) ) _ _ _ _ _ _ _ ' ..!._._...* . ",
". = /.}.XXOX}.}.{.`._.(.(.(.!.(.(.(.(.(.(.(.(.(.(.(._.).).).)._._._.).).'.'.).).).).`.{.'.'.`.{.{.{.{.XX}.}.{.{.{.{.[ . ",
". [ oX+X+XoX+XOX|.^.[.OXoXoXOXOX{.X.] | [.oX+X+XoX X^.| | ^. XoXoXoXoX|.~.~.|.oX+X+X X]. . .[..X.X[.~. . .~.[..X.X].a . ",
". d ].|.].X.] a i l g d ~..X.XX.a > k 5 * [ ~.~.} a o . . o a  .].o.] * o o - ] X.} u O > > O - - ; . $ % $ * * * o .   ",
"  . o o o . 5 l.-X3X:X&.5 - * > #.=X5X<Xk.j > > . . e ~ w . $ O o . > $.#X$X&.> O > L *X:X:X*XL . + R D.S.u.( e .       ",
"      . 0 E A %.-X2X6X6X;X#X*X-X5X6X6X6X7X<X*X#.% ~ G.L.H.E 5 +.z.*X:X6X6X6X6X>X=X;X5X7X6X>X&.5 T u.K.K.K.K.L.( .       ",
"      w S.L.D.T 5 @.%X,X6X6X6X6X6X6X6X6X7X>X#.9 3.K.K.K.J.J.( 9 L %X,X4X6X6X6X6X7X7X6X7X*Xj 0 ( J.L.J.J.G.H.K.( o       ",
"    % u.K.K.K.J.3.m 5 @.%X2X4X5X6X6X6X6X*Xj e u.K.K.G.J.J.J.H.u.w @ +.%X,X2X4X6X6X6X5Xj.* T S.L.L.J.G.F.A.A.A.w .       ",
"    D K.K.K.K.K.K.J.3.w 3 %.1X,X2X6X6Xk.> m S.L.K.S.i.i.A.5.A.J.J.( 0 @ $.-X,X2X6X3X#.X E G.K.K.J.F.5.5.A.5.D.% .       ",
"  . D J.J.H.G.H.K.K.K.H.( 3 h $X,X<X&.O E J.J.J.K.G.i.A.A.A.G.K.J.J.G.W # 6 l.1X=XL X W K.K.K.K.J.G.F.H.H.J.J.~ $ .     ",
"    $ Q 2.4.i.F.K.J.G.G.H.i.D > L j $ ( L.K.J.J.G.i.A.G.A.i.F.G.F.F.H.H.3.m @ 5 $ $ Q G.G.G.S.G.J.G.H.J.G.G.G.F.E .     ",
"    . . X D i.A.F.i.i.i.i.G.H.~ 9 w / G.H.A.A.F.D.i.i.i.5.i.A.i.5.5.5.d.i.i./ m R 3.A.i.i.5.i.i.F.d.5.5.A.5.i.4.M .     ",
"        . , 4.i.i.3.E w Q 5.d.F.i.4.A.A.A.5.( W 4.5.5.5.4.2.2.5.5.F.A.4.4.5.d.d.5./ / 5.A.A.5.4.4.i.i.i.4.W m , .       ",
"          . q D w @ $ 2 $ E 2.~ m 0 m 2.2.M X X , ! Q R 4 X X q / / R , 0 H / Q w + X m / / D 0 % M W W e X + .         ",
"        r Y 2 , < N 9.t.C $ + X < V & O O + Z 7.z + + + x 1 + < X X $ N Y 1 X X 1 Y <., X X + z V 1 X + 1 ,.z .         ",
"        r 8.0.0.w.t.t.Z.Z.9.<.>.q.t.9.C Y 7.w.t.q.8.>.7.<.& , <.;.=.8.w.r.0.7.7.0.r.r.0.:.;.8.w.w.0.-.-.7.;.$           ",
"        o < z V V C ;.<.>.>.:.=.V v c c c c c z c z B < # #.&.6 B z v V C =.*.-.*.*.=.C C V Z c c B 2 1 & X             ",
"        8 s.^ J G H S A b b b S K J J H K K K K J J h l.=X3X<X:X@Xj.5 8 S q 6 4 4 4 6 6 6 8 q b F ! ^ y.^ .             ",
"        4 T.W.W.W.Q.Q.E.T.R.R.Q.Q.W.W.W.W.Q.W.Q.W.I.+.,X5X#.k :X7X3Xk c.Q.R.T.T.T.T.U.T.R.R.E.Q.E.Q.E.1Xh.X             ",
"        3 C.W.W.W.W.W.W.W.W.W.W.W.W.W.W.W.W.W.W.W.R.J j.$.H F z.7X;Xh N.W.W.Q.W.Q.Q.E.W.R.E.E.R.Y.Y.P.V.a.X             ",
"        # x.Y.U.Y.Y.Y.E.R.E.E.E.E.R.E.E.E.E.E.E.R.E.v.G I N.U j.5X;Xh b.Y.Y.U.U.V.V.V.V.V.V.V.V.V.V.B.V.y..             ",
"        . y.P.B.B.B.B.B.B.B.V.V.V.V.V.V.V.V.V.V.B.P.P.B.P.P.^ +.2X-Xh b.V.B.B.B.B.V.V.V.V.V.V.V.V.V.B.B.G .             ",
"        . 7 b.V.B.B.V.V.B.B.B.V.V.V.V.V.B.B.V.B.B.B.B.B.B.P.x.8 j.&.S B.V.V.B.V.V.V.V.V.V.V.V.V.V.V.V.a.@ .             ",
"          . 7 s.b.B.V.V.P.P.P.V.V.V.V.V.V.V.V.V.P.B.P.B.P.B.P.a.8 q g.V.V.V.V.V.V.V.V.V.V.V.V.V.V.M.y.> .               ",
"            . X , b I U 1.s.a.f.x.x.v.c.b.n.n.B.B.B.B.B.V.P.V.V.n.M.V.B.B.B.M.n.b.c.x.f.s.y.^ I A % . .                 ",
"                  . . . . . X X + @ & , < < 6 7 b n S F G G G G I G F S b b q 6 3 , @ X . . . . . .                     ",
"                                            . . . . . . . . . . . . . . . . . .                                         ",
"                                                                                                                        ",
"                                                                                                                        ",
"                                                                                                                        ",
"                                                                                                                        ",
"                                                                                                                        "
};
