/* XPM */
static char *monster_killer__1_1705686734[] = {
/* columns rows colors chars-per-pixel */
"60 60 133 2 ",
"   c None",
".  c #0F2226",
"X  c #112226",
"o  c #1B2226",
"O  c #14242B",
"+  c #1B232B",
"@  c #1B2633",
"#  c #1F2638",
"$  c #232227",
"%  c #2F2127",
"&  c #252328",
"*  c #2D2329",
"=  c #33242A",
"-  c #3D2229",
";  c #3C282F",
":  c #23283F",
">  c #3A2E34",
",  c #432229",
"<  c #4F242C",
"1  c #56212A",
"2  c #532C33",
"3  c #5A2D35",
"4  c #66232C",
"5  c #6C232D",
"6  c #72242E",
"7  c #7D232E",
"8  c #6B2731",
"9  c #7C2833",
"0  c #60353D",
"q  c #262943",
"w  c #292945",
"e  c #2D2A4C",
"r  c #302C4F",
"t  c #332C54",
"y  c #372D58",
"u  c #3A2F5D",
"i  c #3D305F",
"p  c #3E2F61",
"a  c #3F3063",
"s  c #683941",
"d  c #743941",
"f  c #413065",
"g  c #45326B",
"h  c #48336F",
"j  c #4E3476",
"k  c #4D3D72",
"l  c #4F3578",
"z  c #50367A",
"x  c #523A7B",
"c  c #56407E",
"v  c #574C7B",
"b  c #5B517E",
"n  c #86232E",
"m  c #8A232E",
"M  c #97232F",
"N  c #A1222F",
"B  c #A22330",
"V  c #B32331",
"C  c #BC2332",
"Z  c #C12434",
"A  c #D02333",
"S  c #DD2B3C",
"D  c #EB2335",
"F  c #E72F40",
"G  c #E73344",
"H  c #EA3244",
"J  c #EA3748",
"K  c #88454D",
"L  c #8E4851",
"P  c #944B53",
"I  c #94515A",
"U  c #9E515A",
"Y  c #C54C59",
"T  c #DC4F5D",
"R  c #EB4E5D",
"E  c #CA5763",
"W  c #EB5D6B",
"Q  c #CD6F7A",
"!  c #D2737E",
"~  c #EC606E",
"^  c #EE6370",
"/  c #EE6A77",
"(  c #EE6B78",
")  c #5C4584",
"_  c #624C8A",
"`  c #645C86",
"'  c #67528F",
"]  c #66598A",
"[  c #695591",
"{  c #6E5A95",
"}  c #715F98",
"|  c #6A638C",
" . c #6D6390",
".. c #6F6991",
"X. c #716794",
"o. c #736A96",
"O. c #74639B",
"+. c #75689A",
"@. c #7A6D9F",
"#. c #757196",
"$. c #7C7E9C",
"%. c #8577AB",
"&. c #867DAA",
"*. c #887CAD",
"=. c #D77681",
"-. c #DA7883",
";. c #EC7D89",
":. c #F07582",
">. c #7F819F",
",. c #80819F",
"<. c #8484A3",
"1. c #8787A8",
"2. c #8A89AB",
"3. c #8E82B4",
"4. c #8F8BB2",
"5. c #9185B6",
"6. c #918CB4",
"7. c #958FB8",
"8. c #998EBE",
"9. c #9791BA",
"0. c #9996BB",
"q. c #E9848F",
"w. c #F0808B",
"e. c #E88B95",
"r. c #F18691",
"t. c #F38D98",
"y. c #9C93C1",
"u. c #A09CC2",
"i. c #A59DC9",
"p. c #A6A1C9",
"a. c #A9A3CD",
"s. c #ADA7D1",
"d. c #AFAAD3",
/* pixels */
"                                                          l l l l l l l l j j l l                                       ",
"                                                l l l l l l l l l l l l l l l l l l l l                                 ",
"                                          l l l l l l l l l l l l l l l j l l l l l l l l l                             ",
"                                      l l l l l l l l l l l l l z g u g l l l l l l l l l l l l                         ",
"                                  l l l l l l l l l l l l l l g t @ X : j l l l l l l l l l l l l                       ",
"                              j l l l l l l l l l l l l l g e + X X X X e l l l l l l l l l l l l l                     ",
"                            l l l l l l l l l l l l l j t @ + X X X X X O p l l l l l l l l l l l l l                   ",
"                        l l l l l l l l l l l l l l g : X o 7 * . X X * X @ g l j l l l l l l l l l l l                 ",
"                      l l l l l l l l l l l l l l u @ % X o C B $ & n m X X w j l j l l l l l l l l l l l               ",
"                    l l l l l l l l l l l l l l a O . 6 1 X V A , M D 8 . + * t l l l l l l l l l l l l l               ",
"                  l l l l l l l l l l l l l l h # X . 9 Y ; , - X 1 B % > U 2 O p l l l l l l l l j h l l l             ",
"                  l l l l l l l l l l l l l l t X X . 4 ^ Q s * & = 3 I =.E % . # h l j l l l l l j f l l l             ",
"                l l l l l l l l l l l l l l l q X X . , S :.;.=.Q -.q.r.R 7 . X X w l l l l l l l h f l l l l           ",
"              l l l l l l l l l l l l l l l l e X X X $ C J H ( W / R H C % X X X O p l l l l l z g f l l l l           ",
"              l l l l l l l l l l l l l l l z g @ X X X 8 W ~ G F H / T 1 X X X O e j l l l l l l g g l z l l           ",
"            l l l l l l l l l l l l l l l l l z f : X X + L e.( t.;.! 0 X . X # y l l l l l l l l f j l l l l           ",
"            l l l l l l l l l l g h l l j l z j z j u w @ + 2 K P d = X O : t h j j z j l l l l l a j l l l l l         ",
"          l l l l l l l l l l l f j l l z l j z j j l j h p t e e w e y f h j z z j j z l l j l g f l l l l l l         ",
"          l l l l l l l l l l j a j l l l l l l j j l l l l l l l j z z l z j j j z j z l l l j p j l l l l l l         ",
"          l l l l l l l l l l j a j l l l l l z j l j l l l l l z [ 5.O.j j z j z j z j l l j f g l l l l l l           ",
"          l l l l l l l l l l j f l l l l l j j l ' %._ l l j j { 7.2.7.{ j j j j z l l j h f g l l l l l l l           ",
"          l l l l l l l l l l l a j l l l l j j ) y.0.9.{ l j ) 6.,.$.2.i.| u f f g g f f f h l l l l l l l l           ",
"        l l l l l l l l l l l l f g z z l h j { y.p.2.1.5.) j { 1.<.<.2.s.0.k j j h h j j l l l l l l l l l l           ",
"        l l l l l l l l l l l l j a f f f u ` p.s.4.2.1.3.O.j @.,.<.1.a.s.i.v j l l j j l l l l l l l l l l l           ",
"        l l l l l l l l l l l l l j j h j j ..d.s.0.1.2.<.@.l o.$.<.4.%.8.%.b j l l l l l l l l l l l l l l             ",
"          l l l l l l l l l l l j l j l j j ` 4.y.3.2.2.>.o.z c | ,.&.) [ z f j l l l l l l l l l l l l l l             ",
"          l l l l l l l l l l l l l l l l j g z { ) 3.<.#.) l l x ] [ j l l g h l l l l l l l l l l l l l               ",
"          l l l l l l l l l l l l l l l l j a j z j [ X.c l l l j l z j j l h f l l l l l l l l l l l l                 ",
"          l l l l l l l l l l l l l l l l j a j l j z z j l l l l j j l l l j f l l l l l l l l l l l                   ",
"          l l l l l l l l l l l l l l l l l a j l l l j j l l l l l l l l l l f l l l l l l l l l l l                   ",
"            l l l l l l l l l l l l l l l l a j l l l l l l l l l l l l l l l f h l l l l l l l l                       ",
"              l l l l l l l l l l l l l l l g h l l l l l l l l l l l l l l l g g l l l l l l l                         ",
"              l l l l l l l l l l l l l l l g g l l l l z l l l l l l l l l l h f z l l l j l                           ",
"                l l l l l l l l l l l l l l g g l l l l l l l l l l l l l l l j f l j g g                               ",
"                    l l l l l l l l l l l j f g l l l l l l l l l l l l l l l j p f f g                                 ",
"                          j l l l j g f p f f l l l l l l l l l l l l l l l l l j g j l                                 ",
"                                    j h j l l l l l l l l l l l l l l l l l l l l l l l                                 ",
"                                    l l l l l l l l l l l l l l l l l l l l l l l l l j                                 ",
"                                    l l l l l l l l l l l l l l l l l l l l l l l l l z                                 ",
"                                  l l l l l l l l l l l l l l l l l l l l l l l l l l l                                 ",
"                                  l l l l l l l l l l l l l l l l l l l l l l l l l l l                                 ",
"                                  l l l l l l l l l l l l l l l l l l l l l l l l l l l                                 ",
"                                  l l l l l l l l l l l l l l l l l l l l l l l l l l l                                 ",
"                                  l l l l l l l l l l l l l l l l l l l l l l l l l l l                                 ",
"                                j l l l l l l l l l l l l l l l l l l l l l l l l l l l                                 ",
"                                j l l l l l l l l l l l l l l l l l l l l l l l l l l l                                 ",
"                                l l l l l l l l l l l l l l l l l l l l l l l l l l l l                                 ",
"                                l l l l l l l l l l l l l l l l l l l l l l l l l l l l                                 ",
"                                l l l l l l l l l l l l l l l l l l l l l l l l l l l l                                 ",
"                              l l l l l l l l l l l l l l l l l l l l l l l l l l l l l                                 ",
"                            l l l l l l l l l l l l l l l l l l l l l l l l l l l l l l l                               ",
"                        l l l l l l l l l l l l l l l l l l l l l l l l l l l l l l l l l l l                           ",
"                    l l l l l l l l l l l l l l l l l l l l l l l l l l l l l l l l l l l l l l l l                     ",
"                  l l l l l l   l l l l l l l l l l l l j l l l l l l l l l l l l l l l l l l l l l l l                 ",
"                l l l           l l l l l l l l l     l z j l l l l l l l l l l l l l l l l l l l l l l l               ",
"                              l l l l l l l l         l l z z       l l l l l l l l                                     ",
"                            l l l l l l             l l l j             l l l l l l                                     ",
"                          l l l l                   l l l                   l l l l l                                   ",
"                        l l                       l j                           l l l l                                 ",
"                                                  l                                                                     "
};
