/* XPM */
static char *SkeletonWithSwordLefttJump__1_1705858452[] = {
/* columns rows colors chars-per-pixel */
"60 60 194 2 ",
"   c None",
".  c #020101",
"X  c #090605",
"o  c #0A0806",
"O  c #070808",
"+  c #0C0B0B",
"@  c #120F0B",
"#  c #14110D",
"$  c #1B140C",
"%  c #0F0F10",
"&  c #0F1011",
"*  c #131414",
"=  c #191513",
"-  c #1E1916",
";  c #161718",
":  c #171819",
">  c #1A1C1C",
",  c #360E0C",
"<  c #23190F",
"1  c #241C14",
"2  c #291E13",
"3  c #221D1A",
"4  c #30100F",
"5  c #26201D",
"6  c #2A231C",
"7  c #2B2015",
"8  c #362A1E",
"9  c #3B2D1C",
"0  c #342618",
"q  c #1F1F21",
"w  c #1E2122",
"e  c #222324",
"r  c #2D2621",
"t  c #2C2925",
"y  c #252728",
"u  c #262A2B",
"i  c #292C2D",
"p  c #352B23",
"a  c #3A2E23",
"s  c #302C29",
"d  c #3D3124",
"f  c #3E342B",
"g  c #34302C",
"h  c #2C2F30",
"j  c #2D3132",
"k  c #323435",
"l  c #333738",
"z  c #353B3B",
"x  c #3A3D3E",
"c  c #3C3935",
"v  c #661B17",
"b  c #402F1C",
"n  c #44331E",
"m  c #49341F",
"M  c #73221F",
"N  c #423425",
"B  c #493620",
"V  c #4D3A26",
"C  c #44392D",
"Z  c #4D3C2A",
"A  c #423629",
"S  c #523D25",
"D  c #513E29",
"F  c #443B33",
"G  c #423F3C",
"H  c #4C2726",
"J  c #792C29",
"K  c #574127",
"L  c #564129",
"P  c #5D452B",
"I  c #584127",
"U  c #45413C",
"Y  c #4B433A",
"T  c #4E4234",
"R  c #554534",
"E  c #5D4D3A",
"W  c #61472B",
"Q  c #61482D",
"!  c #6A5238",
"~  c #785A3A",
"^  c #664F34",
"/  c #3A3E40",
"(  c #3D4344",
")  c #434445",
"_  c #434749",
"`  c #444A4C",
"'  c #494B4D",
"]  c #504A49",
"[  c #5C5345",
"{  c #474F51",
"}  c #4B4E51",
"|  c #475051",
" . c #4C5254",
".. c #4E5759",
"X. c #4E5858",
"o. c #525556",
"O. c #525659",
"+. c #525B5C",
"@. c #5C5D5C",
"#. c #5B5953",
"$. c #7E4240",
"%. c #695844",
"&. c #635A59",
"*. c #635A53",
"=. c #795C5B",
"-. c #6A4949",
";. c #5D605B",
":. c #7E6243",
">. c #7F6549",
",. c #66625B",
"<. c #726454",
"1. c #796B59",
"2. c #7E715E",
"3. c #555E60",
"4. c #5A5E62",
"5. c #566062",
"6. c #5C6265",
"7. c #5E6668",
"8. c #5E686A",
"9. c #626463",
"0. c #636B6E",
"q. c #61676B",
"w. c #7E6160",
"e. c #7E6768",
"r. c #7D7260",
"t. c #666E71",
"y. c #686F72",
"u. c #667274",
"i. c #6A7375",
"p. c #6B7779",
"a. c #6D797B",
"s. c #757774",
"d. c #727C7D",
"f. c #7D7D75",
"g. c #6C716D",
"h. c #84231F",
"j. c #892B27",
"k. c #863835",
"l. c #983935",
"z. c #A4433E",
"x. c #8D524F",
"c. c #8B5958",
"v. c #A6504B",
"b. c #826446",
"n. c #816D55",
"m. c #816262",
"M. c #976B6A",
"N. c #827C6C",
"B. c #847866",
"V. c #8E7676",
"C. c #96817F",
"Z. c #82857F",
"A. c #737E81",
"S. c #758283",
"D. c #7A8385",
"F. c #798588",
"G. c #7D8B8D",
"H. c #7F8D90",
"J. c #828B8A",
"K. c #878888",
"L. c #808F92",
"P. c #849395",
"I. c #879598",
"U. c #899A9C",
"Y. c #879898",
"T. c #948F8A",
"R. c #AE9F9E",
"E. c #B89997",
"W. c #A88382",
"Q. c #97A29C",
"!. c #BDA09E",
"~. c #8F9FA1",
"^. c #8FA0A1",
"/. c #91A2A3",
"(. c #99A4A3",
"). c #99ACAD",
"_. c #99A9A8",
"`. c #9BAFB0",
"'. c #A8A8A8",
"]. c #B5B0AF",
"[. c #A5BABB",
"{. c #ABBEBE",
"}. c #A7B3B3",
"|. c #A9BFC0",
" X c #ACC2C3",
".X c #B1C6C7",
"XX c #B5CBCC",
"oX c #BACECE",
"OX c #BACFD0",
"+X c #BAD1D2",
"@X c #C5DDDE",
"#X c #C9DBDC",
"$X c #C3D6D7",
"%X c #CCE4E4",
/* pixels */
"              . . . . .                                                                                                 ",
"              : q q q : *                                                                                               ",
"          . * l } o.} / > .                                                                                             ",
"          . * / 6.t.i. .w .                                                                                             ",
"          . * / 6.a.F.4.i .                                                                                             ",
"          . ; / 6.d.L.7.i .                                                                                             ",
"          . * / 9.d.G.8.i .                                                                                             ",
"          . - F <.f.G.8.i .                                                                                             ",
"          . $ D b.N.K.8.i .                                                                                             ",
"          . $ K b.B.J.8.i .                                                                                             ",
"          . = L >.B.Z.6.u .                                                                                             ",
"          . ; F <.1.n.[ 6 .                       . . . . . . . . . . . . .                                             ",
"          . ; x 6.<.>.P 2 .                     u i i i i i i h i i h i i i w                                           ",
"          . * x 4.<.>.P 2 .                 O x a././././././././.^.^././.P.+.&                                         ",
"          . = c *.1.1.E 5 .                 O ( /.%X%X@X@X%X@X@X%X@X@X@X@X.XS.z u                                       ",
"          . # N ! 1.f.;.u .                 O ( _.%X@XXXXXXXXXXXXXXXXXXXXX.X).I.6.u .                                   ",
"          . $ m ~ 2.J.8.i .               u l 8.).+X+X X X X X X|. X X X|. X|.|.p.u .                                   ",
"          . $ S ~ B.J.7.i .           . + | G.). XXX.X X X X X X X|. X X|. X|.|.p.y .                                   ",
"        . . $ B ~ n.N.#.y . .       . . + 5.}.oX+X+X.X X.XOX+X+XOXXX.X|. X|.[.).t.u .                                   ",
". . . . . . $ n ! ~ >.E 7 . . X . . . . O 6.{.$X#X#XOX XoX$X@X@X#XOX.X|.|.|.).~.5.w .                                   ",
". . + ; % X @ p P %.%.R 3 X ; y > O . . O ] T.E.E.!.].|.}.E.E.E.E.R.'.`.`.`.^.I.3.q .                                   ",
". O > i q + % t U } @.' e & h } k * . . X , J j.l.v.W.}.T.x.k.l.v.M.T.I.H.H.H.H...w .                                   ",
"  O * > q q t x } +.4.o.) k j h > O . . X , v h.j.l.M.(.V.k.h.h.j.c.D.A.5.{ ` ( l >                                     ",
"    O O ; u l _ o.O.O.O.} _ i % O . . . X , v M J k.w.K.m.! k.j.j.=.d.3.h % O % +                                       ",
"        @ ; q e u u u u i y >             4 , H -.=.&.o.*.=.m.m.w.*.( h % . . . .                           . . .       ",
"          . . O % % % % X .                 . i q.A.4.l o.A.I.L.H.| ; . . X . . .                         & & + + +     ",
"          . % y / } +./ > .                 . i q.G.A.t.a.G.I.I.H.| * + > q * . .                     . i { ..' / y + . ",
"          . * x 4.i.A.6.k ; %               . e  .A.A.F.G.G.D.A.t.( > ; e e * . .                   * * ( t.A.t.3.k + . ",
"          . * / 4.0.i.6. ./ y O . . .       . + q k o.y.y.y.4.` h i y 5 : @ O . .           . . . % h (  .0.t.q.4.k % . ",
"          . * k ` { ' O.9.6./ > w u u w   @ @ # @ = h _ ' ' / y * q k s 1 @ o . .         w i y q e _ 8.4. .{ } _ h + . ",
"              * ; ; : z 7.A.q. .8.S.p.( o 2 b n p 6 3 - ; ; q e i g f A B b < . . . . . + { S.a.4...t.A.3.h ; ; : *     ",
"                . . . y { 7.0.i.G./.F.( o 7 S P S N 7 # @ @ 3 t c C Z D P I 9 < - > e j ( u./.~.F.i.t.7.( q . . .       ",
"                        > h ..A.G.P.p.z + 7 S P P I B p 0 8 9 p f A L P P P K S T ] ;.A.U.U.Y.H.G.a.{ w >               ",
"                          * / +.3.3.| z y p 9 m K P I V V S L L L K P K m n S P ! ;.i.Y._.G.8.5.+...k O                 ",
"                            % & % & w x } j * < m W Q Q P W Q Q P Q P m < $ 9 P E ;.g.F.H.+.w ; & & %                   ",
"                              . . . * i k q O < n ^ <.N.Z.f.2.%.Q Q Q n $ X $ 0 g l x ( | l & . .                       ",
"                                      O + O . $ n ! r.Q._._.T.1.Q Q P m < o o o O O & & & &                             ",
"                                        . . . # 9 R ,.s.d.d.g.[ L P L K 9 2 # . . . . .                                 ",
"                                            . @ 6 N T Y Y U U C B L L L P m 2 X .                                       ",
"                                            . @ 6 C [ ,.#.U f f f B L L K d 2 . .                                       ",
"                                            . @ 6 F #.s.;.Y N d N N N N N 8 < . .                                       ",
"                                            . @ 1 p x ' U C N N a N N a p 5 # . .                                       ",
"                                            . O = 3 3 3 r p a a a N a a 8 3 * . .                                       ",
"                                                o o o o = 5 8 r r p N p r 3 @ . .                                       ",
"                                                . . O O * = - - 3 6 8 p r 3 @ . .                                       ",
"                                                . O : i w * + + @ ; 5 6 5 3 @ . .                                       ",
"                                                . & l @.X.( x z z i 3 - - # + .                                         ",
"                                                . : +.U.^.U.U.U.P.O.> o O X O                                           ",
"                                              e x | u.H.P.P.P.P.G.8.( w & . .                                           ",
"                                            O j u.P.u.| ' ` ' ' ' 6.u.X.w . . . .                                       ",
"                                            . y +.p.| y w 5 w w e l ` l : . . . . .                                     ",
"                                          + + w x _ u + O O O . O + & + O . . . . . X                                   ",
"                                        O i (  .3...j . . . . . . . . X + # # # # % @ O .                               ",
"                                      + * ` A.G.F.u./ O .     . . . . o = 3 3 5 r 3 3 @ . . X X O O . . .               ",
"                                    > ( ..u.G.a.+.x u                 O + @ : 5 5 5 5 - ; - q q q > + O .               ",
"                                  . w ..H.H.P.8.j O                     . O * 3 q 5 5 5 5 t k l l h : . .               ",
"                                  . w 3.I.I.I.8.u .                         O @ = 3 5 5 3 t s g k k > . .               ",
"                                  . : { u.A.p.X.w .                           . + = 3 3 3 3 3 5 t i ; . .               ",
"                                  . O > i i i > % .                             O O o + + X o + % + O . .               ",
"                                  . . . . . . . . .                               . . . . . . . . . . . .               "
};
