/* XPM */
static char *SkeletonWithSwordRightJump__1_1705858610[] = {
/* columns rows colors chars-per-pixel */
"60 70 193 2 ",
"   c None",
".  c #010101",
"X  c #090705",
"o  c #0A0806",
"O  c #070708",
"+  c #0B0B0B",
"@  c #070808",
"#  c #1A0706",
"$  c #120E0B",
"%  c #170907",
"&  c #14110D",
"*  c #1C140C",
"=  c #0F1011",
"-  c #131313",
";  c #191613",
":  c #1D1815",
">  c #161718",
",  c #161819",
"<  c #1A1C1D",
"1  c #0F0F10",
"2  c #231B12",
"3  c #2A1E12",
"4  c #221D1A",
"5  c #2D140E",
"6  c #2C2014",
"7  c #26211D",
"8  c #29221D",
"9  c #322516",
"0  c #30261C",
"q  c #35291C",
"w  c #3C2C1A",
"e  c #1E1F20",
"r  c #1E2121",
"t  c #222424",
"y  c #2C2621",
"u  c #252728",
"i  c #25292A",
"p  c #2A2B2C",
"a  c #2C2927",
"s  c #342B22",
"d  c #392E23",
"f  c #312E2D",
"g  c #3C3124",
"h  c #3B332C",
"j  c #33312F",
"k  c #2C2F30",
"l  c #2E3233",
"z  c #323435",
"x  c #333738",
"c  c #34393A",
"v  c #393B3D",
"b  c #3E3833",
"n  c #4A1411",
"m  c #771F1C",
"M  c #43311E",
"N  c #4E201E",
"B  c #7C211D",
"V  c #423325",
"C  c #493621",
"Z  c #4C3925",
"A  c #44392D",
"S  c #4E3C29",
"D  c #40352A",
"F  c #533D26",
"G  c #523E28",
"H  c #453B33",
"J  c #5E2927",
"K  c #7D2420",
"L  c #7E3532",
"P  c #5C452A",
"I  c #574129",
"U  c #494137",
"Y  c #5A4936",
"T  c #60472B",
"R  c #63492C",
"E  c #684E31",
"W  c #62503C",
"Q  c #6A553C",
"!  c #775939",
"~  c #73413F",
"^  c #3A3F41",
"/  c #3D4445",
"(  c #434445",
")  c #444749",
"_  c #444B4C",
"`  c #4C4C4D",
"'  c #4B4743",
"]  c #534B44",
"[  c #55534C",
"{  c #494E51",
"}  c #474F51",
"|  c #4B5254",
" . c #4D5658",
".. c #525454",
"X. c #525659",
"o. c #545A5C",
"O. c #5B5B58",
"+. c #645543",
"@. c #715F47",
"#. c #615B52",
"$. c #635C5A",
"%. c #765655",
"&. c #786248",
"*. c #6E685B",
"=. c #766855",
"-. c #7D715E",
";. c #595E61",
":. c #555E60",
">. c #566162",
",. c #5B6365",
"<. c #5C6769",
"1. c #5E696A",
"2. c #626362",
"3. c #616569",
"4. c #636A6D",
"5. c #6C6965",
"6. c #716D69",
"7. c #777367",
"8. c #656F71",
"9. c #696F71",
"0. c #667273",
"q. c #6A7275",
"w. c #6C7779",
"e. c #6D7A7C",
"r. c #717C7D",
"t. c #797A75",
"y. c #83231F",
"u. c #892520",
"i. c #942823",
"p. c #873A36",
"a. c #973C38",
"s. c #8B332F",
"d. c #97413D",
"f. c #804947",
"g. c #81504F",
"h. c #865C5B",
"j. c #A44944",
"k. c #A55753",
"l. c #836748",
"z. c #826D53",
"x. c #84735C",
"c. c #90605F",
"v. c #886565",
"b. c #837A6A",
"n. c #857D7F",
"m. c #837775",
"M. c #987574",
"N. c #966C6B",
"B. c #A47C7A",
"V. c #7F827B",
"C. c #84847C",
"Z. c #878476",
"A. c #727F81",
"S. c #758385",
"D. c #798386",
"F. c #7A8689",
"G. c #7C8A8C",
"H. c #7F8D90",
"J. c #8D8E82",
"K. c #868B8A",
"L. c #9B8C8B",
"P. c #86908F",
"I. c #818E91",
"U. c #839294",
"Y. c #869598",
"T. c #8A9A9C",
"R. c #8A9295",
"E. c #909294",
"W. c #B4908E",
"Q. c #8E9FA1",
"!. c #909FA2",
"~. c #8FA1A2",
"^. c #92A3A5",
"/. c #97A9AB",
"(. c #9AABAD",
"). c #96A5A7",
"_. c #9BAFB0",
"`. c #9DB0B2",
"'. c #A6A8A8",
"]. c #A2B4B5",
"[. c #A6BBBC",
"{. c #A7B8B9",
"}. c #A2B1AE",
"|. c #AABFC0",
" X c #ACC2C3",
".X c #B4CBCC",
"XX c #B5C6C7",
"oX c #BBD2D3",
"OX c #B8CFD0",
"+X c #C4DCDC",
"@X c #CCD9D9",
"#X c #C9E1E2",
"$X c #D4EDED",
/* pixels */
"                                              . . . . . . . .                                                           ",
"                                              + + + + + @ . .                                                           ",
"                                            = l / / / / i + . .                                                         ",
"                                          . - / 0.A.A.e._ > . . . . . . . . .                                           ",
"                                        > r l o.G.U.I.D.{ < @ r x c c c x x l u                                         ",
"                                      . k _ ,.e.H.H.S.q./ > < | G.U.P.U.U.U.e./ .                                       ",
"                                    . O x 8.Y.Y.Y.F.w.;.x - k F.#X$X$X$X$X$X_.| . .                                     ",
"                                  , p c  .A.U.J.C.6...v ( ) <.Q.oX+X+X+X+X+X~.} . .                                     ",
"                                . < _ 0.S.G.P.Z.x.+.h < _ A.^.]..X.X.X.X.X.XY./ . .                                     ",
"                              $ & p >.U.U.P.C.-.! P h u ,.^. X X X X[.[.[.[.U.| > ,                                     ",
"                            X 6 M W 6.U.J.Z.-.[ h U ..0.H.`. X X X[.`._././.U.9.| c <                                   ",
"                          . X q E &.V.Y.C.x.! C & z e.`.[. X X|. X`.^.T.T.T.R.I.F. .< .                                 ",
"                        < i l ] =.7.Z.S.0.+.P U ^ >.H. XXX.XOXOXoX[.).Y.T.^.).).~.>.r .                                 ",
"      . . . .         . u _ 4.e.V.V.V.0.[ h s ..V.Y.`. X.XoX#X#X#X.X/.T.^.}.}.{.`.1.u .                                 ",
"      . . @ @ @     $ = z 3.P.P.P.V.0.:./ t i 1._. X X X@X@X@X@X@XXX(.T.).{.{.'.].4.t .                                 ",
"      . + < l u - - l / ..5.b.b.7.*.] x / } 1.H.`.[.]._.'.W.W.W.L.L.E.E.L.Z.B.B.N.] : .                                 ",
"      . - z X.c > > ) w.t.-.l.&.! R d $ / V./.`. X]./.T.M.k.j.a.p.c.n.K.N.j.a.p.p.N % .                                 ",
"      . > v ,.) p i ..t.b.z.d.E P M 6 . ^ 0.H.H.H.U.Y.U.N.a.i.u.y.f.m.K.c.a.i.u.m n # .                                 ",
"      . - ^ ,.X.) ' #.x.z.&.! C 9 2 *   i / / / / :.r.I.v.s.u.u.y.f.m.K.c.s.u.y.m n # .                                 ",
"      . > ^ ;.3.3.2.&.g.! ! R M * .       . . @ . u ;.I.6.p.K K B f.m.H.%.s.K B m n # .                                 ",
"      . $ t c _ ;.;.#.+.Y G M 3 $         . . . . > c o.#.%.g.%.g.%.%.3.%.%.+.J n 5 #                                   ",
"      . O + - z ..;...' h 4 % %           . . . . O - t ' 6.n.n.n.3.` ( $.t.%.D # #                       . . . .       ",
"    1 1 - > e p ( { ( ^ k < + +           . . @ O O . O ^ w.Y.Y.R.A.{ ( ,.G.8.l . .                     > > > - = +     ",
". O t z ^ _  .^ z p z v z p e > +         . . - e < + O ^ w.Y.Y.R.A.9.3.r.H.8.x . .                   < / | _ ^ z t O . ",
". O k { 4.A.I.;.t + e x ^ c z e + .       . O < z u - O ^ w.Y.Y.Y.Y.R.I.R.Y.4.^ . .                 . t o.I.r.4.{ k O . ",
". O k X.4.w.A.;.c t u u u u t > @ .       . O - t t < > x | 4.w.A.A.F.A.A.;.^ e . .               > t x ;.F.w.4.X.k O . ",
". O k ..3.9.q.,...^ p - = - 1 + . .       . . X 1 > 4 p i p x | A.q.q.4.{ l e 1 . .       . . . + u ^ ..;.q.4.3...k O . ",
". O p _ X.o.o.;.3.;.x - + - - + O .       . . . X ; a c t 1 > x X.X.X.{ k 1 O O o o     - - = = - x ;.3.;.o.o.o.{ p O . ",
". O e k l z l { 4.9.X.^ ^ _ X.l = . . . . . X * 6 q h h p t e p z z z f u 4 2 3 9 2 o < / o.{ ^ c  .q.3.} l z z k e O . ",
"    + + + + + ^ 8.F.9.;.8.I.Q.:.< . . . . . X 6 Z F Z h h z k < + + + 1 4 y V Z I q % r <.^.I.8.;.q.G.8.v + + + + +     ",
"      . . . . l :.8.8.8.A.!.(.A.) k r < ; ; 2 M P P G Z A b j 4 % 1 1 & 0 C F G P w & r <./.Q.F.8.8.8. .l . . . .       ",
"              r p ^ :.A.U.!.!.Y.S.0.o./ b D M F P T P I G A h s 6 8 3 0 M G F R P w & < o.T.T.I.A.;.^ k r               ",
"                . > _ S.U.H.U.^.{._.I.3.#.W R E R P R R I Z V D V V D V G T R T T q * < | F.U.H.S._ - .                 ",
"                  = c |  . .:.e.Q.!.A.3.#.W T M w C F R P G S S S G S S P T P C q s a f /  . . .| x -                   ",
"                    > < < e u  .F.U.r.3.#.W I w * 3 C R P P P P P P P P T R Z 6 & p ( ) l e < < e >                     ",
"                      . . . @ v <.8.>. .U I M 3 X * M R R R E Q @.@.&.@.Q E M 2 . r ^ ( u O . . .                       ",
"                              i c c z p y 8 2 & . * M R R R Q -.C.J.J.C.=.Q Z 2 . = t u <                               ",
"                                O . O . . . . . . * M R R T @.J.|.|. X}.Z.Q M 2 . . . .                                 ",
"                                . . . . . . X $ * 9 C R P P W 6.P.P.P.C.*.Y M 2 . . . .                                 ",
"                                        . . X 2 M F I R P F U ] >.O.O.[ Y S q * . .                                     ",
"                                          . X 9 F T T P G Z h b b H U U A V 9 & . .                                     ",
"                                          . X 3 Z G G G Z V V D H ' [ O.] A 0 & . .                                     ",
"                                          . X 2 V V V V V V V V h ..q.V.$.U 8 * . .                                     ",
"                                          . X : s d V V V V h V g Y 2.8.[ A 8 & . .                                     ",
"                                          . X ; y s d V g V g V V U U ) b f 2 $ . .                                     ",
"                                          . . $ 4 s d V V V V V g q 0 7 7 7 : + . .                                     ",
"                                          . O ; 4 y g V g g s s d 8 : - & & & + .                                       ",
"                                          . . $ 4 s s g d y 0 8 0 : & @ @ O @                                           ",
"                                          . . ; 4 y d d 0 7 : < 4 ; - + O . .                                           ",
"                                          . . - 4 y y s 7 ; $ $ $ ; < 4 = O .                                           ",
"                                          . . & 4 y 8 4 ; X . . . - i z < O .                                           ",
"                                            O $ ; ; : : p ^ / / / | ,.>.x + .                                           ",
"                                              O O O + + / w.U.H.U.Y.Q.H.} - .                                           ",
"                                              . . . 1 ,  .U._.`.`.`.`.~.<.p <                                           ",
"                                            . . . - l } >.0.r.r.r.e.e.e.0.<. .l .                                       ",
"                                          . . . . u o.F.4. .) ) ) ) )  .r.~.S./ . .                                     ",
"                                        . . . . . e / <.{ z i i i p i x >.I.q.x . .                                     ",
"                                      . . . . . . + r p t < - - - - - < v o._ t . .                                     ",
"                                    . . . . . . . . . . . . . . . . . O r v z < + @                                     ",
"                                  O $ $ $ $ ; $ $ + O . . . . . . . . + l X.o.{ / l >                                   ",
"                . . . . . . . . . O ; 4 4 : 4 4 4 ; + . . . . .     . + / w.S.S.e.} e .                                 ",
"                . . X + + 1 + + O $ ; 4 t y 7 4 4 ; + . . . .       . = ^ <.e.F.U.<.x r >                               ",
"                . O ; e t t t < > : 4 7 8 8 4 : & + X                   i x  .w.U.A.<.} l +                             ",
"                . O e x v v v j y y 7 y 4 y 4 ; . .                       . u >.Y.Y.Y.e./ @ .                           ",
"                . O e c c x j f y y 7 y 4 : - $ .                         . u >.U.Y.Y.e./ @ .                           ",
"                . O < x x d a y 7 7 7 7 : & + X                           . i >.Y.Y.Y.e./ @ .                           ",
"                . O < p f t 4 4 4 4 4 4 ; X .                             . r } A.S.S.<.x @ .                           ",
"                . O + < > ; $ $ & & 1 1 + X                               . = p / / / c e . .                           ",
"                . . . . O . . . . X . . O                                 . . O + + + @ O . .                           ",
"                . . . . . . . . . . . . .                                 . . . . . . . . . .                           "
};
