/* XPM */
static char *SkeletonWithSwordDownIdle__1_1705858255[] = {
/* columns rows colors chars-per-pixel */
"60 60 192 2 ",
"   c None",
".  c #010101",
"X  c #080605",
"o  c #0B0907",
"O  c #0B0C0C",
"+  c #070809",
"@  c #110D0A",
"#  c #100C07",
"$  c #0F100F",
"%  c #15120F",
"&  c #1C150D",
"*  c #0E0F10",
"=  c #0F1010",
"-  c #121414",
";  c #1B1613",
":  c #1C1815",
">  c #161919",
",  c #1A1C1C",
"<  c #151718",
"1  c #22190E",
"2  c #221A12",
"3  c #2A1F13",
"4  c #221D19",
"5  c #2F2215",
"6  c #26201B",
"7  c #2C241D",
"8  c #312415",
"9  c #31261C",
"0  c #31281F",
"q  c #3D2D1C",
"w  c #1D1F20",
"e  c #1E2122",
"r  c #222424",
"t  c #2D2622",
"y  c #242728",
"u  c #262A2A",
"i  c #292D2E",
"p  c #352A22",
"a  c #3A2E22",
"s  c #302F2D",
"d  c #3D3123",
"f  c #35322D",
"g  c #2D2F30",
"h  c #2E3133",
"j  c #313536",
"k  c #343739",
"l  c #353A3C",
"z  c #3A3B3D",
"x  c #393735",
"c  c #44321E",
"v  c #4B351F",
"b  c #423324",
"n  c #493723",
"m  c #4D3A26",
"M  c #423628",
"N  c #44392D",
"B  c #4D3B29",
"V  c #553E25",
"C  c #533E28",
"Z  c #463E37",
"A  c #7E2A26",
"S  c #7E2E2A",
"D  c #7E3431",
"F  c #574027",
"G  c #54412B",
"H  c #5C442A",
"J  c #4B4135",
"K  c #46443D",
"L  c #5C4A37",
"P  c #61472B",
"I  c #62492E",
"U  c #6B4D2D",
"Y  c #634D32",
"T  c #675238",
"R  c #765838",
"E  c #3A3F40",
"W  c #3C4243",
"Q  c #424546",
"!  c #434749",
"~  c #454A4C",
"^  c #4B4C4D",
"/  c #4B4640",
"(  c #524C43",
")  c #5A554A",
"_  c #5D5342",
"`  c #4B4F52",
"'  c #474F50",
"]  c #4B5254",
"[  c #4F585A",
"{  c #525554",
"}  c #525659",
"|  c #535B5D",
" . c #5C5D5D",
".. c #5D5C55",
"X. c #6B5E4C",
"o. c #665846",
"O. c #775E43",
"+. c #6C5C5C",
"@. c #635A54",
"#. c #7D5A59",
"$. c #7A5756",
"%. c #786249",
"&. c #666359",
"*. c #796A55",
"=. c #7A6F5B",
"-. c #77705F",
";. c #555E61",
":. c #595E61",
">. c #576163",
",. c #5A6365",
"<. c #5D6769",
"1. c #5F6A6C",
"2. c #636664",
"3. c #626A6D",
"4. c #656969",
"5. c #7C7565",
"6. c #79756A",
"7. c #666D70",
"8. c #686E72",
"9. c #697275",
"0. c #6C7679",
"q. c #6D797B",
"w. c #677174",
"e. c #727B7D",
"r. c #7B7D7D",
"t. c #757878",
"y. c #706C62",
"u. c #85231F",
"i. c #892B27",
"p. c #962F2A",
"a. c #813632",
"s. c #963A35",
"d. c #8C322E",
"f. c #A0423D",
"g. c #815857",
"h. c #825C5C",
"j. c #8B5C5B",
"k. c #995955",
"l. c #816749",
"z. c #82735E",
"x. c #816F58",
"c. c #956563",
"v. c #847866",
"b. c #887976",
"n. c #997674",
"m. c #8F6E6D",
"M. c #A56562",
"N. c #AC7774",
"B. c #7B817D",
"V. c #83857F",
"C. c #737F81",
"Z. c #768385",
"A. c #7B8385",
"S. c #778788",
"D. c #7A8689",
"F. c #7D8A8D",
"G. c #7F8D90",
"H. c #848586",
"J. c #858689",
"K. c #858C8C",
"L. c #868881",
"P. c #88928F",
"I. c #818E92",
"U. c #888E91",
"Y. c #849395",
"T. c #869598",
"R. c #8B9B9C",
"E. c #899597",
"W. c #919D9D",
"Q. c #979B97",
"!. c #B09694",
"~. c #99A39D",
"^. c #A4A09F",
"/. c #8D9EA0",
"(. c #92A3A6",
"). c #95A7A9",
"_. c #99A8A9",
"`. c #9CAEB0",
"'. c #9FB2B3",
"]. c #A5ACAC",
"[. c #A7A0A0",
"{. c #A1B5B6",
"}. c #A8B9BA",
"|. c #BABBBB",
" X c #ADC3C4",
".X c #B6CDCD",
"XX c #B4C6C6",
"oX c #BCD3D3",
"OX c #C5C2C1",
"+X c #C0D7D7",
"@X c #C5DCDC",
"#X c #CAE1E1",
/* pixels */
"                                                                . . . . . . . . . . . . . . . .                         ",
"                                                                e e u i u i u u u u u u u u u e                         ",
"                                                              < [ G.T.T.T.T.T.Y.T.T.Y.Y.T.T.F.[ >                       ",
"                                                            , j C. X@X@X@X@X@X@X@X@X@X@X@XoX X0.i =                     ",
"                                                          l ,.S.)..X+X+X+X@X+X+X+X+X+XoXoXXX'.S.[ W e                   ",
"                                                        X W T.oX.XXXXXXX X X X X X X X X{.).R.Y.S.,.i .                 ",
"                                                      . + W R.oX.X X X X X X X}.{.`.`.`.).R.T.T.T.1.i .                 ",
"                                                      . . l F. X X X X X X X X{.)./.R.R.R.R.T.T.G.<.g .                 ",
"                                                      . . l S. XXX.XoXoX.X X{.`./.T.R.(.(.(.(.R.T.<.i .                 ",
"                                                      . . l S. XoX#X#X#X+X X).R.R.R.(.'.{.{.`.(.R.<.i .                 ",
"                                                      . . l S. XOXOXOXOX|.].R.T.T.T.W.^.[.[.[.W.Y.1.i .                 ",
"                                                      . . l A.{.!.N.M.c.c.b.U.T.T.U.m.j.k.k.M.n.P.<.g .                 ",
"                                                      . . l S.].N.f.p.i.a.h.J.T.T.J.h.D i.p.s.c.H.<.i .                 ",
"                                                        X l S.].n.s.u.u.i.h.J.T.T.J.h.A u.u.d.j.H.<.g .                 ",
"                                                        . l B.(.m.a.A A D #.r.J.I.r.#.D A A D #.r.>.i .                 ",
"                                                          i ' ,.+.#.#.#.#.+.:.:.:.:.+.#.g.g.$.@.' E e                   ",
"                                                            < y ` t.J.H.r. .Z z x Z :.C.J.H.t.^ e =                     ",
"                                                            . $ E 9.D.U.I.8.{ ` ^ { 8.U.U.D.9.E O .                     ",
". . . . . . X                                               . O k :.q.D.U.G.C.C.C.Z.D.U.D.0.:.k O .                     ",
". X = e y y e ,                                             . + r W | 0.D.D.F.D.F.D.F.D.9.:.W r + .                     ",
". O j >.1.1.,.E = .                                         . . O < j } 8.9.9.9.8.9.9.8.} j < O X .                     ",
". O W 0.F.F.S.[ i ,                                         @ @ @ @ r l ^ ' ] ] ` ` ` ` E w @ @ @ #                     ",
". * l 3.Z.F.G.0.<.W y .                                 . & 8 q 9 5 6 r r r e e r r r r r 4 5 9 q 5 & .                 ",
". O g ] 3.B.I.Y.Y.1.j $ O                               . & c H m n 9 % X o + + + X X X % 9 n C F c & .                 ",
"  + r i / &.v.L.Y.Z.>.~ h $                           . . & c P H F d 9 2 2 2 2 2 2 : : 8 d G G P c & .                 ",
"    + O 7 L *.v.L.P.D.q.~ < o                         . . & B Y I G F d d d a a d d q a n G F Y Y B : .                 ",
"      . 2 q G X.v.V.K.F...b 5 &                         . 7 ) -.T M q F F F G F F n G F n d d T -._ t .                 ",
"          # & B %.z.V.K.5.%.G 3 .                     . . j q.R.| , 2 c G H F H H H H H v 1 4 | R.q.j .                 ",
"            o 9 V o.8.B.6.v.X.J g e                   g l | S.G.] - & c Y O.*.=.-.*.O.I c & - ] G.Z.;.l g               ",
"              & 2 f { 8.r.V.B.0.<.W - .       . . . < ] S.G.Z.3.l $ & c T -.Q.~.~.Q.-.T c & % z 3.Z.F.Z.] < .           ",
"                . , l ] 2.B.V.V.t.] g e     - < $ + - ] T.F.1.Q f 2 8 n T 5.P././.P.5.T m 5 & s ! 3.F.Y.] - .           ",
"                  - , t J X.*.x.z.-.<.' y O y z g < $ E w.,.E 6 0 q v H Y ) 2.<.&...T Y H v d 0 r z ,.w.W $ .           ",
"                    . o 8 V U R l.v.L.,.j > k } Q w * j :.! e o 8 F I P H Z Z x Z Z G H I H F 8 o r ! :.l < O           ",
"                        1 3 v P R %.z.*.( E ` :.Q w * E 7.[ y + 8 F H F B N N / ..&.) G F H F 8 o y | 9.:.W g < .       ",
"                          X 1 v P R O.$.+.| | } W y w ' C.>.g o 5 V F B b b M ( 4.t...J B F G 5 o g ,.G.q.,.Q w .       ",
"                            & 5 c B L o. .:.^ l l E ' 7.F.<.g o 6 n m M M b b Z ..@.( N b B n 3 + i <.I.D.C.} r .       ",
"                              o @ 6 z Q } } j < g >.D.G.G.,.u + 2 q b b b b b M N N M b b b a 2 + i ,.I.Y.I.:.g X .     ",
"                            # - , y k E z z h i ! 9.G.q.,.E , X ; 0 a d d M b a a p p p p a 0 ; + , E ,.q.G.9.! y >     ",
"                          . = r s h k g w , g ~ ,.C.Z.| u < + + % 6 p a b d M a p t t t t t 4 % + + - g [ Z.C.:.~ g O . ",
"                          . O , i i u w @ + r E ;.9.9.W * . . . @ ; 4 t a a a t 4 : ; : : : ; @ . . . * E q.C.7.} g O . ",
"                        . . X + O - O + X . O < j } ,.l O .     X X - 4 t t t 4 % o + + + o o X     . O l <.8.3.| h + . ",
"                          . . . . . . . . . . . , k Q y + .     . . X ; 4 4 4 : : < O X . . .       . + i ~ ` ` ~ i O . ",
"                                            . . + , e - X .       . . o o @ O r W ] g O . . .           : r r r r >     ",
"                                              . . . . . . .     . . + O - = O g :.9.W e O X .             + . + X       ",
"                                                                  . < j W l y j ` ,.| ' j < .                           ",
"                                                                . X i >.C.:.E k l ! ,.C.>.i X X                         ",
"                                                                , i ~ 0.D.| g r r g | S.9.~ u ,                         ",
"                                                            . + i ~ <.q.C.~ > O + , ' C.C.,.~ i + .                     ",
"                                                            . + i ` | :.| l = . . * E ;.;.;.` u o .                     ",
"                                                            . + w z k i w >         > w i j l r + .                     ",
"                                                            . + y Q k , . .         . . < j ! y + .                     ",
"                                                            . * l 3.' r .             . y ] <.l * .                     ",
"                                                            < e ] Z.<.i .           . . u ,.Z.] e <                     ",
"                                                        X e W ;.w.G.<.i .           . . i <.F.0.>.W y .                 ",
"                                                        X u >.F.G.G.<.i X           . . i 1.G.Y.F.>.i .                 ",
"                                                      . X i <.Y.T.T.<.i .           . . i 1.Y.T.Y.<.i .                 ",
"                                                      . . u >.G.G.F.>.u .           . . u >.G.G.F.>.u X                 ",
"                                                      . . , W | >.;.W w .           . . , W | ;.| W , .                 ",
"                                                      . . X - < > > = + .           . . X = < , < = + .                 ",
"                                                      . . . . . . . . . .           . . . . . . . . . .                 "
};
