/* XPM */
static char *SkeletonWithSwordUpIdle__1_1705857958[] = {
/* columns rows colors chars-per-pixel */
"60 60 155 2 ",
"   c None",
".  c #010101",
"X  c #080705",
"o  c #0B0906",
"O  c #070708",
"+  c #0B0B0B",
"@  c #110C06",
"#  c #120E0A",
"$  c #17110B",
"%  c #1A140D",
"&  c #0F0F10",
"*  c #0F1011",
"=  c #131314",
"-  c #1B1612",
";  c #1E1914",
":  c #151718",
">  c #161819",
",  c #1B1D1D",
"<  c #20170E",
"1  c #24190F",
"2  c #241B13",
"3  c #291F14",
"4  c #241F1B",
"5  c #2C2116",
"6  c #26201C",
"7  c #29221E",
"8  c #342616",
"9  c #3A2917",
"0  c #342719",
"q  c #372A1E",
"w  c #3C2C1C",
"e  c #1D1F20",
"r  c #1E2122",
"t  c #232426",
"y  c #2F2921",
"u  c #252728",
"i  c #26292A",
"p  c #2A2C2C",
"a  c #342A21",
"s  c #3A2F22",
"d  c #3E3123",
"f  c #3A342C",
"g  c #2D2F30",
"h  c #2D3133",
"j  c #323435",
"k  c #343739",
"l  c #34393B",
"z  c #393B3D",
"x  c #412F1D",
"c  c #44321E",
"v  c #423324",
"b  c #483420",
"n  c #4C3A26",
"m  c #543E26",
"M  c #513D28",
"N  c #564129",
"B  c #5C442A",
"V  c #45433D",
"C  c #50483D",
"Z  c #5D4C38",
"A  c #544435",
"S  c #604427",
"D  c #60472B",
"F  c #63492C",
"G  c #634C33",
"H  c #62503B",
"J  c #715332",
"K  c #7A5B3C",
"L  c #7F603F",
"P  c #3B3F41",
"I  c #3E4344",
"U  c #3F4648",
"Y  c #424446",
"T  c #434649",
"R  c #454B4D",
"E  c #494C4F",
"W  c #5C5244",
"Q  c #56524C",
"!  c #474F51",
"~  c #4A4E51",
"^  c #4B5254",
"/  c #4E5759",
"(  c #4F585A",
")  c #515456",
"_  c #5E5B57",
"`  c #53565A",
"'  c #545B5D",
"]  c #5A5E5E",
"[  c #695640",
"{  c #5D615E",
"}  c #776148",
"|  c #7E6345",
" . c #6A6157",
".. c #6F6659",
"X. c #746551",
"o. c #786751",
"O. c #7E6D57",
"+. c #756B5B",
"@. c #555F61",
"#. c #5A5E62",
"$. c #5C6266",
"%. c #5D6668",
"&. c #5E696A",
"*. c #616569",
"=. c #636A6D",
"-. c #696E6B",
";. c #626562",
":. c #756D60",
">. c #757268",
",. c #646E71",
"<. c #667274",
"1. c #6A7376",
"2. c #6C7679",
"3. c #6D797B",
"4. c #717674",
"5. c #717B7D",
"6. c #7B7F7B",
"7. c #826F58",
"8. c #816D54",
"9. c #82715B",
"0. c #827766",
"q. c #827E73",
"w. c #7E817D",
"e. c #83847C",
"r. c #727E81",
"t. c #768386",
"y. c #788787",
"u. c #7A8689",
"i. c #7D8A8D",
"p. c #7F8D90",
"a. c #828680",
"s. c #868B87",
"d. c #818F8E",
"f. c #818E92",
"g. c #849396",
"h. c #869598",
"j. c #8B9B9D",
"k. c #8E9FA1",
"l. c #97A9AB",
"z. c #9AACAE",
"x. c #92A3A5",
"c. c #9CAFB1",
"v. c #9DB1B2",
"b. c #A2B6B7",
"n. c #A5BABB",
"m. c #A8BDBE",
"M. c #AABFC1",
"N. c #ACC2C3",
"B. c #B6CBCC",
"V. c #B8CDCE",
"C. c #B9CFD0",
"Z. c #BDD5D5",
"A. c #C0D7D7",
"S. c #C0D7D8",
"D. c #C1D9D9",
/* pixels */
"                                                                                                                        ",
"                                                                                                                        ",
"                              . . . . . . . . . . . . .                                                                 ",
"                            e r r r r r r r r r r r r r e                                                               ",
"                          , { i.p.d.d.g.p.d.d.d.d.p.p.p.&.p                                                             ",
"                        e l y.C.D.D.D.D.D.D.D.D.D.Z.Z.C.i.I >                                                           ",
"                      k %.y.v.C.Z.D.D.D.D.D.A.Z.Z.Z.B.m.g.&.U i .                                                       ",
"                    X U j.Z.C.N.N.N.N.N.N.N.N.N.N.m.z.j.g.p.,.k . .                                                     ",
"                    . I h.Z.B.N.N.N.M.N.M.b.c.c.z.l.k.g.h.g.1.l . .                                                     ",
"                    . l i.N.N.M.M.M.M.M.M.c.k.j.j.j.j.h.h.g.<.l . .                                                     ",
"                    . l y.n.n.c.c.c.c.c.c.x.h.h.g.h.h.h.j.p.<.l . .                                                     ",
"                    . l t.n.l.k.k.j.k.j.k.h.h.h.h.h.h.g.h.p.<.l . .                                                     ",
"                    . h <.k.j.h.g.g.h.g.h.g.h.h.h.h.h.h.p.y.&.h . .                                                     ",
"                    . t ^ 3.u.g.h.h.h.h.h.h.h.h.h.h.h.g.y.2./ p . .                                                     ",
"                    . e Y *.3.u.p.g.h.h.h.h.h.h.g.g.f.i.5.=.E u . .                                                     ",
"                    . e Y $.=.1.r.p.g.g.g.h.g.h.g.f.r.1.=.*.R u . .                                                     ",
"                    . : l ~ ' $.,.3.r.i.i.i.i.u.u.r.1.*.` ) z , . .                                                     ",
"                    . O > i Y ] #.@.#.=.1.4.1.=.#.` #.*.E g : & . .                                                     ",
"                    . . . # j ` ~ Y Y ` #.*.*.` E Y E ` P = O . .                                                       ",
"                      . . + i T Y P Y ) $.*.$.` T P Y T g = . .                                             . . . . . . ",
"                        . O e h z z Y ) $.$.$.` T z l k e + .                                             * * * * O . . ",
"                        . . + , u j Y ) $.*.*.` T l p , & O .                                         . u I ! ! R i O . ",
"                        X X o + ; p P E #.` ` ~ V g , + X X X                                       + * P ,.u.y.3.U = . ",
"                      $ 1 3 5 % 2 e t p j j k g u e 2 - 2 3 3 $                                   * h U $.t.f.u.3.U * . ",
"                    . % c N b d 5 + O O O O O O X o 2 s b M b 2 .                               . > R t.i.g.i.3.#.k & . ",
"                    . % c B B M q 2 % % - % % % - < q M m D n 2 . .                           , h R =.g.s.e.>.Q z i + . ",
"                    X % c B D B n v a s q q a q a s n m S D n 1 . .                         O p ' 5.i.d.e.9.[ f = +     ",
"                    . $ w B B F B M n n n n n M n M m F D m c 1 . .                       1 5 V <.g.s.e.+.H b 5 .       ",
"                    O $ 0 n N D B B B B B B B B B B D F N n q - . .                     o w B X.6.d.q.8.Z q % $         ",
"                  r h h y q n D F F F F F F F F F F F D M w q p h u                   r u C o.0.w.6.X.G c % .           ",
"                + U w.&.h ; w B F F F F F F F F F F F D c 2 i ] y.( > . . .       . , R <.5.e.w.4.*.V 4 %               ",
"              . * U p.2.h @ 9 B F F F F F F F F F F F D w $ u *.j.' > O & = *   > r k { a.a.w.4.] T i o                 ",
"              . O l ,.' u + 8 B F F F F F D D D D D F D w $ , ^ 2.T = = g l u O g / ;.:.7.o.} W f r :                   ",
"              & : z #.! e @ 8 B F F F F F D B B B D D D x $ - Y %.z & , Y ~ j : z -.q.7.8.J S c 1 O                     ",
"            = p P ' 1.' u @ 9 B D F F F D N M M M M B B w $ e ~ 2.U = e Y #.~ P Q +.7.| J m 9 1 #                       ",
"          . : P *.r.i.&.g @ 8 N D D D B D M n v v v M B w # e ' u./ e t Y #.#.$. .} K J S 9 @ .                         ",
"          . > ! r.i.p.&.i + 3 n M M M M M n v d v v n n 0 # e @.p.2.( U k j R #._ W A v 8 1 @                           ",
"          O u @.p.p.u.@.i O 2 s v v v v d v v v v v v v 3 + e / u.u.y.$.h e l ` ~ Y j 4 @ o                             ",
"        , i Y ,.p.2.` k : X ; a a a a a a s v v v d f a 2 o = g ! ,.i.2.! g h h k z j u , = X                           ",
"      . t T $.5.i./ t + . X = 4 y 4 t 6 y a s v d d a 4 : O . + > ! r.r.&.R g & 4 g j j g , O .                         ",
"    . X t ~ =.2.2.U & . . O + = = - = - - 4 a a a a 4 - # O . . O l ,.=.^ j , . o , t t t = O .                         ",
"    . . u E $.*.$.l & .     X . . O . X X = 4 7 y 4 $ X O     . O g ` ~ u + O . . . O O X . . .                         ",
"      . e k P I P u +       . . . . O r p t ; - = = + . .     . . e k p = . . . . . . . . . .                           ",
"        & = : : : =         . . . . , U =.I > + + o . . .     . . O = & O . .                                           ",
"          . . . .           . . & r l ' 1.T e > e r = . .       . . . . . .                                             ",
"                            . . i ^ &.' ^ I j P ` ' h O .                                                               ",
"                            + : I 3.r.^ j g h ! 2.t.R , =                                                               ",
"                          + p I $.t.3.I = = = k ,.i.&.T h = .                                                           ",
"                        . + g ` %.<.$.h O . O i ' 2.&.' k = .                                                           ",
"                        . + i T U P h t       e h l U T g = .                                                           ",
"                        . + u P g = O           O * u I p & .                                                           ",
"                        . + l $.I : .           . * k $.I = .                                                           ",
"                        O e ^ y.( r .           . = ! t.@.r *                                                           ",
"                      r l ! <.p.' r .           . : ! i.2./ I r                                                         ",
"                    . i $.t.p.p.' r .           . : ! p.p.y.&.j .                                                       ",
"                    O i &.p.h.p.@.r .           . : ! p.h.p.1.l . .                                                     ",
"                    . p &.p.g.p.( r .           . = ! i.g.p.<.l . .                                                     ",
"                    . , U $.$.$.I * .           . + h $.$.$.! r . .                                                     ",
"                    . O = , , , * O .           . . * , , , > O . .                                                     ",
"                    . . . . . . . . .           . . . . . . . . . .                                                     "
};
