/* XPM */
static char *GoblinRightIdle1705741685[] = {
/* columns rows colors chars-per-pixel */
"62 60 194 2 ",
"   c None",
".  c #010101",
"X  c #090704",
"o  c #060806",
"O  c #0C0A06",
"+  c #060B09",
"@  c #0A0D0A",
"#  c #100C07",
"$  c #120E09",
"%  c #1D0807",
"&  c #0C120E",
"*  c #15120C",
"=  c #1B150D",
"-  c #1C180F",
";  c #0D1511",
":  c #0F1914",
">  c #141611",
",  c #1B1711",
"<  c #121B15",
"1  c #1C1A12",
"2  c #131E19",
"3  c #1B1F1A",
"4  c #330E0C",
"5  c #21180F",
"6  c #30100E",
"7  c #231B12",
"8  c #291E13",
"9  c #231F1A",
"0  c #351713",
"q  c #311B17",
"w  c #280B09",
"e  c #15231D",
"r  c #1A241B",
"t  c #1C291E",
"y  c #192017",
"u  c #242115",
"i  c #2C2215",
"p  c #24261C",
"a  c #2B2319",
"s  c #2B291C",
"d  c #242C1F",
"f  c #322516",
"g  c #32271A",
"h  c #35291B",
"j  c #3B2C1C",
"k  c #3D321D",
"l  c #35301E",
"z  c #172720",
"x  c #1A2521",
"c  c #1C2C24",
"v  c #1E2F28",
"b  c #1E3024",
"n  c #1E3029",
"m  c #202E26",
"M  c #332D22",
"N  c #3A2E21",
"B  c #322F28",
"V  c #243223",
"C  c #293425",
"Z  c #22352C",
"A  c #23392D",
"S  c #2B3D2D",
"D  c #2F362D",
"F  c #3E3023",
"G  c #333D2E",
"H  c #3E3D2C",
"J  c #3D332A",
"K  c #233C31",
"L  c #2E3D38",
"P  c #273430",
"I  c #353C3D",
"U  c #5B1815",
"Y  c #671D19",
"T  c #701E1A",
"R  c #402F1C",
"E  c #53241F",
"W  c #43331F",
"Q  c #73241F",
"!  c #492F28",
"~  c #433423",
"^  c #493621",
"/  c #453821",
"(  c #4C3A24",
")  c #403329",
"_  c #403829",
"`  c #4E3C2A",
"'  c #533E26",
"]  c #513E28",
"[  c #5D3B2E",
"{  c #542A23",
"}  c #692922",
"|  c #7B2B23",
" . c #78372B",
".. c #773B2E",
"X. c #70362B",
"o. c #2C412F",
"O. c #39422E",
"+. c #264033",
"@. c #2B4434",
"#. c #2F4935",
"$. c #2E4939",
"%. c #354532",
"&. c #3A4432",
"*. c #334B36",
"=. c #3D4D36",
"-. c #324D3A",
";. c #37493C",
":. c #35523D",
">. c #3B533B",
",. c #4A442C",
"<. c #594127",
"1. c #544229",
"2. c #5B442A",
"3. c #54492F",
"4. c #5C4B2D",
"5. c #564026",
"6. c #4F4C31",
"7. c #514D31",
"8. c #594E31",
"9. c #42553B",
"0. c #545033",
"q. c #5A5134",
"w. c #5C573A",
"e. c #60472B",
"r. c #62492C",
"t. c #62502F",
"y. c #6E4E3A",
"u. c #604C31",
"i. c #635637",
"p. c #6D5A35",
"a. c #685C3B",
"s. c #6F623F",
"d. c #79653C",
"f. c #384743",
"g. c #3E4D49",
"h. c #385740",
"j. c #3B5A42",
"k. c #404A49",
"l. c #415E44",
"z. c #485846",
"x. c #565B43",
"c. c #495353",
"v. c #6A5C42",
"b. c #426046",
"n. c #4C6446",
"m. c #466549",
"M. c #4F6749",
"N. c #4C694B",
"B. c #526E4E",
"V. c #52704F",
"C. c #51625F",
"Z. c #527150",
"A. c #587250",
"S. c #5B7A56",
"D. c #656144",
"F. c #6B6642",
"G. c #606548",
"H. c #616F4F",
"J. c #6F6A46",
"K. c #756D45",
"L. c #757047",
"P. c #7E7A4D",
"I. c #7A734C",
"U. c #617F59",
"Y. c #566162",
"T. c #5C6D6B",
"R. c #826A3F",
"E. c #866B41",
"W. c #886842",
"Q. c #8D7049",
"!. c #8C7C4F",
"~. c #947B4D",
"^. c #8A7D52",
"/. c #927E53",
"(. c #65845C",
"). c #97814F",
"_. c #858152",
"`. c #8D8353",
"'. c #918254",
"]. c #978559",
"[. c #9D8A5B",
"{. c #99875A",
"}. c #A18B59",
"|. c #A5945C",
" X c #A8925D",
".X c #9D9464",
"XX c #A09968",
"oX c #AC9962",
"OX c #BBB170",
"+X c #C6BC77",
"@X c #CAC27A",
"#X c #788B89",
"$X c #819593",
"%X c #97ABAB",
/* pixels */
"                                                                                                                            ",
"                                                                                                                            ",
"                                                . . . . .                                                                   ",
"                                              & & & & & & &                                                                 ",
"                                        . . . V =.=.=.=.=.G > . .                                                           ",
"                                      o o o O %.(.(.(.(.(.n.t o X X                                                         ",
"                                    & C %.&.%.M.(.(.(.(.(.A.9.%.&.o.t                                                       ",
"                                  . * >.(.(.(.(.(.(.(.(.(.(.(.(.(.B.d .                                                     ",
"                                . . * >.(.(.(.(.V.V.V.V.V.Z.Z.V.V.l.p .                                                     ",
"                          . . . . . & >.(.(.(.V.b.>.j.j.j.j.j.j.j.-.e .                                                     ",
"                          . @ t C C S O.>.b.Z.m.j.m.N.m.j.j.j.j.h.:.%.V y                                                   ",
"                          . y 9.A.V.n.C > S b.j.:.N.(.N.b.h.j.j.j.j.N.M.C .                                                 ",
"                          . 2 >.V.A.N.o.y c A @.f.z.v.M.N.b.:.h.b.M.G.i.M .                                                 ",
"                          . ; A :.j.j.:.@.c & t K ` ..y.A.N.:.:.N.H.y.X.0 .                                                 ",
"                          . @ z A $.:.:.$.c @ z A ! T ..v.x.#.%.x.v...T 4 .                                                 ",
"                          . @ e Z K @.+.+.Z z v K ! | |  .[ G G [  .| T 4 .                                                 ",
"                          . @ < x n A Z K K K K n J } } } E B B E Y Y U 4 .                                                 ",
"                            o @ ; r v n n Z K K K P J J J B m 9 q 0 4 w %                                                   ",
"                              . + 2 z x c n Z P Z K Z K P v , , , > + .                                                     ",
"                                + @ ; e c v v v v n v n v v x 3 3 2 @ .                                                     ",
"                                  . o > x c c c c c c v Z Z c c c x > @                                                     ",
"                                . . . @ ; 2 c c x c c f.T.C.L c c P c.Y.I .                                                 ",
"                              . . . . . o > c v c c x C.%X$Xg.x c I #X%Xc..                                                 ",
"                            * 8 8 7 , 1 , > ; ; ; 3 x f.T.Y.L x 2 c k.Y.I .                                                 ",
"                          . = W [ ( N N N , . . . ; x m P P c 3 @ . @ @                                                     ",
"                        * 7 j ' 2.] ] ] ^ g , , , > : : : : : : , 5 7 7 =                                                   ",
"                      . 5 W e.e.u.r.r.2.2.( N h N 7 @ X o o o $ a N ^ ( 8 .                                                 ",
"                      . * f W e.r.r.r.r.r.] ` ] ! M , * * * * 7 j ] 2.<.8 .                                                 ",
"                      . X # 8 ' r.r.r.r.r.e.2.2.2.( j h M g M N ' 2.e.<.8 .                       . . . . . .               ",
"                      . X & p ] 2.' W W W ^ ^ ' r.1.` ( ! ! h N ,.3.( W 5 .                       . o , s u 7 =             ",
"                      . & Z O.1.' f 5 = = = = R r.2.2.2.[ ~ 7 1 O.=.s = $                         . @ ,.I.a.r.j o . .       ",
"                      . y *.9.7.~ = X * 7 1 = g ^ ' ( 5.e.^ * ; o.*.c & @                         . $ w..X].Q.8.a 1 = =     ",
"                      . y $.:.&.V > & O.F.q.2.j 7 5 5 j <.W = & S :.#.Z y .                       . * 3.!.].{.^.J.a.4.~ = . ",
"                      O e *.:.@.b & - s..X'.E.1., * # 8 W R 5 = C :.:.-.r .                       # - / d.!..XXX.X{.~.8.= . ",
"                  . < b @.:.-.@.t & * 0./.].].I.D.8.1.W f f j j u b #.:.e .                     * k ,.k l i.`././.[.oXK.u . ",
"                o . t :.j.:.-.K b ; = 1.d.'.XXXX.X].Q.2.* 5 W W - @ Z -.t o o                 o - 5.p.f X W R.R.W.}.OX^.s . ",
"              . y b o.:.:.$.A e y l W W / p.'.'.'.}.oXs.1 = W ' - O b @.A b e .             = k W k l = O / R.'. X'.F.7.u   ",
"            . . t :.j.j.:.+.z & - 4.s.f O ,.R.R.W. X@X_.u 5 ( ( - o e +.-.:.t . .         . 5 4.p.i . . X W R.|.@X^.1 .     ",
"            . . t :.:.$.+.e t h k W k = O ,.R.). X'.L.7.a g ] ^ = + e +.$.>.t . .       - j W / k u . . O 8.|.`.L.0.<       ",
"            . . t :.-.@.e @ u 8.t.i X X # W R.|.+XI.u 1 h ( 2.( - o e +.-.:.b o .     . i t.4.u O     . @ s.@XL.- O         ",
"            y e +.:.$.+.e + > l k = . . O q.}.`.P.7.1 7 h ^ 2.( - o : z A $.Z e <   = 5 f W W 7         O 0.P.0.@           ",
"        . o t $.:.>.$.+.z + o O O X . . * J.+XK.u 7 8 f h W ' ^ - . . + e +.#.:.c o 8 W W 5 *             - , -             ",
"        . o b j.:.:.+.c : o . . X % = @ O 6._.0.7 f j ~ ~ W ~ h * . . o e A A S d 7 i j f *                 .               ",
"        . o b j.:.@.z & o . . . $ f W = . - s k ( ] <.<.[ W 7 $     . + e n e & i ^ j = #                                   ",
"        . o b j.$.K e o . . . O 7 ~ ' g = 5 = f W W W ( W j 5 $     . o < z 3 = f W i O .                                   ",
"        . o b >.$.K 2 o . . @ 8 h ~ ^ ^ W ^ W f = = = 5 = 7 8 8 $ .     @ & a W f = # . .                                   ",
"        . . e $.K n 2 o . . $ g ~ ) ~ ] e.e.e.j * # # # O , M M * .     . . 8 ' 8 X . . .                                   ",
"        . . & : : ; @   . . $ g ) ~ ~ ~ ' [ r.' W h f 8 i C &.D > .     . . # 5 $ . .                                       ",
"        . . . . . . .     o > M J _ _ _ ~ ( ' ' ' ( N N ) _ =.#.e o     . . . . . . .                                       ",
"        . . . . .     . & 2 v S =.=.&._ ~ g 8 8 7 7 = 8 M ,.>.-.o.b > .                                                     ",
"        . . . .       . ; v +.h.>.j.:.H N 5 . . . . . * M J :.h.:.*.y .                                                     ",
"                      . ; c @.:.j.j.-.C , $           $ , p S $.$.A : .                                                     ",
"                      . ; n +.:.j.>.$.e .               . & z K K n ; .                                                     ",
"                      . ; n +.$.@.A t >                 . @ n K K b ; .                                                     ",
"                      . & n K K n : o                   . ; c K K c ; .                                                     ",
"                      . & n n K b & .                   . o : e e : + .                                                     ",
"                      . ; v K K c ; .                   . . o o o o . .                                                     ",
"                      . @ 2 z z 2 + .                   . . . . . . . .                                                     ",
"                      . . + + + o . .                                                                                       ",
"                      . . . . . . . .                                                                                       "
};
