/* XPM */
static char *GoblinLeftLand1705741503[] = {
/* columns rows colors chars-per-pixel */
"60 60 193 2 ",
"   c None",
".  c #010101",
"X  c #090704",
"o  c #060906",
"O  c #0B0906",
"+  c #060B09",
"@  c #090D0B",
"#  c #130E09",
"$  c #170A07",
"%  c #0B110D",
"&  c #15120C",
"*  c #1B140D",
"=  c #1D180F",
"-  c #0E1512",
";  c #0F1A15",
":  c #131612",
">  c #1C1510",
",  c #131B14",
"<  c #1C1D14",
"1  c #121E19",
"2  c #1A1D19",
"3  c #270A09",
"4  c #360E0D",
"5  c #21190F",
"6  c #241C13",
"7  c #291E12",
"8  c #231711",
"9  c #3F1D19",
"0  c #15221C",
"q  c #1A241A",
"w  c #1B291E",
"e  c #192016",
"r  c #252216",
"t  c #2C2215",
"y  c #2B241A",
"u  c #2E2A1C",
"i  c #21291D",
"p  c #322516",
"a  c #342618",
"s  c #352A1C",
"d  c #3A2D1B",
"f  c #3E321D",
"g  c #172720",
"h  c #1A2621",
"j  c #1B2B24",
"k  c #1F2D28",
"l  c #1F322A",
"z  c #1E3127",
"x  c #222E22",
"c  c #292A21",
"v  c #262D2C",
"b  c #3A2E21",
"n  c #223325",
"m  c #2B3225",
"M  c #22362B",
"N  c #243A2D",
"B  c #2A3C2B",
"V  c #3D3421",
"C  c #3C3A26",
"Z  c #34352D",
"A  c #303D2D",
"S  c #3F3E2D",
"D  c #373225",
"F  c #2A3331",
"G  c #233B30",
"H  c #293A32",
"J  c #2B3934",
"K  c #343C37",
"L  c #441613",
"P  c #621A17",
"I  c #43331E",
"U  c #7B211D",
"Y  c #4F2E27",
"T  c #482F28",
"R  c #402C25",
"E  c #5F2923",
"W  c #423424",
"Q  c #483521",
"!  c #443822",
"~  c #4C3A25",
"^  c #443129",
"/  c #4E3B28",
"(  c #403929",
")  c #523D25",
"_  c #523E28",
"`  c #5B3B2C",
"'  c #6A2621",
"]  c #702520",
"[  c #7A2D25",
"{  c #793027",
"}  c #773B2D",
"|  c #2A412F",
" . c #274033",
".. c #2B4434",
"X. c #2E4836",
"o. c #2E4938",
"O. c #354531",
"+. c #3D4332",
"@. c #314A37",
"#. c #324D3A",
"$. c #354538",
"%. c #36533E",
"&. c #3B533C",
"*. c #4C442C",
"=. c #4D492E",
"-. c #46422B",
";. c #584127",
":. c #55432A",
">. c #5C442A",
",. c #5C4C2C",
"<. c #55482D",
"1. c #474C37",
"2. c #4F4C30",
"3. c #534F32",
"4. c #5C4937",
"5. c #42573C",
"6. c #44593E",
"7. c #555134",
"8. c #595636",
"9. c #60472B",
"0. c #63492C",
"q. c #664F33",
"w. c #694B38",
"e. c #754333",
"r. c #655233",
"t. c #6B5336",
"y. c #6C5934",
"u. c #69573D",
"i. c #776139",
"p. c #79633A",
"a. c #3B4A46",
"s. c #3C4946",
"d. c #395740",
"f. c #3B5941",
"g. c #444D4D",
"h. c #485E41",
"j. c #495A56",
"k. c #4E5A59",
"l. c #685840",
"z. c #456347",
"x. c #4C6446",
"c. c #466448",
"v. c #496549",
"b. c #4A694C",
"n. c #526C4D",
"m. c #596A4C",
"M. c #526144",
"N. c #51704F",
"B. c #50615E",
"V. c #5B7451",
"C. c #5B7854",
"Z. c #5E7D58",
"A. c #537251",
"S. c #6B6B4C",
"D. c #6E6242",
"F. c #746B46",
"G. c #776844",
"H. c #7D7047",
"J. c #76724A",
"K. c #7C754A",
"L. c #747047",
"P. c #607F59",
"I. c #607653",
"U. c #7A7550",
"Y. c #7F7A53",
"T. c #586665",
"R. c #627472",
"E. c #876F44",
"W. c #827045",
"Q. c #867448",
"!. c #8E754C",
"~. c #8C7549",
"^. c #92774B",
"/. c #977D50",
"(. c #65845C",
"). c #8C8252",
"_. c #8D845A",
"`. c #938355",
"'. c #998453",
"]. c #9D8A57",
"[. c #908759",
"{. c #958B5C",
"}. c #9B8B5B",
"|. c #9B8F61",
" X c #9C9161",
".X c #A59B62",
"XX c #A9A166",
"oX c #AEA76A",
"OX c #B3A266",
"+X c #B5A469",
"@X c #7A8D8C",
"#X c #809091",
"$X c #8A9E9D",
/* pixels */
"                                                                  . . . . . .                                           ",
"                                                                  , 2 , , 2 e &                                         ",
"                                                          . . . : O.h.h.h.h.5.x . . .                                   ",
"                                                          : : : n x.(.(.(.(.C.O., : , &                                 ",
"                                                      . e O.6.6.c.C.(.(.(.(.P.b.6.6.5.m .                               ",
"                                                      . q x.(.(.(.(.(.P.Z.Z.Z.Z.Z.Z.C.B . .                             ",
"                                                      . q x.(.(.(.(.Z.A.b.b.b.b.b.b.z.n . . . . .                       ",
"                                                      % x x.(.(.(.Z.C.b.h.f.f.d.%.%.@.z % % % X . .                     ",
"                                                  . e O.5.v.b.b.b.b.b.N.N.z.d.d.%.N q B +.&.&.i . .                     ",
"                                                  . i M.V.v.f.d.d.f.c.V.I.c.d.d.@.w @ O.(.P.P.O.o .                     ",
"                                                  . 8 ` l.m.b.%.d.c.m.u.w.1...x w x n &.b.z.f.v . .                     ",
"                                                  . 3 P } S.m.#.@.b.S.e.] ^ l 1 o z f.f.%.X.G 1 o .                     ",
"                                                  . 3 P [ e.w.K K 4.e.[ ] ^ G j 0 l #.o.o.G M 1 . .                     ",
"                                                  . 3 P U U ' D Z E U U ' C G G N l G G G l h - . .                     ",
"                                                    $ 4 L L 9 y c R Y Y T Z G l G l l l M 0 - @ .                       ",
"                                                      . o # > > 2 k G G G G G G G l j j j - . .                         ",
"                                                      . + : 2 2 h k l k l l l l l k h 0 - % .                           ",
"                                                      . @ 1 j k g j j j k k j k j j h - . .                             ",
"                                                    v g.s.F j j J j.B.K g k h h j 0 - @ . .                             ",
"                                                  . K #X@Xs.j j a.@X$Xj.k g k j h - . . . . . .                         ",
"                                                    F T.k.v 2 h K T.R.a.h 0 ; : ; : > > > 8 6 =                         ",
"                                                      : - + @ 1 k F J k h - . X + 6 b b b Q ` p . .                     ",
"                                                    # 5 8 > > ; - ; ; 1 ; : : & > b / / ~ >.0.Q 7 =                     ",
"                                                  . * T / b y # o o o X @ 6 b b b / >.>.>.9.0.>.) a X .                 ",
"                                                  . 5 Q >._ R 6 & & : & 8 b ~ ~ ~ >.0.0.0.0.0._ I 7 . .                 ",
"                . . . . . .                       . 5 ~ 0.9.:.I s s b a b ~ >.>.9.0.0.0.0.0.0.d $ X . .                 ",
"                6 t u u & .                       . * d Q <.*.d a ^ ~ ~ ~ >.9.) I I I I I ;.0.V 2 % . .                 ",
"        . . . # Q t.F.K.C .                           # r O.O.2 = I >.>.>.9.>.a # # # # # d 0.2.O.w o .                 ",
"        8 6 y C u.!.[.[.-..                           - j X.| , * I >.) I Q I p 7 t y & . r :.1.%.n X .                 ",
"    . & Q t.F.Y.[.}.`.W.V .                       . , N X.%.| : $ I ) a * & 8 Q q.G.U.C . 0 B $.f.n + .                 ",
"    . > t./.{.|. X{.H.,.f 5 *                     . , O.%.X.B e 6 d I t 8 r m r.!.`.{.-.. , N X.f.N , %                 ",
"    . r Q.+X].~.!.W.*.t ! ,.s .                   . , | X.w e d d 7 7 Q q.D.U._.}.`.Q.C . 1 G X.%.%.| j +               ",
"    . r K..X'.^.Q.i.s X d r.I = &                 % w ..N % * I ) = * q./.].|. X|.H.r.f = q z | %.%.f.N , %             ",
"        V 7.).+X'.i.f . & r f ,.d o           . , n  ...z % * I ) * r F.+X].!.!.Q.<.r I ,.u % w  .o.%.%.| w @           ",
"        . e J.XX].W.f . . o f y.I = &         . , @.%. .j @ * I _ 6 t L.XX].^.E.p.d . f y.I & e z  .#.d.%.N % .         ",
"            C 7.)..X=.. .   5 t I :.d X       . e X.#. .j @ * I ;.d s C 7.).OX'.p.f . * u I <.s ; g  .#.f.N % .         ",
"            . > L.XX7..       . d y.! # O     + 0 X.X.N w + * I >.~ b * < F.oX}.W.f . . . d y.f . , l o.%.| ; @         ",
"                +.=.s           6 p d d t X , n N ..l 0 @ o * I ;.W s 6 6 C 8.)..X=.. . . * u * . ; l o.%.#.B w @       ",
"                . .               . 7 ) d # q ..X. .g + . . & I ) I s s p * > F.oX3.. . . . . . . - z  .%.%.f.B % .     ",
"                                    * 7 p a p q j l g % . . # 5 t I ) ~ ~ I f *.2.r . . . .   . . o - w  .%.%.| % .     ",
"                                      . 6 ) d # ; j 0 @ .     . # I >.9.` >.) 7 X . X X . X     . . . - l ..%.N % .     ",
"                                      . # 5 p a t 2 - o       . X 5 7 7 t p 7 p a d a d d 5 . .   . . - z o.%.N % .     ",
"                                      . . . 5 ) d # .         . . . . . . X O d 0.0.0.0.9.a . .     . - z  .%.N @ .     ",
"                                        . . # 7 = X .       O = 6 6 6 p p a d ) 0.0.0.>._ d 6 = . .   % ; 0 g , X .     ",
"                                          . . . . . .     . % y ^ W ! :.0.0.0.0.0.9.q._ ^ W ^ 6 . .     . . . . . .     ",
"                                            . . . .       . & m +.W ^ ~ :.>.0.0.9.>._ ^ ^ V V 6 . .       . . . . .     ",
"                                                          . - ..&.S ^ W Q ` 0.0.9._ W W V W W 6 . .         . . . .     ",
"                                                        % q n o.&.-.b y 6 p s s a b W S +.+.+.m 1 % o         . .       ",
"                                                      . - | d.d.&.S b & . . X X X 6 W +.f.d.f.X.N 1 . .                 ",
"                                                      . % N #.o...c 6 # . . . . o * r A f.f.f.#.G 0 o .                 ",
"                                                      . % z G G k - .             X X n f.%.f.o.G 0 o .                 ",
"                                                      . % j G G j - .               . 0 M ..#...G 0 . .                 ",
"                                                      . @ j G G j - .                 o + 0 G G G 0 o .                 ",
"                                                      . + 1 0 g 1 o .                 . . 0 l G G 0 . .                 ",
"                                                      . . + o o o . .                 . . 1 G G G 1 o .                 ",
"                                                      . . . . . . . .                 . . - g g g - . .                 ",
"                                                                                      . . o o o + o . .                 ",
"                                                                                        . . . . . . .                   ",
"                                                                                                                        ",
"                                                                                                                        "
};
