/* XPM */
static char *user11__1_1705227910[] = {
/* columns rows colors chars-per-pixel */
"60 60 2 1 ",
"  c None",
". c black",
/* pixels */
"                                                            ",
"                                                            ",
"                           ......                           ",
"                         ...    ...                         ",
"                        ..       ...                        ",
"                        ..        ..                        ",
"                       ..          ..                       ",
"                       ..          ..                       ",
"                       .            .                       ",
"                       .            .                       ",
"                       ..          ..                       ",
"                       ..          ..                       ",
"                        ..        ..                        ",
"                         ..      ..                         ",
"                          ........                          ",
"                           ......                           ",
"                                                            ",
"                                                            ",
"                    ....................                    ",
"                  ........................                  ",
"                  ..                    ..                  ",
"                 ..                      ..                 ",
"                 .                        .                 ",
"                 .                        .                 ",
"                 .                        .                 ",
"                 .                        .                 ",
"                 .                        .                 ",
"                 .                        .                 ",
"                 .    ..            ..    .                 ",
"                 .    ..            ..    .                 ",
"                 .    ..            ..    .                 ",
"                 .    ..            ..    .                 ",
"                 .    ..            ..    .                 ",
"                 .    ..            ..    .                 ",
"                 .    ..            ..    .                 ",
"                 .    ..            ..    .                 ",
"                 .    ..            ..    .                 ",
"                 ..   ..            ..   ..                 ",
"                 ..   ..            ..   ..                 ",
"                  ......            ......                  ",
"                    ....     ..     ....                    ",
"                      ..     ..     ..                      ",
"                      ..     ..     ..                      ",
"                      ..     ..     ..                      ",
"                      ..     ..     ..                      ",
"                      ..     ..     ..                      ",
"                      ..     ..     ..                      ",
"                      ..     ..     ..                      ",
"                      ..     ..     ..                      ",
"                      ..     ..     ..                      ",
"                      ..     ..     ..                      ",
"                      ..     ..     ..                      ",
"                      ..     ..     ..                      ",
"                      ..     ..     ..                      ",
"                      ..     ..     ..                      ",
"                      ..     ..     .                       ",
"                       ..   ....   ..                       ",
"                        .....  .....                        ",
"                                                            ",
"                                                            "
};
