/* XPM */
static char *GoblinUpJump__1_1705741099[] = {
/* columns rows colors chars-per-pixel */
"74 60 131 2 ",
"   c None",
".  c #010101",
"X  c #090704",
"o  c #050907",
"O  c #0C0906",
"+  c #070B0A",
"@  c #0A0D0B",
"#  c #110C07",
"$  c #120E0A",
"%  c #0B120E",
"&  c #15120B",
"*  c #1B150D",
"=  c #1D180E",
"-  c #0D1511",
";  c #0F1914",
":  c #111714",
">  c #191712",
",  c #141C15",
"<  c #1D1A12",
"1  c #111D18",
"2  c #21190F",
"3  c #241C11",
"4  c #291F14",
"5  c #152017",
"6  c #15231D",
"7  c #1A251C",
"8  c #1C2A1F",
"9  c #242216",
"0  c #2B2115",
"q  c #26261A",
"w  c #2D2318",
"e  c #212A1E",
"r  c #2B2A1B",
"t  c #312617",
"y  c #32261A",
"u  c #352A1B",
"i  c #3B2D1C",
"p  c #3C321E",
"a  c #172720",
"s  c #192621",
"d  c #172821",
"f  c #1B2B24",
"g  c #1C3027",
"h  c #1D3229",
"j  c #252D23",
"k  c #3A2D21",
"l  c #243526",
"z  c #283626",
"x  c #20362D",
"c  c #22392E",
"v  c #2D3E2C",
"b  c #3E3122",
"n  c #33392A",
"m  c #3C3B29",
"M  c #233B30",
"N  c #283F30",
"B  c #45331E",
"V  c #423425",
"C  c #483726",
"Z  c #423C25",
"A  c #4C3A24",
"S  c #433E29",
"D  c #4E3B28",
"F  c #533D25",
"G  c #533E29",
"H  c #2A402F",
"J  c #274032",
"K  c #2A4435",
"L  c #2D4837",
"P  c #2D4838",
"I  c #3E4633",
"U  c #304A36",
"Y  c #3C4E36",
"T  c #314E3A",
"R  c #35533E",
"E  c #3A543C",
"W  c #4F4026",
"Q  c #45422B",
"!  c #48412B",
"~  c #574027",
"^  c #564129",
"/  c #5B442A",
"(  c #58482A",
")  c #554F36",
"_  c #60472B",
"`  c #63492C",
"'  c #6A5633",
"]  c #685A38",
"[  c #705B36",
"{  c #75613B",
"}  c #395740",
"|  c #3A5941",
" . c #425F45",
".. c #485E41",
"X. c #436146",
"o. c #4E6647",
"O. c #466548",
"+. c #48674A",
"@. c #4B694B",
"#. c #506F4F",
"$. c #56714F",
"%. c #557452",
"&. c #587451",
"*. c #5D7C57",
"=. c #5E7D58",
"-. c #6A6641",
";. c #766541",
":. c #796A47",
">. c #607D57",
",. c #607F59",
"<. c #816743",
"1. c #866B44",
"2. c #896B44",
"3. c #8E7647",
"4. c #84774B",
"5. c #817D4F",
"6. c #8D7E51",
"7. c #937F54",
"8. c #65845C",
"9. c #8D8455",
"0. c #89845A",
"q. c #938356",
"w. c #9B8654",
"e. c #948956",
"r. c #958559",
"t. c #948959",
"y. c #9B885A",
"u. c #A28C5A",
"i. c #9B9464",
"p. c #A79E63",
"a. c #BCAE6E",
/* pixels */
"                                                              . . . . . . . . . . . .                                                               ",
"                                                              , , 5 5 > , , , , 5 5 >                                                               ",
"                                                          . 8 Y ......o.O.) ....) X.Y 8 .                                                           ",
"                                                          & v $.8.8.8.8.8.8.8.,.*.=.#.z %                                                           ",
"                                          . . .       . 8 E o.*.8.8.8.8.8.8.*.#.+.+.X.L l : .       . . .                                           ",
"                                          . . o o     ; n &.8.8.*.*.*.8.8.*.%.X.| | | | R 8 @     + o o .                                           ",
"                                          . - 6 ; o 8 Q o.=.*.@.+.+.@.@.@.@.+.| | | | | R K x , o ; 6 % .                                           ",
"                                          . ; x 6 @ z #.8.=.$. .| | | | | | | | | | R E R E P a + 6 h ; .                                           ",
"                                          . ; h g a J | @.@.O.| | | | | } } } } } P P P P } } x 6 h h ; .                                           ",
"                                          . ; h h M P } | | | | | | | | } } } } } M M M x } } M M M h ; .                                           ",
"                                            % ; f h J P T } | | | | | | } P P P K M M M M K K N h d ; @                                             ",
"                                              . ; h c h K R } } } } } } } J c M M M M x M x x x h ; .                                               ",
"                                                % ; 1 ; f J P P P P P P K M M M M M M M x a 1 1 ; %                                                 ",
"                                                  . . . - h M M M M M M M M c M M M x x g - . . .                                                   ",
"              . . . .                                   @ ; d h M M M M x h h h h x g a ; %                                   . . . .               ",
"            . . . . . .                                   . - h M M x M x g g f f d a + .                                   . . . . . .             ",
"          $ y B ! Q < .                                   . o : s f h x h f s f s , % o .                                   . < Q ! V t $           ",
"    . . . & G 1.9.0.m .                                   . . . @ s f f f f j s s @ . . .                                   . m 9.q.<.~ & . . .     ",
"  & y p Z ) :.7.q.4.b .                                 & 4 3 2 > : : : : : : : : > 2 3 4 &                                 . b 4.q.q.:.) S B y *   ",
". = / <.6.i.p.i.9.{ u .                               . 3 F F V 4 @ . . o . X . # 4 V F F 2 .                               . u { 6.i.i.i.9.:.G 2 . ",
". q { y.y.r.r.6.] A p u 3                           * 3 i / / G V 4 * > > > > * 4 k G / ~ B 3 *                           2 u p A ] 9.e.t.y.u.;.4 . ",
". r t.a.y.2.2.[ p * W ' u .                       . 2 F / ` ` ` G V k k k k k k V G _ ` ` / A 2 .                       . u ' W * p { 1.2.e.a.9.r . ",
". r { 0.y.w.3.[ r O t W p t 2                     . 4 / ` ` ` ` G G D D D D D G G / ` ` ` ` ~ 3 .                     2 t B W u O w [ 3.w.e.9.{ r . ",
"    < m e.a.y.[ t . O * W ' u .                   . 3 F ` ` ` ` ` ` ` G _ / / / _ ` ` ` ` ` ~ 4 .                   . i ' Z * O X t [ w.a.t.m <     ",
"      q { 0.e.4.p . . O p ^ p 0 3               @ - 7 i F _ _ G G _ / _ ` ` _ / ~ ^ ^ _ / D i 3 - @               9 t p ( i O . . p 4.e.e.{ q       ",
"        9 m e.p.Q .     & = Z ' u .           . - f 7 $ t F F F C C G / ` ` / G C C D ^ F t $ 7 f - .           . u ' B * &     . Q p.9.m 7         ",
"          9 -.5.Q .       X p ( i 2 &       + % 6 x 5 o 2 F / F C V C G / G G C V C G / F 2 o 6 h 6 % +       * = p ( i X       . Q 5.-.9           ",
"            q r             & = u A 0 . . . ; d h x 6 o 3 F _ / G C V C C C C V C G / _ F 4 o 5 M h f ; . . . 0 A u = &             r q             ",
"              .               X 4 B 2 . O : 8 J N M 6 o & i F / G C V b V V m V C ^ / F i & o 6 M J J f - O . 2 B 0 X               .               ",
"                                # * O . 5 H L R P M 6 o X $ t F G V V V V V V V C ^ ~ y & X o 6 M P R L H 5 . O & &                                 ",
"                                  . . . 8 E } R K f 5 o . . 2 F G D b V V V V k C ~ F 2 . . o 1 g J R R E f . . .                                   ",
"                                    . . 8 E R K f - +   . . 2 F G D V V b V V V C ~ F 2 . .   @ - f K R R 8 . .                                     ",
"                                      . 7 K c f : o       . 2 F G D V V V V V k V G F 2 .       o 1 g c K 7 .                                       ",
"                                        % , : % %         . 2 F G V k k V k V k B F F 3 .         @ % : , %                                         ",
"                                          . . .           . = B C k y k V k k k i B B = .           . . .                                           ",
"                                                          . X * 4 w y k k y k w w 4 & X .                                                           ",
"                                                          . . . O 3 4 4 4 w 4 w 3 O . . .                                                           ",
"                                                          . . . X @ $ # @ $ $ @ $ . . . .                                                           ",
"                                                          . . X o X X X X X X o . . . . .                                                           ",
"                                                          . X * > > * 2 3 y w # . . . .                                                             ",
"                                                          . $ 4 y y y 4 i F F 2 X . X                                                               ",
"                                                          . @ 4 y y 4 > 4 A ~ B t 4 3 $                                                             ",
"                                                          . $ 0 y w 3 # * A ` / ^ C k $ .                                                           ",
"                                                        % 1 6 j j > * 2 y G ` ^ G C k $ .                                                           ",
"                                                      . - h M M s + $ y C ^ / D V V k & .                                                           ",
"                                                      . - h c M s + X > 4 w u m I I n > .                                                           ",
"                                                      . - h M M s + . . . . : H } } P , .                                                           ",
"                                                      . - h M M s + . . . . % H | | U , .                                                           ",
"                                                      . - h M h d + .     . % H | | L 5 .                                                           ",
"                                                      . + : 6 6 ; o .     . % H | | U , .                                                           ",
"                                                      . . o . o . . .     . % H | | U , .                                                           ",
"                                                      . . . . . . .       . % x T T J : .                                                           ",
"                                                                          . @ f N M h ; .                                                           ",
"                                                                          . + f c M h % .                                                           ",
"                                                                          . + d c c h % .                                                           ",
"                                                                          . o 1 d a 6 + .                                                           ",
"                                                                          . . o o + o . .                                                           ",
"                                                                          . . . . . . . .                                                           ",
"                                                                                                                                                    ",
"                                                                                                                                                    "
};
