/* XPM */
static char *player_up1705741282[] = {
/* columns rows colors chars-per-pixel */
"64 60 147 2 ",
"   c None",
".  c #000000",
"X  c #080704",
"o  c #060806",
"O  c #0B0A07",
"+  c #060B09",
"@  c #090E0B",
"#  c #120E09",
"$  c #0C130E",
"%  c #17110A",
"&  c #1A140C",
"*  c #1E190F",
"=  c #0F1610",
"-  c #0F1915",
";  c #101413",
":  c #151C14",
">  c #1C1C13",
",  c #141F1A",
"<  c #241C12",
"1  c #291F13",
"2  c #192117",
"3  c #14221C",
"4  c #19261D",
"5  c #242216",
"6  c #2B2113",
"7  c #262418",
"8  c #282219",
"9  c #2F2D1C",
"0  c #31261C",
"q  c #312C1B",
"w  c #3B2D1C",
"e  c #3B321E",
"r  c #1B2C25",
"t  c #1E3127",
"y  c #1D3128",
"u  c #242624",
"i  c #222B23",
"p  c #2D2A23",
"a  c #272F2E",
"s  c #2C2E2B",
"d  c #3D2F21",
"f  c #243527",
"g  c #2C3326",
"h  c #21352C",
"j  c #273C2E",
"k  c #2C3A2A",
"l  c #3E3123",
"z  c #343129",
"x  c #39342B",
"c  c #373A2F",
"v  c #3F3D2C",
"b  c #223B30",
"n  c #3F3C31",
"m  c #303C39",
"M  c #41311E",
"N  c #552923",
"B  c #433424",
"V  c #4A3721",
"C  c #433926",
"Z  c #4B3926",
"A  c #40362D",
"S  c #433C2B",
"D  c #503B25",
"F  c #523E28",
"G  c #662722",
"H  c #6F2B25",
"J  c #7D2E27",
"K  c #633B2F",
"L  c #7B3429",
"P  c #33402E",
"I  c #274033",
"U  c #2B4333",
"Y  c #2E4836",
"T  c #2F4B3A",
"R  c #334735",
"E  c #3B4231",
"W  c #324B37",
"Q  c #3C4E36",
"!  c #374738",
"~  c #314C3A",
"^  c #35523D",
"/  c #3D533C",
"(  c #4F4026",
")  c #524327",
"_  c #564129",
"`  c #5B442A",
"'  c #4E4737",
"]  c #575234",
"[  c #51533E",
"{  c #5B583C",
"}  c #60472B",
"|  c #63492C",
" . c #62502F",
".. c #784133",
"X. c #7E4837",
"o. c #685A37",
"O. c #6A5638",
"+. c #685A38",
"@. c #735E3D",
"#. c #71613C",
"$. c #364641",
"%. c #395740",
"&. c #3B5A41",
"*. c #425C43",
"=. c #495E44",
"-. c #595F45",
";. c #775B42",
":. c #436146",
">. c #4C6345",
",. c #456448",
"<. c #4C6B4C",
"1. c #51664A",
"2. c #5D6548",
"3. c #526B4B",
"4. c #537251",
"5. c #5B7A56",
"6. c #606147",
"7. c #66694B",
"8. c #696C4D",
"9. c #746B48",
"0. c #7D794D",
"q. c #667372",
"w. c #687877",
"e. c #6D7F7D",
"r. c #832923",
"t. c #81342B",
"y. c #8F3A2E",
"u. c #86503D",
"i. c #887043",
"p. c #8C754B",
"a. c #937B4C",
"s. c #827C54",
"d. c #8F7D50",
"f. c #907A50",
"g. c #65845C",
"h. c #6D807E",
"j. c #8E8354",
"k. c #998354",
"l. c #988853",
"z. c #96895B",
"x. c #9A8A5C",
"c. c #9C925C",
"v. c #9B8F60",
"b. c #9A9060",
"n. c #AF9F64",
"m. c #B09F64",
"M. c #B2A167",
/* pixels */
"                                                                                                                                ",
"                                                                                                                                ",
"                                                    . . . . . . . . . . . .                                                     ",
"                                                    2 2 2 2 2 2 2 2 2 2 2 :                                                     ",
"                                                . 2 Q >.>.>.>.>.>.:.>.>.>.Q 2 .                                                 ",
"                                                : k 3.g.g.g.g.g.g.g.g.5.5.:.f $                                                 ",
"                                . . . .     . 2 Q 3.5.g.g.g.g.g.g.5.<.,.,.&.R f $ .     . . . .                                 ",
"                                . o ; 2     : P 3.g.5.5.5.5.5.5.5.4.:.&.&.&./ Y 4 $     : : X .                                 ",
"                                . ; Q ^ 2 2 Q 3.5.5.<.,.,.,.,.,.:.:.&.&.&.&.&.%.I h $ : Q Q ; .                                 ",
"                                . : / [ i r :.5.5.4.<.:.&.&.&.&./ &.&.:.:.*.%.%.%.Y 4 i *.&.: .                                 ",
"                                . = j T U W &.,.,.<.4.4.:.&.&.&.&.&.&.:.4.3.^ Y ^ ^ W Y W j = .                                 ",
"                                . @ 3 y Y ^ ^ ^ &.=.7.8.1.:.&.%.^ %.&.<.8.-.~ b Y ^ ^ Y y 3 @ .                                 ",
"                                    @ : y I I Y %.=.u.u.8.4.,.^ Y ^ <.7.u...' b I U I y - @                                     ",
"                                    . @ r r r y Y ' J y.;.6.*.~ b ~ 2.;.y.J A y y r r 4 @ .                                     ",
"                                        + @ @ : a x H r.L K E I b n K L r.H x r - + $ +                                         ",
"                                        . . . + 3 p N G G N z h h z N G G N p 3 + . . .                                         ",
"            . . . . . .                         @ ; p x x z p u u p z x z p : O                         . . . . . .             ",
"            * < 7 > O .                         . @ r h h h u u u u h b y r @ .                         . O < 7 < >             ",
"    . . . * D O.9.{ > .                         . @ r y y r u u r i r u y r + .                         . 2 { 9.O.Z * . . .     ",
"    * < 8 B 9.f.x.9.7 .                         # & ; u $.$.h r r h $.$.r : & %                         . 7 9.z.a.;.C 7 < <     ",
". * Z O.9.s.z.z.a.o.< .                     . % M w & a w.e.$.r r $.e.w.a & w w % .                     . 5 o.a.z.z.s.9.O.Z * . ",
". 1 @.k.x.x.b.j.#.) q *                     % 6 D D < s q.q.m , , m q.q.s < Z D 6 %                     * q ) #.j.b.v.x.k.@.1 . ",
". q j.M.k.p.p.#.e q ) ( * .             . & w D F F d p s u ; + + ; u s 0 l F } Z w % .             . * ( ) q e +.p.p.k.M.j.9 . ",
". q 0.c.k.a.i. .* & Z ) 0 *             . & M ` D V Z d * # # # O # # < M D M D ` V & .             * 0 ) Z % *  .i.a.k.c.0.q . ",
"    p ] c.m.a. .1 X & q ) ( * .         . & V Z 6 6 V D d 0 0 p p 0 0 d Z V 1 6 Z V & .         . & ( ) q & O *  .a.M.c.] 9     ",
"    . 9 g.c.l.#.6 . . * ( ) q *         . % w e > 5 D ` F Z Z Z Z Z Z F ` Z < > w w % .         * q ) ( * . . 5 #.l.c.0.9 .     ",
"        9 ] c.j.q .     * 0 ) ( * .         % > f R ` ` ` ` ` ` F } K } | ) g 4 > %         . * ) ) q *     . 9 z.c.] 9         ",
"        . 9 0.j.9 .     . * ( ) 6 &         O 3 Y / ( ) ` | | | | | | ` Z l k y - @         % 6 ) ( * .     o 9 0.0.9 .         ",
"            9 9             * 6 M w % . . O 3 h W R 5 6 Z | | | | | | D 6 > h h t 4 + . . % w M 6 *             9 9             ",
"            . .             . & w w * # X $ h Y W j $ % V | ` _ ` ` | V & @ r b I t $ . # < w w % .             . .             ",
"                                % < w w # $ j ~ Y y $ & V } D Z Z F ` V % @ r I W j % # w w < %                                 ",
"                                . & w M < > f j y 4 : 1 V F Z B B C F Z 1 & r y j f > * M w % .                                 ",
"                                    % < w w > $ @ * w V Z Z A l B B A Z V w > @ $ > e w < %                                     ",
"                                    . % w w # . . & V ` Z B B B l B B Z ` V & . . # w w & .                                     ",
"                                        & # X . . & V F Z x B l B A B Z ` V & . . X # %                                         ",
"                                        . . . . . & Z ` B d B l B l d B ` V & . . . . .                                         ",
"                                                . & V F B 0 B B B l w M F V & .                                                 ",
"                                                . & V ` V w d d d d B M ` V & .                                                 ",
"                                                . % V } ` Z e w 0 B _ } ` V & .                                                 ",
"                                                . # w V V V M M w M M M Z w % .                                                 ",
"                                                . o # & & 1 M ` F M 6 & & %                                                     ",
"                                                . . $ = $ > e M V M < & # #                                                     ",
"                                                . $ t U U f 2 & & < M M 0 8 O .                                                 ",
"                                                + 2 I ^ R f * # % 1 V F Z 0 # .                                                 ",
"                                            . O 3 y b y 3 : 8 0 M V Z C B 0 O .                                                 ",
"                                            . $ y b b r @ O 1 w V V C E S p % .                                                 ",
"                                            . @ r y b r @ X O # % 5 c / / U $ .                                                 ",
"                                            . @ r b b r @ . . . . ; U / / U = .                                                 ",
"                                            . $ r y b r $ .     . = U &./ Y = .                                                 ",
"                                            . + 3 r r 3 + .     . = U &.&.I = .                                                 ",
"                                            . o + @ @ + . .     . - U / &.U - .                                                 ",
"                                            . . . . . . . .     . $ j ^ ^ j = .                                                 ",
"                                                                . $ y I I y @ .                                                 ",
"                                                                . $ r h b r @ .                                                 ",
"                                                                . @ r b h r @ .                                                 ",
"                                                                . + 3 r r 3 + .                                                 ",
"                                                                . . + $ @ + . .                                                 ",
"                                                                . . . . . . . .                                                 ",
"                                                                                                                                ",
"                                                                                                                                "
};
