/* XPM */
static char *monster__1_1705263444[] = {
/* columns rows colors chars-per-pixel */
"60 60 189 2 ",
"   c None",
".  c #010000",
"X  c #0B0204",
"o  c #0D0900",
"O  c #070908",
"+  c #0C0D0C",
"@  c #120306",
"#  c #130C01",
"$  c #140209",
"%  c #1C030C",
"&  c #1A0903",
"*  c #1C1300",
"=  c #161100",
"-  c #010D16",
";  c #0F1110",
":  c #171817",
">  c #181918",
",  c #2C0E06",
"<  c #22040E",
"1  c #280B08",
"2  c #251C01",
"3  c #2A1D01",
"4  c #241500",
"5  c #3F110D",
"6  c #250411",
"7  c #2B0512",
"8  c #2F0518",
"9  c #330615",
"0  c #34061A",
"q  c #3B071A",
"w  c #3F081A",
"e  c #380717",
"r  c #362901",
"t  c #031626",
"y  c #3F0720",
"u  c #042138",
"i  c #222A2E",
"p  c #2A2A29",
"a  c #28333A",
"s  c #451709",
"d  c #44081D",
"f  c #49091F",
"g  c #531C0B",
"h  c #691D17",
"j  c #452B01",
"k  c #433202",
"l  c #4A3802",
"z  c #513D02",
"x  c #5B3600",
"c  c #6A240E",
"v  c #6B3F00",
"b  c #410721",
"n  c #460823",
"m  c #4D0924",
"M  c #540A24",
"N  c #5A0B26",
"B  c #560A2B",
"V  c #5E0C29",
"C  c #630C2A",
"Z  c #690D2D",
"A  c #640B32",
"S  c #6B0C35",
"D  c #730E31",
"F  c #740D3B",
"G  c #7B0E3D",
"H  c #7A0F34",
"J  c #7E1035",
"K  c #700E2F",
"L  c #574202",
"P  c #644C03",
"I  c #694501",
"U  c #7C4B01",
"Y  c #6C5203",
"T  c #775A03",
"R  c #7F6004",
"E  c #083458",
"W  c #093960",
"Q  c #0D4A7B",
"!  c #484847",
"~  c #676564",
"^  c #706F6E",
"/  c #727272",
"(  c #92281F",
")  c #943213",
"_  c #85241D",
"`  c #AB3A16",
"'  c #85113A",
"]  c #8D123C",
"[  c #811037",
"{  c #93133E",
"}  c #942920",
"|  c #AA2F25",
" . c #C1352A",
".. c #DC3C30",
"X. c #D23A2D",
"o. c #E43F32",
"O. c #915700",
"+. c #886704",
"@. c #9B7504",
"#. c #957004",
"$. c #A76300",
"%. c #A47D05",
"&. c #B26A00",
"*. c #C7441A",
"=. c #D74A1D",
"-. c #E84F1E",
";. c #EC501F",
":. c #C77600",
">. c #D37E00",
",. c #FF5722",
"<. c #FF5822",
"1. c #F05220",
"2. c #F54335",
"3. c #FA4536",
"4. c #840F43",
"5. c #890F45",
"6. c #8B1045",
"7. c #8F1049",
"8. c #9C1443",
"9. c #94114B",
"0. c #9D124D",
"q. c #951244",
"w. c #9E1250",
"e. c #A41546",
"r. c #AD1649",
"t. c #A4144B",
"y. c #B4174D",
"u. c #B9184F",
"i. c #A41353",
"p. c #AC1456",
"a. c #AE1458",
"s. c #BE1851",
"d. c #B31559",
"f. c #BA1658",
"g. c #C31953",
"h. c #CB1A56",
"j. c #C1175B",
"k. c #C6185C",
"l. c #CD1A59",
"z. c #D31B5A",
"x. c #DB1C5D",
"c. c #E01D5F",
"v. c #DC1C61",
"b. c #D71B60",
"n. c #E61D62",
"m. c #E91E63",
"M. c #B48705",
"N. c #A98005",
"B. c #DB8801",
"V. c #CA9906",
"C. c #C59606",
"Z. c #DD9003",
"A. c #FE9801",
"S. c #DBA506",
"D. c #D9A507",
"F. c #E3AD07",
"G. c #FFA603",
"H. c #F1B607",
"J. c #F5BA07",
"K. c #FCBE07",
"L. c #FFB406",
"P. c #EDB407",
"I. c #FEC208",
"U. c #0E4F83",
"Y. c #328CD4",
"T. c #3F97DE",
"R. c #4097DE",
"E. c #449CE2",
"W. c #5DAFF2",
"Q. c #5EB0F2",
"!. c #50A6EC",
"~. c #69B7F6",
"^. c #7BC1FA",
"/. c #868686",
"(. c #9A9A9B",
"). c #AAABAC",
"_. c #B4B8BA",
"`. c #BFC4C9",
"'. c #BCC2C7",
"]. c #8AC6F6",
"[. c #92C1E7",
"{. c #BEE0FB",
"}. c #C4CFD7",
"|. c #C4D1DB",
" X c #C8DBEA",
".X c #C5E0F6",
"XX c #EEEEEE",
"oX c #FCFEFF",
"OX c #F1F1F1",
/* pixels */
"                . . .                             . . .         . . .                             . . .                 ",
"            . . . . . .                           . . . . . . . . . .                           . . . . . .             ",
"        . . . 2 Y #.2 .                           . . 7 % . . $ 7 . .                           . 2 #.I 4 . . .         ",
"      . . # +.S.I.I.z .                   . . . . . . e.r.X X ' 6.. . . . . .                   . z I.K.Z.U # . .       ",
"    . . . l S.I.I.I.+.. .                 . . . w < w z.v.d e z.z.d % 8 . . .                 . . +.I.K.K.Z.j . . .     ",
"    . . . . r V.I.I.C.# .                   . . Z l.z.m.m.z.l.m.m.l.0.B . .                   . # V.I.I.V.r . . . .     ",
"  . . Y M.k . l H.I.J.z . . . .             . . < l.m.m.n.m.m.m.m.z.w.% . .             . . . . l J.I.H.l . j &.v . .   ",
"  . = D.I.S.r k P.I.I.M.o . . .           . . . < h.m.m.m.m.m.m.m.v.d.6 . . .           . . . o M.I.K.P.k r S.G.>.* .   ",
". . L I.I.I.S.F.J.J.I.V.= . . .       . . . < K g.m.m.m.n.m.m.n.n.m.m.s.Z < . . .       . . . # V.I.J.J.F.F.K.G.A.x . . ",
". . @.I.I.I.I.J.P P J.T . 8 % .     . . & D l.m.m.m.n.m.m.m.m.m.m.n.m.m.m.g.C $ . .     . < 9 . T H.P P J.I.I.L.A.O.. . ",
". o C.I.J.J.I.C.o o @.r X 4.S . . . . d u.m.m.m.m.n.m.m.m.m.m.m.m.m.m.n.m.m.v.0.e . . . . S G . r @.o o V.I.J.H.A.:.o . ",
". * D.V.L P J.%.. . o o $ g.x.K X X Z x.m.m.m.m.m.m.m.m.m.m.n.m.n.m.m.m.m.m.m.m.l.A X X D j.9.@ o = . . %.J.I z :.B.& . ",
". * %.2 . k J.#.. @ X . d x.m.c.r.e.n.m.m.x.x.n.m.m.m.m.m.m.m.m.n.m.m.m.c.z.z.c.m.n.e.r.n.n.k.q . X $ . #.H.k . 3 $.4 . ",
". = 2 . L D.I.@.. M y.r.l.m.m.m.m.m.z.' f 9 9 f ] l.m.m.m.m.m.n.m.m.h.H d 6 < w D g.m.m.m.m.m.l.8.6.y . @.I.S.z . 3 o . ",
". . . r F.I.I.@.. 9 x.m.m.m.m.m.n.e.7 . . + + . . 7 e.m.m.n.m.m.m.8.< . . + + . . % { n.m.n.n.m.b.i.6 . @.I.I.F.3 . . . ",
". . . +.I.I.V.3 . q x.m.m.m.m.m.8.$ . ! (.'.'.(.! . @ 8.m.m.m.m.q.@ . ! (.'.'.(.! . X ] m.m.m.m.v.p.8 . 3 V.I.K.O.. . . ",
". . o C.I.H.l . f h.n.m.m.m.m.g.6 . / OXoX].!.]. X/ O 7 h.m.m.g.6 . / OXoX].W.]. X/ . & u.m.m.n.m.b.0.0 . l H.L.:.o . . ",
"  . o N.I.M.o < g.m.m.m.m.m.m.H . ! OXOX/.a u U.!..X! . J m.m.J . ! OXOX/.a u U.!..X! . Z m.m.m.m.m.b.9.% . M.A.$.o .   ",
"  . . * %.T . Z m.m.m.m.n.m.c.w . ).oX/.. . . . Q ^.).. q c.x.e . ).oX/.. . . . Q ^.).O 7 z.m.m.m.m.v.d.m . U $.& . .   ",
"    . . o o . J z.y.l.m.m.m.l.% > }.[.i . i i . t !.}.> < z.z.< : }.[.i . i i . t E.|.> $ g.m.m.m.l.r.0.A . o o . .     ",
"        . . . 6 % X 9 l.m.m.l.& > |.T.t . a a . t R.|.> < z.h.< > |.T.t . a a . t R.|.> $ g.m.m.g.9 X % % . . .         ",
"            . . . . < z.m.m.x.9 O _.~.W . O O . E ~._.O 9 x.x.9 O _.~.W . . O . W ~._.O 6 z.m.b.i.% . . . .             ",
"            . . . . H m.m.m.m.Z . ~ .XY.E - - E Y..X~ . C x.x.C . ~ .XY.E - - E Y..X~ . M m.m.v.d.B . . . .             ",
"                . $ g.m.m.m.m.y.$ + (.{.Q.Y.Y.W.{.(.O . % 7 7 % . O (.{.~.Y.Y.W.{.(.+ $ r.m.m.m.k.6.$ .                 ",
"                . m n.m.m.m.m.c.[ . + ^ `. X X`./ ; . . X X X . . . ; ^ `. X X'.^ + . F n.m.m.m.v.p.y .                 ",
"              . . ] m.m.m.m.m.m.n.H $ . + p p ; . . n F 4.6.5.4.F n X . ; i p ; . X K v.m.m.n.m.n.f.S . .               ",
"              . $ s.m.m.m.m.m.n.n.n.y.M < @ @ % X X 6.a.a.a.a.a.d.4.X X < @ X < M r.n.m.n.m.n.m.m.k.7.$ .               ",
"              . q x.m.m.m.m.m.m.n.n.m.n.z.s.g.z.N . y i.a.a.a.a.i.y . N z.u.u.z.n.m.m.n.n.m.m.m.m.l.i.7 .               ",
"              . C m.n.m.m.n.m.m.m.m.n.m.m.m.m.m.s.< . e 4.w.w.G 0 . < g.m.m.m.m.n.n.m.m.m.m.n.m.m.v.d.n .               ",
"            . . ] m.m.m.m.m.m.n.m.m.m.m.m.m.m.m.m.e.6 . . % % X . < e.m.m.m.m.m.m.m.n.m.m.m.m.m.m.n.d.A . .             ",
"            . . e.m.m.n.m.m.m.m.m.m.n.m.m.n.m.m.m.m.g.Z 6 $ X 6 Z g.m.m.m.m.m.m.m.n.m.m.m.m.m.m.m.n.f.G . .             ",
"            . X y.m.m.m.m.m.m.m.n.m.m.m.v.x.n.m.m.m.m.n.x.g.f.b.m.m.m.m.m.n.z.n.m.m.n.m.m.m.m.m.n.n.j.4.X .             ",
"            . $ g.m.c.m.m.m.m.m.n.m.x.' w 7 d D 8.s.l.x.x.x.x.x.x.l.u.{ D d 7 q G x.m.m.m.m.m.m.m.m.j.7.$ .             ",
"            . $ l.m.m.m.m.m.m.m.m.n.D . . X . . . @ < 6 9 7 7 7 6 < @ X . . X . . D n.m.n.m.m.n.m.m.k.9.$ .             ",
"            . % l.m.m.m.m.m.m.m.m.z.6 X A 6.F n X . . . X @ X . . . . X n F 6.A . 7 z.m.m.m.m.m.m.m.k.9.$ .             ",
"          . . $ g.m.m.m.m.m.m.m.m.z.% X 7.a.i.m . . 5 _ |  . .| _ 5 X . m p.a.6.X < z.m.m.n.m.m.m.m.k.9.$ . .           ",
"          . . @ u.m.m.m.m.m.m.m.m.n.m . m p.S . & } o.3.2.2.2.2.2.o.} @ . S p.m . m c.m.m.m.m.m.m.n.j.6.X . .           ",
"          . . . e.m.n.m.m.m.m.m.n.m.r.@ . n 6 . } 3.2.2.2.2.2.2.2.2.2.( . 6 n . @ r.m.m.n.m.m.n.m.n.f.G . . .           ",
"          . . . ' m.n.m.m.m.m.m.m.m.m.] $ . . . h | | X...o.....X. .| h X . . % { n.m.m.m.m.m.m.m.v.d.A . . .           ",
"        . . % . N m.m.m.m.n.m.m.m.n.m.m.y.N % . . . & & 1 1 1 1 & X . . . & M y.m.m.m.m.m.m.n.m.m.b.a.n . % . .         ",
"        . X D X 7 z.m.m.m.m.m.m.m.m.n.m.m.n.g.8.C f 7 % $ X X @ % 7 f Z 8.g.n.m.m.m.m.m.n.m.m.n.m.l.w.% X B X .         ",
"        . $ y.e . e.m.m.m.m.m.m.m.m.m.m.n.m.m.m.m.c.x.l.g.s.s.g.l.b.n.m.m.m.m.m.m.m.m.m.m.m.m.m.n.j.G . 6 4.$ .         ",
"        . e c.D . N n.m.m.m.m.n.m.n.m.m.m.n.m.m.m.m.m.m.n.x.x.n.m.m.m.n.m.m.m.m.m.m.m.m.m.m.n.m.v.a.n . B i.7 .         ",
"        . V m.s.& $ y.m.n.m.m.m.m.m.m.m.m.m.m.n.m.n.y.D d 9 9 d D y.n.m.m.m.m.m.m.m.m.m.m.n.m.m.k.4.X $ w.a.n .         ",
"      . . ] m.m.C . M n.m.n.m.m.m.m.m.n.m.m.m.m.g.N @ . . o X . . @ N g.m.m.m.m.m.m.m.m.m.n.m.v.a.y . C l.a.A . .       ",
"      . X y.m.m.g.< . { m.m.m.m.n.m.m.m.m.m.m.r.7 . & c ` *.*.` c # . 7 r.m.m.m.n.m.m.m.n.m.m.j.S . % g.v.d.4.X .       ",
"      . < z.m.m.n.' . % u.m.n.m.m.m.m.n.m.m.y.< . s *.,.<.<.<.<.,.*.s . < u.m.n.m.m.m.m.m.m.z.5.% . ' m.n.d.w.% .       ",
"      . f c.m.m.m.x.M . 9 g.m.m.n.m.m.m.m.x.w . g -.,.,.,.,.,.,.,.<.;.g . q x.m.m.m.m.m.m.b.9.6 . M v.m.m.j.i.e .       ",
"    . . D m.m.m.m.m.l.d . 9 u.m.m.n.m.m.m.] . , =.<.,.,.,.,.,.,.,.,.<.=., . { m.m.m.m.n.v.9.6 . e l.m.m.m.l.a.B . .     ",
"    . . 8.m.m.m.m.m.m.g.e . 6 8.n.m.m.m.c.d . ) <.,.,.,.,.<.,.,.,.,.,.<.) . d n.m.m.m.b.G % . e g.m.n.m.m.z.d.F . .     ",
"    . @ s.m.m.m.m.m.m.m.h.d . X C l.m.m.z.< & =.,.,.,.,.,.,.,.,.,.,.,.,.*.& < z.m.m.u.M X . d h.m.m.m.m.m.v.d.6.X .     ",
"    . $ h.m.m.m.m.m.m.c.m.] . . . < [ l.l.% o =.<.,.<.,.,.,.,.<.,.,.,.<.=.# % l.g.F % . . . ] m.m.m.m.m.m.v.d.9.$ .     ",
"    . X y.m.m.m.m.m.n.m.m.C . . . . . < N < . c ;.<.<.,.,.,.,.,.,.,.,.1.c . % N % . . . . . C m.m.m.m.m.m.v.d.4.X .     ",
"    . . C m.m.m.m.m.m.m.l.6 .     . . . . . . . s ) *.=.-.;.;.-.=.*.) s X . . . X . .     . < h.m.n.m.m.m.l.a.m . .     ",
"  . . . @ 8.m.m.m.m.m.x.N . .     . $ ] C < X . . . o & 1 , , , & o . . . X 7 C ] $ .     . . N x.m.m.m.v.d.F X . . .   ",
"  . . . . $ D g.x.z.r.f . .       . % z.m.z.y.[ N w < . . . . . . < e N [ r.z.m.l.% .       . . d r.z.l.i.B $ . . . .   ",
"        . . . $ 7 < X . . .       . $ g.m.m.m.m.m.c.y.@ .     . $ y.n.n.m.m.m.m.g.@ .       . . . X < 6 X . . .         ",
"        . . . . . . . . . .       . . C l.x.x.x.x.l.V . .     . . V h.x.z.x.x.z.C . .       . . . . . . . . . .         ",
"        . .     . .     . .         . . % 7 7 7 7 % . .         . . % 7 7 7 7 % . .         . .     . .     . .         ",
"                . .                   . . . . . . . .             . . . . . . . .                   . .                 "
};
