/* XPM */
static char *New_Project__1_1705262679[] = {
/* columns rows colors chars-per-pixel */
"60 60 86 1 ",
"  c None",
". c #040201",
"X c #0B0503",
"o c #100705",
"O c #130906",
"+ c #190B07",
"@ c #160B08",
"# c #1D0D09",
"$ c #210F0A",
"% c #25120D",
"& c #2A130E",
"* c #31150E",
"= c #2D1610",
"- c #341710",
"; c #361912",
": c #3B1C14",
"> c #3F2018",
", c #421D15",
"< c #442017",
"1 c #4A2117",
"2 c #44221A",
"3 c #4C261C",
"4 c #532519",
"5 c #59271A",
"6 c #53291F",
"7 c #5D291D",
"8 c #632C1F",
"9 c #6A2E1F",
"0 c #572B20",
"q c #5B2D22",
"w c #662D20",
"e c #6A2F21",
"r c #633125",
"t c #6A3426",
"y c #6A3528",
"u c #753425",
"i c #7D3625",
"p c #7C3827",
"a c #7B3728",
"s c #753A2B",
"d c #7C3B2C",
"f c #7F3F30",
"g c #833927",
"h c #843C2B",
"j c #8B3D2A",
"k c #903F2B",
"l c #803F30",
"z c #82412F",
"x c #8E402E",
"c c #95422E",
"v c #98432F",
"b c #844232",
"n c #8C4634",
"m c #904736",
"M c #9C4631",
"N c #934937",
"B c #954A38",
"V c #9C4E3A",
"C c #A54A34",
"Z c #AA4C37",
"A c #A54F3A",
"S c #AE4F38",
"D c #B14F39",
"F c #A3513D",
"G c #AB533E",
"H c #B6523B",
"J c #BA543C",
"K c #C2573E",
"L c #C2583F",
"P c #AF5741",
"I c #AF5842",
"U c #B05742",
"Y c #B45A43",
"T c #BC5D46",
"R c #BE5F48",
"E c #C35B42",
"W c #C95F45",
"Q c #C05F48",
"! c #C76047",
"~ c #CA6047",
"^ c #C6624A",
"/ c #CB644B",
"( c #D1674D",
") c #D3694F",
"_ c #D46A50",
"` c #D86B51",
/* pixels */
" .......................................................... ",
".X&&&&$$$O.+;::>>:>;>>>>>;--&XX=>>>::>>>>::>:;;=@.@&&&%%$$X.",
".*gjjjiu91+0PYYYYYYYYYYYPFCCm#$VYYYYYYYYYYIYHZCv4@4xjjguu9%.",
".;MCCvkjz4$y^___))))____(!LKZ%%T___))))))))(/LKH7%8MZCcjji*.",
"X:cCCCjjg4$t^_____)_____(WLKZ%&T)_________))/LKH8$9MCMcjji*.",
".;cCCvjjg4$y^_____))))(_(WLKZ$%T)_________))/LKH8$8MZCcjji*.",
".:cCZvkjg4$y^______(GVY((WLKZ%%T)_________))/LKH8$9vCCcjji&.",
"X;cZCvkjg4$y^______Ry>f^(WKKZ%%T)_________))/LKH7$8MCCcjji*.",
".;vZCMjjg4$t^______Rdqn/(~LKZ%%T))_`)___`)))~LKH8$8MCCcjji*.",
"X;cCCMjjg4$t^___)__)^^()(WLLZ%%T)))))))))))(/LLH7$8CCCcjji*.",
"X*jMMcggi1#rT^/^////////!JJJM%%G/^////^^//^^WJHS5$7cCckggi&.",
".$79w8544*O,dzzhzzfbffzzzpsuwO@szzzzbzbzzzzzgsst;@;888745,#.",
"..o@OOOooXXX@@@@OOoXXooooooooXXoOOoOOOoXoO@OO@O@oXO@@o@ooo..",
".+2060666000666333<+X&<:<,<,>,,::,:;**%X$2660603666664311,@.",
".2Y^^^^^^^/^^^^EHHC<$uMMvvvMMMvvMMcggg7#3Y^YY^^^^^^^^^THHC:.",
".3R__(___(_(_((^LKS4&pCCCCCCCCCCCCMkjjw$0YGqrR)())`)((WLKD,X",
".3R__________))~LLHu5xZCCCZCCCCCCCMkjj9$4Tn&;Y)______(WKKS,.",
".2R__________))~LLKSMMCCCCCCCZCZCCMcjj8$4T/GI/_)_____(WKKS,X",
"X3R__________))WLLKDMCCCCCCCZCCCCCvkjj8$6R_))))______(WEKS,.",
".3R__________))~LLHu5jZCCZCZCCCZZCMkjj8$6!__________))WEKS,.",
".3R___________(~LKD4&iCCCCCCCCCCCCvkjjw$6R___________)WJKS,X",
".3R_______)___(^LLS1$pCCCCCCCCCCCCMcjjw$6R_____)_)))_(WEKD,.",
".>VIUUUUPPPUUUIFCCx:#8xjjjjjjxxzjjgutu3+2VIUUUUIUUUIYPACCk;.",
".#26333336333333<1,+X&:::::::::::,;***%X#233333633333311,:+.",
".X%%%%%%$@X@%%%%&&%%%%&%$%%%#.X%=%%%&&%%%=%=&%$$@.o#$####oX.",
".=fbbbdau2@:fbbbbbbbbbbbzgiitO@sbbbbbbbbbbbbhpiu;@,8997554#.",
".2R_)~ETHu%t^((())))__))(~JKC%%Y_(((_)))_)((^EJHw$8vZMkjju*.",
".3R__WKKHu%y^_(^^(/^^)__(~LLZ%&T____________~KKHq$8CZCcjji,X",
".3R_)WEKJu%t^_IsmRVsN^)_(WLKZ$%T(__________/(KKH8$9MCCkjjgu ",
".3R_)(EKJu%t^^f=6Py&6T`_(WLKZ%%T____________~KKH8$8MZMcjjjg ",
".3R_)(EKJs%y^_YNP^IBG/))(WLLZ%%T___________((KKH8$8MCCckjg9 ",
".3E`)~EKJy%r^__/^((/()))(WLKZ%%T(__________(~KKD7$9MCCkjjg;X",
".3T_)~EKJu%y^_))__)__))_(!LLZ%%T(__________)/KKD8#wMZCvjji*.",
"X3T__~EKJu$y^_()(((((())(RLJC%%T((((___()()_/TKDw$8MCMkjji*.",
".=sbblaau,#,fbbbnbbxbbbbzddptO@dbbbbbbnbbbbblgau;O:we97551#.",
".X%=%=$$$OXo%=%%%%%%%&&&%%%%%..%==%&%%%%%%=%%$%$oXo$$##+#@..",
".o-::::::::::::;**&oo;633333363333212,-X#2333363333333,,,,+.",
".=ajjjjjjjjjhjjauu8%$zIYUUIIIIPIIIGCCCu#2AUPUUPUIIUUUPSCCk;.",
".:MCCCCCCCCCCCCMjjp;&V__)___(_____/EKKc&6R`___)_)____)WEKS,.",
".:kCCCCZCCCZCCCkjjp=&V____________/WKKj=6R___/TU^)_)))WKKD,X",
".;cCCCCCCCCCZCCcjjg*%C__________`)(EJLx&3R___^rqV)___(WKKS,.",
".>cCCZCCCZCCCCCMjji*&M__________))/ELEx&0R__(^3:n^^)_(WTKD,.",
".>cZCCCZCCCCCCMcjjg*&V)_________))(LLLx&3T___/YPRVnP/)WEKS,X",
".;cCZCCCZCCZCCCvjji*&V)________)))/WLLx&0R_____/Y3%yR_WEKS,.",
".:cCCCCCCZCZCCCkjji*%V_))((_)))))((EJLc&6R_(_(__^BfP//WEKS,X",
".;xMMvvMvvvvMMMjzpu*%B^^//^/^^^//((LJHh%3Y/^^^^^^RRR/WTJHC:.",
".@;,<,,,,,,,,,,;>==oo>6666666666rF!Z81;X$2666606066003311,+.",
"..oOoooooXXXoooOoooXXo@@@O@OOXo@%sQN;ooXo@@O@@@OoXXO@OOooX..",
".&sbbdaau<@:dbbzbzfbzzzzzpupwO@yxP/Rmfbfzzzzzsuu;O:888744,$.",
".2Y^^TJHDt%rT^/^^^/////^/JHHM%%I///(/^/^//^^EJHS5$7vCccggu*X",
".3R_)(EKHu%t^__))))))_(_(WKKZ%%T/Bqf/___)`))/LLH8$8vZCcjji&.",
"X3R_)~EKJu%y^___________(~LKZ%%T/f=0T_)__)))/KLH7$8CCMcjji*.",
".3!))(LKJu%t^)(())______(WKKA%%T(InV/___)`)(~LKH8$9MZCcjji*.",
".3T))~LKJu%t^RBF/_______(WKKZ%%T_())((__))))/LKH8$8MCMcjji*.",
".3Q))(EKJu%tRN>6R)______(WKKZ%%R)_______)`))/LKH8$8vCCcjji*.",
".3Q`)~EKHu%tRV0rR)______(WKKA%%T)_______)))`~LLH7$9MCCcjji*.",
".3R_)/ELJu%y^/R^(___))__)!KKZ%%T____))))___)/LLH8$8vZCcjjg*.",
"X>FYYGACM8$7GIYYYYYYYGYYIGCCc$$VYYYYYIYYYYYYGCAv4+4jxjiuu9%.",
".o;>::;;=#.#:>:>>>>>>>;>>:;-&..=>>>>>>;::>>>:;;=+.+&&&&$$#X.",
" .......................................................... "
};
