/* XPM */
static char *befor_xpm1705171545[] = {
/* columns rows colors chars-per-pixel */
"60 60 74 1 ",
"  c None",
". c #010000",
"X c #0D0604",
"o c #0F0806",
"O c #110705",
"+ c #110806",
"@ c #190B07",
"# c #160B08",
"$ c #1D0D09",
"% c #230F0B",
"& c #26120D",
"* c #2D140E",
"= c #32160F",
"- c #2E1611",
"; c #331710",
": c #361811",
"> c #3B1C15",
", c #421E15",
"< c #481F15",
"1 c #432017",
"2 c #4C2117",
"3 c #46231A",
"4 c #4F2419",
"5 c #54261B",
"6 c #50281E",
"7 c #5D291D",
"8 c #612A1D",
"9 c #692E1F",
"0 c #572B21",
"q c #5A2C21",
"w c #652E21",
"e c #6A2F20",
"r c #643226",
"t c #6A3325",
"y c #6C3629",
"u c #723323",
"i c #7C3726",
"p c #71382A",
"a c #7C3B2B",
"s c #813827",
"d c #853B2A",
"f c #8B3D2A",
"g c #95422E",
"h c #99442F",
"j c #804030",
"k c #8C4433",
"l c #954431",
"z c #9C4631",
"x c #934937",
"c c #964B38",
"v c #9B4D3A",
"b c #A54B35",
"n c #A84C35",
"m c #A64D38",
"M c #AD4F39",
"N c #A4513D",
"B c #AC533E",
"V c #B5523A",
"C c #BC553D",
"Z c #C1573E",
"A c #C3583F",
"S c #AC5641",
"D c #B25843",
"F c #BB5D46",
"G c #BF5F48",
"H c #C65B41",
"J c #C85E44",
"K c #CB6147",
"L c #C5624A",
"P c #CD654C",
"I c #D1664C",
"U c #D2694F",
"Y c #D56A50",
"T c #D96C52",
/* pixels */
"                                                            ",
"                                                            ",
" .......................................................... ",
"..$%$$@@@o.+&&&&&&-&&&&&&&&%%..&&&&&&&&-&-&&&%&%O.+$$$$@@@..",
".&hhzgiss5.tLLLLLLLLLLLLLCVVm%&DLLLLLLLLLLLLFMVV7.8bzzfisi%.",
".*bbbbfff7.pYYYYYYYUUYYYUHZAV%-LYYYYYYYUYYYYIZZHe.unbbgfff%.",
".*zbbbfff8.pYYYYYYYYYYYYUJZZV%&LYUYYYYYYYYYYKZZAw.tbbbgffd&.",
".*bbbzfff7.pTYYUYYYYYYYYUHZFV&&LYYYUYYYYYYYYKHZHw.unbbgfff%.",
".*bbbzfff8.pTYYYYYYYxtNYUJZAV%*LYYYUYYYYUYYUKAZAw.unnbffff%.",
".*bbbzfff8.yYYYYYYYP>.qYUJZAV%&LYUYYYYUYYYYYKAZAw.ubbblfff&.",
".*bbbbfff7.pTYYYYYYYDcFYUJZAV&&LYYUUYUYUYYUUIHZZw.ubbbffff&.",
".*bbbzgff7.pTYYYYYYYYTTUUJAAV&&LTUTUYYYTTYTUIZHHt.unnnhfff&.",
".&ddfduui2.qDDSDDDDDDDDDDbbbg@$NDDDDDDDDDDDDSbzb5.7ffgiuue$.",
"..XXXX.XX..Xoooooooo++oo+XXXo..oooooXoo+OoooXXoX...XXXXXXX..",
".o1313333333333,,>>@.*:=:::=::::=::*-*%.#1,313313333111,>>O.",
".>PYUUUUIUUUUUUKZZZ4.ibbbbbbbbbbbbbfffe.qYYIUUYUUUYUUUJDZC=.",
".>UYUYUYYUUYYYYKZAA5.dbbbbbbnbnbbbbfffu.qYB30GYYYYYYYYJZZC:.",
".>PYYYYYYYYYYYYKZAAd,gnbnbbbbbbbbnbfffe.qTc@-DYYUUYYYYJZAC:.",
".>PYYUYYYUUYYYYKAAAZMbbbbnbnnbnbbbbfff9.qYIFFYYYYYYYYYJZAC:.",
".>PYYYYYYYYYYYYKZAAVzbbnbbbbbmbbbbbfff9.qYYYYYYYUYYYYYJZZC:.",
".1UUYYYYUYUYYUYKZAAt$fbbbbbmbbbbbnbffft.qYYYYYYYYYYYYYJZAC:.",
".>UUYYYYYYUYYYYKCAA4.snnnbnnbnbnnnzfffe.qYYYYYYYYUYUYUJZAC:.",
".>UUYTTYYYYYTYTKAHH5.dnnnnnnnnnnnnbfffe.qYYYYYTYYYYYTYJHHC:.",
".&xxxxxxcxxxxxxkdfd:.7uuuuuuuuuuuuu889<.>xcxxxxxcxxxxxkddd%.",
"............................................................",
".$ryyywrw,.>yyyyyyyyyyypytww7oOryyyyyyyyyyyytww9;.:5552<<,O.",
".1UYTIHHAd.pTTYTYTTYYYYYYKAAV$&PYYYYYYTYTYTTIAAAt.uMnnhfff&.",
".>UUYJHFHd.pTUYTYYYTYYUYUHZAV&&LYYYYYYYYYYUYKAAAw.tnbbhfff*.",
".>PYYIHFHd.pYYDpxUSpcYYYUJCAV%&LYUYUUYYYYYUYPAZAw.ubbbgfffe ",
".>IYYPZZZd.yTYp.-Lr.:LYYUHAAV&&LYUYYYYYYYYYYKAZAw.unbnfffff ",
".>PYYIZZHd.pTYFkSYDkSUYYUHZAV&&LYYYUYUYUYYYYPAAAw.ubbnhfff9$",
".>IYYKZZHd.pYYYYYYYTYYUUUKACV&&LYUYYYYYYYYUYKAZAw.unbbgfff&.",
".>UYYPHZHd.pYYYYYYYYYYYYYHAHV&&LYYYYYYYYYYYYKAZAw.unbbgffd%.",
".>UTYIHZHd.pTTYYTYYYTYTYYJAZV%&PYYYYYTYTTYTYIAAHe.unnnhfff&.",
".$ryyyww8,.>yyyyyyyuyyyyywww7OOryyyyyyyyyyyytw9w:.:5552<<<O.",
"............................................................",
".$euuuuuuuuuuuut887%.pcxxxxxxxxxcxkfddw.>cxxxcxxxxxxxxkddd%.",
".-bmmmnnnnnnnnMhfff>XNTTTYYYTYYYTYIHHJl.qYYYYYTYTTYTYTJZHC:.",
".-bbnnbbnbbbbbbhfff:.NYYYYYYYYYYYYIHHZlXqYYYYYYYYUYYYYJHAC:.",
".-bbnbbbbnnbnbbhfff>XNYYYYYYYYYYYYIHCHl.qYYYYPjtSYYYYYJZAC:.",
".*bbnbbnbbbnbnbzfff:XmYYYYYYYYYUYYIHZAgXqYYYYF&.aYYYUYJZZC:.",
".*zbbbbbbnbbbbbzfff:.NTYUUYUYYYYYYIZZAl.qYYYYPSvLSkFYYJZAC:.",
".*bbbbbbbbbnbbbgfff>XNTUYYYYUYYYYYIHZAl.qYYYYYYYK;.tYULZAC:.",
".*bbbnnbbnbbnbbhfff:.NTUUYUYYYYYUYIHAAlXqYYYYYYYYvpSYYJFZC:.",
".*zbbbbbbbbbbbbgfdf:.NUUUUUUUUUUPYIHZHf.0UUUYUUUYYYYUIHZZC:.",
".o=::==:=::>:::=***O.:33333333333cIM6>;.@3333331333333,>,>o.",
"..OOooXXOX..ooooo+oo+oXooXXXX..XopYB$Xo++XooooXX...XXXXXX...",
".-SDDBbbb9.qDDDDDDDDDDDDDbbvl$$NDPYUFDDDDDDSBzbm5.qfffiuuu$.",
".>UYYPHHAd.pTYYYYTYYYUYTYJAAV&&PYPFGYYYYYYYYPHAHe.unbbgfff%.",
".>PYYUHCHd.pYYYYYYYUYYYUYJAAV%&LYao>LYYYUYYYKHZZw.unbngfff&.",
".>UYYPCZAd.yTYYYYYYYYYYUUHCAV%&LYc1rPYYYYYYYKHCHw.tnnngffs&.",
".>UUYPHZHd.pYUPPYUYYYYYYYHAAV%&LYYYYYYYYUYYUKHCHe.unbnffff%.",
".>PYYPHCAd.pTx-6LYUYYYYYUHAAV&&LYYYUYYYYYUYYKHCHw.unbbgfff%.",
".>PYYPZZHd.pTk$1LYYYUYYYYHCHV&&LYUYYYUYUYYYYKZZZw.unnbgffs&.",
".>UYYPHZHf.pTYLPUYYYYYUYUJHHV%&LYUUYYYYUYYYYPHHHw.unnnffff&.",
".>GLLHVVDp.rLLLLLLLLLLLLLCMVb$&DLLLLLLLLLLLLHMVV7.8blzfssi%.",
".X&&&&&&%#.+&&-&&&&&&&-&&&&&$.X&&&-&&&-&&&&-&&&&O.+$$$$@@@..",
" .......................................................... ",
"                                                            ",
"                                                            "
};
